<?xml version="1.0" encoding="utf-8"?>
<!-- Generator: Adobe Illustrator 24.3.0, SVG Export Plug-In . SVG Version: 6.00 Build 0)  -->
<svg version="1.1" id="Layer_1" xmlns="http://www.w3.org/2000/svg" xmlns:xlink="http://www.w3.org/1999/xlink" x="0px" y="0px"
	 viewBox="0 0 200 200" style="enable-background:new 0 0 200 200;" xml:space="preserve">
<style type="text/css">
	.st0{clip-path:url(#SVGID_3_);}
	.st1{clip-path:url(#SVGID_7_);}
	.st2{clip-path:url(#SVGID_11_);}
	.st3{clip-path:url(#SVGID_15_);}
	.st4{clip-path:url(#SVGID_19_);}
	.st5{clip-path:url(#SVGID_23_);}
	.st6{clip-path:url(#SVGID_27_);}
	.st7{clip-path:url(#SVGID_31_);}
	.st8{clip-path:url(#SVGID_35_);}
	.st9{clip-path:url(#SVGID_39_);}
	.st10{clip-path:url(#SVGID_43_);}
	.st11{clip-path:url(#SVGID_47_);}
	.st12{clip-path:url(#SVGID_48_);}
	.st13{opacity:0.2;clip-path:url(#SVGID_50_);}
	.st14{fill:#303030;}
	.st15{fill:#34B515;}
	.st16{fill:#329908;}
	.st17{fill:#E57C0A;}
	.st18{fill:#D16800;}
	.st19{fill:#FFC41D;}
	.st20{fill:#F4A211;}
	.st21{fill:#353A3A;}
	.st22{fill:#1A1E1E;}
</style>
<g>
	<defs>
		<line id="SVGID_1_" x1="71.8" y1="76.5" x2="118.1" y2="76.5"/>
	</defs>
	<defs>
		<line id="SVGID_2_" x1="118.1" y1="122.8" x2="71.8" y2="122.8"/>
	</defs>
	<use xlink:href="#SVGID_1_"  style="overflow:visible;fill:#1D4520;"/>
	<use xlink:href="#SVGID_2_"  style="overflow:visible;fill:#1D4520;"/>
	<clipPath id="SVGID_3_">
		<use xlink:href="#SVGID_1_"  style="overflow:visible;"/>
	</clipPath>
	<clipPath id="SVGID_4_" class="st0">
		<use xlink:href="#SVGID_2_"  style="overflow:visible;"/>
	</clipPath>
</g>
<g>
	<defs>
		<line id="SVGID_5_" x1="71.8" y1="76.5" x2="118.1" y2="76.5"/>
	</defs>
	<defs>
		<line id="SVGID_6_" x1="118.1" y1="122.8" x2="71.8" y2="122.8"/>
	</defs>
	<use xlink:href="#SVGID_5_"  style="overflow:visible;fill:#1D4520;"/>
	<use xlink:href="#SVGID_6_"  style="overflow:visible;fill:#1D4520;"/>
	<clipPath id="SVGID_7_">
		<use xlink:href="#SVGID_5_"  style="overflow:visible;"/>
	</clipPath>
	<clipPath id="SVGID_8_" class="st1">
		<use xlink:href="#SVGID_6_"  style="overflow:visible;"/>
	</clipPath>
</g>
<g>
	<defs>
		<line id="SVGID_9_" x1="71.8" y1="76.5" x2="118.1" y2="76.5"/>
	</defs>
	<defs>
		<line id="SVGID_10_" x1="118.1" y1="122.8" x2="71.8" y2="122.8"/>
	</defs>
	<use xlink:href="#SVGID_9_"  style="overflow:visible;fill:#1D4520;"/>
	<use xlink:href="#SVGID_10_"  style="overflow:visible;fill:#1D4520;"/>
	<clipPath id="SVGID_11_">
		<use xlink:href="#SVGID_9_"  style="overflow:visible;"/>
	</clipPath>
	<clipPath id="SVGID_12_" class="st2">
		<use xlink:href="#SVGID_10_"  style="overflow:visible;"/>
	</clipPath>
</g>
<g>
	<defs>
		<line id="SVGID_13_" x1="71.8" y1="76.5" x2="118.1" y2="76.5"/>
	</defs>
	<defs>
		<line id="SVGID_14_" x1="118.1" y1="122.8" x2="71.8" y2="122.8"/>
	</defs>
	<use xlink:href="#SVGID_13_"  style="overflow:visible;fill:#1D4520;"/>
	<use xlink:href="#SVGID_14_"  style="overflow:visible;fill:#1D4520;"/>
	<clipPath id="SVGID_15_">
		<use xlink:href="#SVGID_13_"  style="overflow:visible;"/>
	</clipPath>
	<clipPath id="SVGID_16_" class="st3">
		<use xlink:href="#SVGID_14_"  style="overflow:visible;"/>
	</clipPath>
</g>
<g>
	<defs>
		<line id="SVGID_17_" x1="71.8" y1="76.5" x2="118.1" y2="76.5"/>
	</defs>
	<defs>
		<line id="SVGID_18_" x1="118.1" y1="122.8" x2="71.8" y2="122.8"/>
	</defs>
	<use xlink:href="#SVGID_17_"  style="overflow:visible;fill:#1D4520;"/>
	<use xlink:href="#SVGID_18_"  style="overflow:visible;fill:#1D4520;"/>
	<clipPath id="SVGID_19_">
		<use xlink:href="#SVGID_17_"  style="overflow:visible;"/>
	</clipPath>
	<clipPath id="SVGID_20_" class="st4">
		<use xlink:href="#SVGID_18_"  style="overflow:visible;"/>
	</clipPath>
</g>
<g>
	<defs>
		<line id="SVGID_21_" x1="71.8" y1="76.5" x2="118.1" y2="76.5"/>
	</defs>
	<defs>
		<line id="SVGID_22_" x1="118.1" y1="122.8" x2="71.8" y2="122.8"/>
	</defs>
	<use xlink:href="#SVGID_21_"  style="overflow:visible;fill:#1D4520;"/>
	<use xlink:href="#SVGID_22_"  style="overflow:visible;fill:#1D4520;"/>
	<clipPath id="SVGID_23_">
		<use xlink:href="#SVGID_21_"  style="overflow:visible;"/>
	</clipPath>
	<clipPath id="SVGID_24_" class="st5">
		<use xlink:href="#SVGID_22_"  style="overflow:visible;"/>
	</clipPath>
</g>
<g>
	<defs>
		<line id="SVGID_25_" x1="71.8" y1="76.5" x2="118.1" y2="76.5"/>
	</defs>
	<defs>
		<line id="SVGID_26_" x1="118.1" y1="122.8" x2="71.8" y2="122.8"/>
	</defs>
	<use xlink:href="#SVGID_25_"  style="overflow:visible;fill:#1D4520;"/>
	<use xlink:href="#SVGID_26_"  style="overflow:visible;fill:#1D4520;"/>
	<clipPath id="SVGID_27_">
		<use xlink:href="#SVGID_25_"  style="overflow:visible;"/>
	</clipPath>
	<clipPath id="SVGID_28_" class="st6">
		<use xlink:href="#SVGID_26_"  style="overflow:visible;"/>
	</clipPath>
</g>
<g>
	<defs>
		<line id="SVGID_29_" x1="71.8" y1="76.5" x2="118.1" y2="76.5"/>
	</defs>
	<defs>
		<line id="SVGID_30_" x1="118.1" y1="122.8" x2="71.8" y2="122.8"/>
	</defs>
	<use xlink:href="#SVGID_29_"  style="overflow:visible;fill:#1D4520;"/>
	<use xlink:href="#SVGID_30_"  style="overflow:visible;fill:#1D4520;"/>
	<clipPath id="SVGID_31_">
		<use xlink:href="#SVGID_29_"  style="overflow:visible;"/>
	</clipPath>
	<clipPath id="SVGID_32_" class="st7">
		<use xlink:href="#SVGID_30_"  style="overflow:visible;"/>
	</clipPath>
</g>
<g>
	<defs>
		<line id="SVGID_33_" x1="71.8" y1="76.5" x2="118.1" y2="76.5"/>
	</defs>
	<defs>
		<line id="SVGID_34_" x1="118.1" y1="122.8" x2="71.8" y2="122.8"/>
	</defs>
	<use xlink:href="#SVGID_33_"  style="overflow:visible;fill:#1D4520;"/>
	<use xlink:href="#SVGID_34_"  style="overflow:visible;fill:#1D4520;"/>
	<clipPath id="SVGID_35_">
		<use xlink:href="#SVGID_33_"  style="overflow:visible;"/>
	</clipPath>
	<clipPath id="SVGID_36_" class="st8">
		<use xlink:href="#SVGID_34_"  style="overflow:visible;"/>
	</clipPath>
</g>
<g>
	<defs>
		<line id="SVGID_37_" x1="71.8" y1="76.5" x2="118.1" y2="76.5"/>
	</defs>
	<defs>
		<line id="SVGID_38_" x1="118.1" y1="122.8" x2="71.8" y2="122.8"/>
	</defs>
	<use xlink:href="#SVGID_37_"  style="overflow:visible;fill:#1D4520;"/>
	<use xlink:href="#SVGID_38_"  style="overflow:visible;fill:#1D4520;"/>
	<clipPath id="SVGID_39_">
		<use xlink:href="#SVGID_37_"  style="overflow:visible;"/>
	</clipPath>
	<clipPath id="SVGID_40_" class="st9">
		<use xlink:href="#SVGID_38_"  style="overflow:visible;"/>
	</clipPath>
</g>
<g>
	<defs>
		<line id="SVGID_41_" x1="71.8" y1="76.5" x2="118.1" y2="76.5"/>
	</defs>
	<defs>
		<line id="SVGID_42_" x1="118.1" y1="122.8" x2="71.8" y2="122.8"/>
	</defs>
	<use xlink:href="#SVGID_41_"  style="overflow:visible;fill:#1D4520;"/>
	<use xlink:href="#SVGID_42_"  style="overflow:visible;fill:#1D4520;"/>
	<clipPath id="SVGID_43_">
		<use xlink:href="#SVGID_41_"  style="overflow:visible;"/>
	</clipPath>
	<clipPath id="SVGID_44_" class="st10">
		<use xlink:href="#SVGID_42_"  style="overflow:visible;"/>
	</clipPath>
</g>
<g>
	<defs>
		<line id="SVGID_45_" x1="71.8" y1="76.5" x2="118.1" y2="76.6"/>
	</defs>
	<defs>
		<line id="SVGID_46_" x1="118.1" y1="122.9" x2="71.8" y2="122.8"/>
	</defs>
	<use xlink:href="#SVGID_45_"  style="overflow:visible;fill:#1D4520;"/>
	<use xlink:href="#SVGID_46_"  style="overflow:visible;fill:#1D4520;"/>
	<clipPath id="SVGID_47_">
		<use xlink:href="#SVGID_45_"  style="overflow:visible;"/>
	</clipPath>
	<clipPath id="SVGID_48_" class="st11">
		<use xlink:href="#SVGID_46_"  style="overflow:visible;"/>
	</clipPath>
	<g transform="matrix(1.33333 0 0 -1.33333 0 200)" class="st12">
		<g>
			<defs>
				<rect id="SVGID_49_" x="-110.9" y="-17.5" width="247.3" height="185.5"/>
			</defs>
			<clipPath id="SVGID_50_">
				<use xlink:href="#SVGID_49_"  style="overflow:visible;"/>
			</clipPath>
			<g class="st13">
				<path class="st14" d="M105.5,144.8H-80V5.7h185.5V144.8z M104.4,6.9H-78.8v136.8h183.1V6.9z"/>
			</g>
		</g>
	</g>
</g>
<polygon class="st15" points="123.9,131 99.8,135.8 75.8,131 75.8,192.7 99.8,168.9 123.9,192.7 "/>
<polyline class="st16" points="99.8,168.9 123.9,192.7 123.9,131 99.8,135.8 76.1,131 "/>
<path class="st17" d="M158,88.3l11.4-11.4l-11.7-11.7l5.7-15.1L148,44V27.7h-15.4l-6.3-15.1L111.3,19L99.8,7.3L88.1,19l-15.1-6.3
	l-6,15.1H51.7V44L36,50.3l6,15.1L30.6,76.8L42,88.6l-5.7,15.1l15.4,6v17.5H67l6.3,14.5l15.1-6.6l11.4,11.1l11.7-11.7l15.1,6.9
	l6-14.5H148V109l15.7-6.3L158,88.3z M105.9,87.1l-2.7-1.2l-1.2,3.3l-2.1-2.4l-2.4,2.4l-0.9-3l-2.7,1.2v-2.4h-4.2l1.2-3.9l-3.3-1.5
	l2.4-2.7l-2.4-2.4l3-1.2l-1.2-3.3h4.5v-3.6l2.7,1.2l1.2-3.3l2.1,2.7l2.4-2.4l0.9,3l2.7-1.2v3.6h4.2l-1.2,3l3.3,1.2l-2.4,2.4l2.4,2.4
	l-3,1.8l1.2,3.9h-4.5V87.1z"/>
<path class="st18" d="M51.7,109v18.1H67l6.3,14.5l15.1-6.6l11.4,11.1l11.7-11.7l15.1,6.9l6-14.5H148V109l15.7-6.3l-6-15.1l11.4-11.4
	l-11.4-11.7l5.7-15.1l-15.4-6V27.7H133 M105.9,87.1l-2.7-1.2l-1.2,3.3l-2.1-2.4l-2.4,2.4l-0.9-3l-2.7,1.2v-2.4h-4.2l1.2-3.9
	l-3.3-1.5l2.4-2.7l-2.4-2.4l3-1.2l-1.2-3.3h4.5v-3.6l2.7,1.2l1.2-3.3l2.1,2.7l2.4-2.4l0.9,3l2.7-1.2v3.6h4.2l-1.2,3l3.3,1.2
	l-2.4,2.4l2.4,2.4l-3,1.8l1.2,3.9h-4.5V87.1z"/>
<circle class="st19" cx="99.8" cy="76.8" r="42.8"/>
<path class="st20" d="M130.3,46.4c16.9,16.9,16.9,44,0,60.8s-44,16.9-60.8,0"/>
<path class="st21" d="M93.8,60.9h-0.3l-11.1,4.8l-2.1-9.9l15.4-6.9h10.2V106h-12V60.9z"/>
<path class="st22" d="M105.9,48.8V106h-12V83.1l0,0"/>
</svg>
