<?xml version="1.0" encoding="utf-8"?>
<!-- Generator: Adobe Illustrator 24.3.0, SVG Export Plug-In . SVG Version: 6.00 Build 0)  -->
<svg version="1.1" xmlns="http://www.w3.org/2000/svg" xmlns:xlink="http://www.w3.org/1999/xlink" x="0px" y="0px"
	 viewBox="0 0 200 200" style="enable-background:new 0 0 200 200;" xml:space="preserve">
<style type="text/css">
	.st0{fill:url(#SVGID_1_);stroke:#BBBDBF;stroke-miterlimit:10;}
	.st1{fill:url(#SVGID_2_);stroke:#231F20;stroke-miterlimit:10;}
	.st2{fill:url(#SVGID_3_);}
	.st3{fill:url(#SVGID_4_);}
	.st4{fill:url(#SVGID_5_);}
	.st5{clip-path:url(#SVGID_6_);}
	.st6{fill:#8CF7F7;}
	.st7{fill:none;stroke:#303030;stroke-linecap:round;stroke-linejoin:round;stroke-miterlimit:13.3333;}
	.st8{fill:#00E4E4;}
	.st9{fill:none;stroke:#303030;stroke-linejoin:round;stroke-miterlimit:13.3333;}
	.st10{fill:url(#SVGID_7_);}
	.st11{clip-path:url(#SVGID_8_);}
	.st12{fill:#75F5F5;}
	.st13{fill:url(#SVGID_9_);}
	.st14{clip-path:url(#SVGID_10_);}
	.st15{fill:#E3A6D6;}
	.st16{fill:none;stroke:#303030;stroke-miterlimit:13.3333;}
	.st17{fill:url(#SVGID_11_);}
	.st18{clip-path:url(#SVGID_12_);}
	.st19{fill:url(#SVGID_13_);}
	.st20{clip-path:url(#SVGID_14_);}
	.st21{fill:url(#SVGID_15_);}
	.st22{clip-path:url(#SVGID_16_);}
	.st23{opacity:0.2;clip-path:url(#SVGID_17_);}
	.st24{fill:#303030;}
	.st25{fill:#00E4E4;stroke:#303030;stroke-miterlimit:13.3333;}
	.st26{fill:url(#SVGID_18_);stroke:#000000;stroke-miterlimit:10;}
	.st27{fill:url(#SVGID_19_);}
	.st28{fill:url(#SVGID_20_);}
	.st29{fill:url(#SVGID_21_);}
	.st30{fill:url(#SVGID_23_);stroke:#000000;stroke-miterlimit:10;}
	.st31{fill:url(#SVGID_24_);stroke:#000000;stroke-miterlimit:10;}
	.st32{fill:#8CF7F7;stroke:#000000;stroke-miterlimit:10;}
	.st33{fill:url(#SVGID_26_);stroke:#000000;stroke-miterlimit:10;}
	.st34{fill:url(#SVGID_27_);stroke:#000000;stroke-miterlimit:10;}
	.st35{fill:#E3A6D6;stroke:#000000;stroke-miterlimit:10;}
	.st36{fill:url(#SVGID_29_);stroke:#000000;stroke-miterlimit:10;}
	.st37{fill:#00E4E4;stroke:#000000;stroke-miterlimit:10;}
	.st38{fill:url(#SVGID_30_);stroke:#000000;stroke-miterlimit:10;}
	.st39{fill:none;stroke:#000000;stroke-linecap:round;stroke-linejoin:round;stroke-miterlimit:13.3333;}
	.st40{fill:none;stroke:#000000;stroke-miterlimit:13.3333;}
	.st41{fill:none;stroke:#000000;stroke-linejoin:round;stroke-miterlimit:13.3333;}
	.st42{fill:url(#SVGID_32_);stroke:#000000;stroke-miterlimit:10;}
	.st43{fill:url(#SVGID_33_);stroke:#000000;stroke-miterlimit:10;}
	.st44{fill:url(#SVGID_35_);stroke:#000000;stroke-miterlimit:10;}
	.st45{fill:url(#SVGID_36_);stroke:#000000;stroke-miterlimit:10;}
	.st46{fill:url(#SVGID_38_);stroke:#000000;stroke-miterlimit:10;}
	.st47{fill:url(#SVGID_40_);stroke:#000000;stroke-miterlimit:10;}
	.st48{fill:url(#SVGID_41_);stroke:#000000;stroke-miterlimit:10;}
	.st49{fill:#75F5F5;stroke:#000000;stroke-miterlimit:10;}
	.st50{fill:url(#SVGID_42_);stroke:#000000;stroke-width:0.25;stroke-miterlimit:10;}
	.st51{fill:none;stroke:#000000;stroke-width:0.25;stroke-linecap:round;stroke-linejoin:round;stroke-miterlimit:13.3333;}
	.st52{fill:url(#SVGID_43_);stroke:#000000;stroke-width:0.25;stroke-miterlimit:10;}
	.st53{fill:none;stroke:#000000;stroke-width:0.25;stroke-linejoin:round;stroke-miterlimit:13.3333;}
	.st54{fill:url(#SVGID_44_);stroke:#000000;stroke-width:0.25;stroke-miterlimit:10;}
	.st55{fill:url(#SVGID_45_);stroke:#000000;stroke-width:0.25;stroke-miterlimit:10;}
	.st56{fill:#8CF7F7;stroke:#000000;stroke-width:0.25;stroke-miterlimit:10;}
	.st57{fill:url(#SVGID_46_);stroke:#000000;stroke-width:0.25;stroke-miterlimit:10;}
	.st58{fill:#E3A6D6;stroke:#000000;stroke-width:0.25;stroke-miterlimit:10;}
	.st59{fill:url(#SVGID_47_);stroke:#000000;stroke-width:0.25;stroke-miterlimit:10;}
	.st60{fill:#FFFFFF;stroke:#000000;stroke-width:0.25;stroke-miterlimit:10;}
</style>
<g id="Layer_2">
	
		<radialGradient id="SVGID_1_" cx="84.0719" cy="84.5082" r="61.3141" gradientTransform="matrix(1.3593 0 0 1.3275 -13.9006 -12.1865)" gradientUnits="userSpaceOnUse">
		<stop  offset="0.1269" style="stop-color:#EBEBEB"/>
		<stop  offset="0.6604" style="stop-color:#F6F6F6"/>
		<stop  offset="1" style="stop-color:#020202"/>
	</radialGradient>
	<ellipse class="st0" cx="100.4" cy="100" rx="83.3" ry="81.4"/>
	
		<radialGradient id="SVGID_2_" cx="84.072" cy="84.5083" r="71.2117" fx="118.3013" fy="59.3457" gradientTransform="matrix(1.3593 0 0 1.3275 -13.9006 -12.1865)" gradientUnits="userSpaceOnUse">
		<stop  offset="0.1269" style="stop-color:#FFFFFF"/>
		<stop  offset="0.8831" style="stop-color:#020202"/>
		<stop  offset="0.9244" style="stop-color:#020202"/>
	</radialGradient>
	<path class="st1" d="M100.4,168.1c-38.5,0-69.8-30.6-69.8-68.1c0-37.6,31.3-68.1,69.8-68.1c38.5,0,69.8,30.6,69.8,68.1
		C170.1,137.6,138.8,168.1,100.4,168.1z"/>
	<g>
		<radialGradient id="SVGID_3_" cx="100.38" cy="100.0011" r="62.2353" gradientUnits="userSpaceOnUse">
			<stop  offset="0" style="stop-color:#26A9E0"/>
			<stop  offset="0" style="stop-color:#020202"/>
			<stop  offset="0" style="stop-color:#4D83C3"/>
			<stop  offset="0" style="stop-color:#1B75BB"/>
			<stop  offset="0" style="stop-color:#F9FAFA"/>
			<stop  offset="1" style="stop-color:#BDDAF3"/>
			<stop  offset="1" style="stop-color:#EB008B"/>
			<stop  offset="1" style="stop-color:#EA028C"/>
			<stop  offset="1" style="stop-color:#E6098F"/>
			<stop  offset="1" style="stop-color:#DF1493"/>
			<stop  offset="1" style="stop-color:#D5259A"/>
			<stop  offset="1" style="stop-color:#C83BA3"/>
			<stop  offset="1" style="stop-color:#B757AF"/>
			<stop  offset="1" style="stop-color:#A477BC"/>
			<stop  offset="1" style="stop-color:#8F9BCB"/>
			<stop  offset="1" style="stop-color:#8AA3CE"/>
			<stop  offset="1" style="stop-color:#70BF44"/>
		</radialGradient>
		<path class="st2" d="M141.8,146.4c-26,22.4-65.8,19.9-88.6-5.7C30.4,115.1,33,76,59,53.6c26-22.4,65.8-19.9,88.6,5.7
			C170.4,84.9,167.8,124,141.8,146.4z"/>
		
			<radialGradient id="SVGID_4_" cx="89.4482" cy="73.9427" r="59.9634" gradientTransform="matrix(1.3593 0 0 1.3275 -13.9006 -12.1865)" gradientUnits="userSpaceOnUse">
			<stop  offset="0" style="stop-color:#26A9E0"/>
			<stop  offset="0" style="stop-color:#020202"/>
			<stop  offset="0" style="stop-color:#4D83C3"/>
			<stop  offset="0" style="stop-color:#1B75BB"/>
			<stop  offset="0" style="stop-color:#F9FAFA"/>
			<stop  offset="0" style="stop-color:#FFFFFF"/>
			<stop  offset="0.1799" style="stop-color:#FAC2E3"/>
			<stop  offset="0.4029" style="stop-color:#F57EC4"/>
			<stop  offset="0.6045" style="stop-color:#F148AC"/>
			<stop  offset="0.7775" style="stop-color:#EE219A"/>
			<stop  offset="0.9151" style="stop-color:#EC098F"/>
			<stop  offset="1" style="stop-color:#EB008B"/>
			<stop  offset="1" style="stop-color:#EA028C"/>
			<stop  offset="1" style="stop-color:#E6098F"/>
			<stop  offset="1" style="stop-color:#DF1493"/>
			<stop  offset="1" style="stop-color:#D5259A"/>
			<stop  offset="1" style="stop-color:#C83BA3"/>
			<stop  offset="1" style="stop-color:#B757AF"/>
			<stop  offset="1" style="stop-color:#A477BC"/>
			<stop  offset="1" style="stop-color:#8F9BCB"/>
			<stop  offset="1" style="stop-color:#8AA3CE"/>
			<stop  offset="1" style="stop-color:#E63825"/>
		</radialGradient>
		<path class="st3" d="M100.4,162.5c-17.7,0-35.3-7.2-47.8-21.3C29.5,115.3,32.1,75.7,58.5,53c12.7-11,29.1-16.4,46.1-15.3
			c17,1.1,32.4,8.6,43.6,21.1c23.1,25.9,20.5,65.5-5.9,88.2C130.2,157.4,115.3,162.5,100.4,162.5z M100.3,39
			c-15,0-29.4,5.3-40.8,15.1c-25.7,22.2-28.3,60.8-5.7,86.1c22.5,25.3,61.8,27.8,87.5,5.6l0.5,0.6l-0.5-0.6
			c12.4-10.7,19.9-25.6,21-41.9c1.1-16.3-4.3-32-15.2-44.2c-10.9-12.2-26-19.6-42.6-20.6C103,39.1,101.7,39,100.3,39z"/>
	</g>
	<g>
		
			<linearGradient id="SVGID_5_" gradientUnits="userSpaceOnUse" x1="-202.421" y1="496.426" x2="-201.777" y2="496.426" gradientTransform="matrix(174.6662 0 0 -174.6662 35621.5781 86614.3281)">
			<stop  offset="0" style="stop-color:#D887C7"/>
			<stop  offset="5.034530e-03" style="stop-color:#D887C7"/>
			<stop  offset="1" style="stop-color:#00EFEF"/>
		</linearGradient>
		<path class="st4" d="M277.6-124.2c-7.8,7.9-12.1,18.4-12.1,29.7c0,11.1,4.3,21.5,12,29.3c5.1,5.2,11.5,8.9,18.5,10.8l3.3-3.7
			c0.3-0.4,0.8-0.6,1.3-0.6c0.1,0,0.2,0,0.3,0c1.9,0.3,3.9,0.5,5.8,0.5c1.9,0,3.9-0.2,5.8-0.5c0.1,0,0.2,0,0.3,0
			c0.5,0,0.9,0.2,1.3,0.6l3.2,3.5c22.4-6,55.2-26.3,60.7-29.8v-4.3h-16.3c-0.9,0-1.7-0.8-1.7-1.7V-99c0-0.5,0.2-0.9,0.5-1.2
			c0.3-0.3,0.8-0.5,1.2-0.5c0,0,16.3,0,16.3,0v-4.3c-5.5-3.5-38.4-23.8-60.7-29.6l-3.2,3.4c-0.3,0.3-0.8,0.5-1.2,0.5
			c-0.1,0-0.2,0-0.3,0c-1.9-0.3-3.9-0.5-5.8-0.5c-1.9,0-3.9,0.2-5.8,0.5c-0.1,0-0.2,0-0.3,0c-0.5,0-0.9-0.2-1.2-0.5l-3.3-3.5
			C289.1-133,282.7-129.4,277.6-124.2"/>
		<g>
			<defs>
				<rect id="SVGID_22_" x="252.6" y="-160" width="128.8" height="130.6"/>
			</defs>
			<clipPath id="SVGID_6_">
				<use xlink:href="#SVGID_22_"  style="overflow:visible;"/>
			</clipPath>
			<g transform="matrix(1.33333 0 0 -1.33333 0 200)" class="st5">
				<path class="st6" d="M222.4,252.5c-5.8-1.3-11-4.3-15.1-8.5c-5.9-5.9-9.5-14.1-9.5-23.2c0-9,3.6-17.1,9.4-22.9
					c4.1-4.2,9.4-7.2,15.2-8.7l3,3.4c1.5-0.2,3-0.4,4.6-0.4c1.6,0,3.1,0.1,4.6,0.4l2.9-3.2c18.7,4.7,47.2,23.1,47.2,23.1v5.2h-13.5
					v6.5l13.5,0v5.3c0,0-28.6,18.4-47.3,22.9l-2.9-3.1c-1.5,0.2-3,0.4-4.6,0.4c-1.6,0-3.1-0.1-4.6-0.4L222.4,252.5z M221.6,249.6
					l2-2.1c0.5-0.5,1.2-0.8,1.9-0.8c0.1,0,0.3,0,0.4,0c1.4,0.2,2.8,0.3,4.2,0.3c1.4,0,2.8-0.1,4.2-0.3c0.1,0,0.3,0,0.4,0
					c0.7,0,1.4,0.3,1.9,0.8l1.9,2c15.9-4.4,38.5-18.1,43.9-21.5v-1.2l-10.9,0h0c-0.7,0-1.3-0.3-1.8-0.8c-0.5-0.5-0.8-1.2-0.8-1.8
					v-6.5c0-1.4,1.2-2.6,2.6-2.6h10.9V214c-5.4-3.4-27.9-17.1-43.8-21.6l-1.9,2.1c-0.5,0.5-1.2,0.8-1.9,0.8c-0.1,0-0.3,0-0.4,0
					c-1.4-0.2-2.8-0.3-4.2-0.3c-1.4,0-2.8,0.1-4.2,0.3c-0.1,0-0.3,0-0.4,0c-0.7,0-1.4-0.3-1.9-0.9l-2-2.2c-4.7,1.4-9,4-12.6,7.6
					c-5.6,5.6-8.6,13.1-8.6,21.1c0,8.1,3.1,15.7,8.7,21.3C212.6,245.8,216.9,248.3,221.6,249.6"/>
				<path class="st7" d="M271.2,224.3v-6.5h13.5v-5.2c0,0-28.5-18.3-47.2-23.1l-2.9,3.2c-1.5-0.2-3-0.4-4.6-0.4
					c-1.6,0-3.1,0.1-4.6,0.4l-3-3.4c-5.9,1.4-11.1,4.5-15.2,8.7c-5.8,5.9-9.4,13.9-9.4,22.9c0,9,3.6,17.3,9.5,23.2
					c4.1,4.2,9.3,7.2,15.1,8.5l3-3.2c1.5,0.2,3,0.4,4.6,0.4c1.6,0,3.1-0.1,4.6-0.4l2.9,3.1c18.7-4.6,47.3-22.9,47.3-22.9v-5.3
					L271.2,224.3z"/>
				<path class="st8" d="M234.6,192.5c0.1-2.1-1.5-4-3.7-4.1c-0.3,0-0.6,0-0.9,0c-0.3,0-0.5,0-0.8,0c-2.2,0.1-3.9,1.9-3.8,4.1l0,0.2
					c1.5-0.2,3-0.4,4.6-0.4c1.6,0,3.1,0.1,4.6,0.4L234.6,192.5z"/>
				<path class="st9" d="M234.6,192.5c0.1-2.1-1.5-4-3.7-4.1c-0.3,0-0.6,0-0.9,0c-0.3,0-0.5,0-0.8,0c-2.2,0.1-3.9,1.9-3.8,4.1l0,0.2
					c1.5-0.2,3-0.4,4.6-0.4c1.6,0,3.1,0.1,4.6,0.4L234.6,192.5z"/>
				<path class="st8" d="M234.6,249.4c-1.5,0.2-3,0.4-4.6,0.4c-1.6,0-3.1-0.1-4.6-0.4c0,0.1,0,0.1,0,0.2c0,2.1,1.7,3.9,3.8,3.9
					c0.5,0,1.1,0,1.6,0C233,253.4,234.7,251.6,234.6,249.4"/>
				<path class="st9" d="M234.6,249.4c-1.5,0.2-3,0.4-4.6,0.4c-1.6,0-3.1-0.1-4.6-0.4c0,0.1,0,0.1,0,0.2c0,2.1,1.7,3.9,3.8,3.9
					c0.5,0,1.1,0,1.6,0C233,253.4,234.7,251.6,234.6,249.4z M241.6,221c0-1.7-0.3-3.3-1-4.7c-0.2-0.5-0.5-1-0.8-1.5
					c-1.1-1.7-2.6-3.1-4.3-4.1c-1.6-0.9-3.5-1.4-5.5-1.4c-3.2,0-6.1,1.3-8.2,3.4c-2.1,2.1-3.4,5.1-3.4,8.3c0,1.9,0.4,3.7,1.2,5.3
					c0.6,1.1,1.3,2.2,2.2,3c0.7,0.8,1.6,1.4,2.5,1.9c1.7,1,3.6,1.5,5.7,1.5c4.7,0,8.8-2.9,10.6-7C241.3,224.3,241.6,222.7,241.6,221
					z"/>
			</g>
		</g>
		
			<linearGradient id="SVGID_7_" gradientUnits="userSpaceOnUse" x1="-205.7222" y1="493.1814" x2="-205.0693" y2="493.1814" gradientTransform="matrix(0 -111.9997 -111.9997 0 55542.8633 -23098.9434)">
			<stop  offset="0" style="stop-color:#00E4E4"/>
			<stop  offset="0.7715" style="stop-color:#CC67B9"/>
			<stop  offset="1" style="stop-color:#CC67B9"/>
		</linearGradient>
		<path class="st10" d="M302.4-131l1.7,36.2c0,0.1,0,0.1,0,0.2l-1.7,36.2c1.4,0.2,2.9,0.3,4.3,0.3s2.9-0.1,4.3-0.3l-1.7-36.2
			c0-0.1,0-0.1,0-0.2L311-131c-1.4-0.2-2.9-0.3-4.3-0.3S303.8-131.1,302.4-131"/>
		<g>
			<defs>
				<rect id="SVGID_25_" x="252.6" y="-160" width="128.8" height="130.6"/>
			</defs>
			<clipPath id="SVGID_8_">
				<use xlink:href="#SVGID_25_"  style="overflow:visible;"/>
			</clipPath>
			<g transform="matrix(1.33333 0 0 -1.33333 0 200)" class="st11">
				<path class="st6" d="M230,249.7c-1.6,0-3.1-0.1-4.6-0.4l1.4-28.3l-1.4-28.3c1.5-0.2,3-0.4,4.6-0.4c1.6,0,3.1,0.1,4.6,0.4
					l-1.4,28.3l1.4,28.3C233.1,249.6,231.6,249.7,230,249.7 M230,247.1c0.6,0,1.3,0,1.9-0.1l-1.2-25.9c0-0.1,0-0.2,0-0.3l1.2-25.9
					c-0.6,0-1.3-0.1-1.9-0.1c-0.6,0-1.3,0-1.9,0.1l1.2,25.9c0,0.1,0,0.2,0,0.3l-1.2,25.9C228.7,247.1,229.4,247.1,230,247.1"/>
				<path class="st12" d="M230,249.7c-1.6,0-3.1-0.1-4.6-0.4l1.4-28.3l-1.4-28.3c1.5-0.2,3-0.4,4.6-0.4c1.6,0,3.1,0.1,4.6,0.4
					l-1.4,28.3l1.4,28.3C233.1,249.6,231.6,249.7,230,249.7 M230,247.1c0.6,0,1.3,0,1.9-0.1l-1.2-25.9c0-0.1,0-0.2,0-0.3l1.2-25.9
					c-0.6,0-1.3-0.1-1.9-0.1c-0.6,0-1.3,0-1.9,0.1l1.2,25.9c0,0.1,0,0.2,0,0.3l-1.2,25.9C228.7,247.1,229.4,247.1,230,247.1"/>
				<path class="st7" d="M233.2,221l1.4-28.3c-1.5-0.2-3-0.4-4.6-0.4c-1.6,0-3.1,0.1-4.6,0.4l1.4,28.3l-1.4,28.3
					c1.5,0.2,3,0.4,4.6,0.4c1.6,0,3.1-0.1,4.6-0.4L233.2,221z"/>
			</g>
		</g>
		
			<linearGradient id="SVGID_9_" gradientUnits="userSpaceOnUse" x1="-200.5867" y1="495.9784" x2="-199.9426" y2="495.9784" gradientTransform="matrix(98.2062 0 0 -98.2062 19995.1523 48613.4844)">
			<stop  offset="0" style="stop-color:#CC67B9"/>
			<stop  offset="0.2285" style="stop-color:#CC67B9"/>
			<stop  offset="1" style="stop-color:#00E4E4"/>
		</linearGradient>
		<path class="st13" d="M323.8-94.7c0,1.5-0.2,3-0.6,4.4l36.6-1.7v-5.4l-36.6-1.7C323.7-97.7,323.8-96.2,323.8-94.7"/>
		<g>
			<defs>
				<rect id="SVGID_28_" x="252.6" y="-160" width="128.8" height="130.6"/>
			</defs>
			<clipPath id="SVGID_10_">
				<use xlink:href="#SVGID_28_"  style="overflow:visible;"/>
			</clipPath>
			<g transform="matrix(1.33333 0 0 -1.33333 0 200)" class="st14">
				<path class="st15" d="M240.6,225.7c0.6-1.4,1-3,1-4.7c0-1.7-0.4-3.3-1-4.7l30.6,1.5v6.5L240.6,225.7z M244,222.9l24.6-1.2v-1.5
					l-24.6-1.2c0.1,0.6,0.1,1.3,0.1,1.9C244.2,221.7,244.1,222.3,244,222.9"/>
				<path class="st16" d="M271.2,224.3v-6.5l-30.6-1.5c0.6,1.4,1,3,1,4.7c0,1.7-0.4,3.3-1,4.7L271.2,224.3z"/>
			</g>
		</g>
		
			<linearGradient id="SVGID_11_" gradientUnits="userSpaceOnUse" x1="-188.784" y1="493.2376" x2="-188.1399" y2="493.2376" gradientTransform="matrix(26.6666 0 0 -26.6666 5332.3198 13058.3008)">
			<stop  offset="0" style="stop-color:#D887C7"/>
			<stop  offset="0.2285" style="stop-color:#D887C7"/>
			<stop  offset="1" style="stop-color:#00E4E4"/>
		</linearGradient>
		<path class="st17" d="M298.1-94.7c0,4.8,3.9,8.7,8.6,8.7c4.7,0,8.6-3.9,8.6-8.7c0-4.8-3.9-8.7-8.6-8.7
			C301.9-103.4,298.1-99.5,298.1-94.7"/>
		<g>
			<defs>
				<rect id="SVGID_31_" x="252.6" y="-160" width="128.8" height="130.6"/>
			</defs>
			<clipPath id="SVGID_12_">
				<use xlink:href="#SVGID_31_"  style="overflow:visible;"/>
			</clipPath>
			<g transform="matrix(1.33333 0 0 -1.33333 0 200)" class="st18">
				<path class="st15" d="M230,228.8c-4.3,0-7.7-3.5-7.7-7.8c0-4.3,3.5-7.8,7.7-7.8s7.7,3.5,7.7,7.8
					C237.7,225.3,234.3,228.8,230,228.8 M230,226.2c2.8,0,5.2-2.3,5.2-5.2c0-2.9-2.3-5.2-5.2-5.2c-2.8,0-5.2,2.3-5.2,5.2
					C224.9,223.9,227.2,226.2,230,226.2"/>
				<path class="st16" d="M230,213.2c-4.3,0-7.7,3.5-7.7,7.8c0,4.3,3.5,7.8,7.7,7.8s7.7-3.5,7.7-7.8
					C237.7,216.7,234.3,213.2,230,213.2z"/>
				<path class="st8" d="M197.8,220.9c0-9,3.6-17.1,9.4-22.9l-5.7,0.7c-4.7,6.2-7.5,13.9-7.5,22.3c0,8.4,2.8,16.2,7.5,22.3l5.8,0.8
					l0,0C201.4,238.1,197.8,229.9,197.8,220.9"/>
				<path class="st9" d="M197.8,220.9c0-9,3.6-17.1,9.4-22.9l-5.7,0.7c-4.7,6.2-7.5,13.9-7.5,22.3c0,8.4,2.8,16.2,7.5,22.3l5.8,0.8
					l0,0C201.4,238.1,197.8,229.9,197.8,220.9z"/>
			</g>
		</g>
		
			<linearGradient id="SVGID_13_" gradientUnits="userSpaceOnUse" x1="-201.1279" y1="496.1378" x2="-200.4838" y2="496.1378" gradientTransform="matrix(116.3344 0 0 -116.3344 23663.5547 57623.2695)">
			<stop  offset="0" style="stop-color:#DD96CE"/>
			<stop  offset="0.2285" style="stop-color:#DD96CE"/>
			<stop  offset="1" style="stop-color:#00E4E4"/>
		</linearGradient>
		<path class="st19" d="M265.5-94.5c0,10.5,3.8,20.4,10.8,28.1l17.1-17.3c-2.5-3.1-3.9-7-3.9-11s1.4-7.9,3.9-11l-17-17.2
			C269.3-115.2,265.5-105.1,265.5-94.5"/>
		<g>
			<defs>
				<rect id="SVGID_34_" x="252.6" y="-160" width="128.8" height="130.6"/>
			</defs>
			<clipPath id="SVGID_14_">
				<use xlink:href="#SVGID_34_"  style="overflow:visible;"/>
			</clipPath>
			<g transform="matrix(1.33333 0 0 -1.33333 0 200)" class="st20">
				<path class="st15" d="M207.3,244c-5.9-5.9-9.5-14.1-9.5-23.2c0-9,3.6-17.1,9.4-22.9l0.1,0l14.6,14.8c-2.1,2.1-3.4,5.1-3.4,8.3
					s1.3,6.2,3.4,8.3L207.3,244z M207.4,240.3l11-11.1c-1.6-2.4-2.5-5.2-2.5-8.1c0-2.9,0.9-5.8,2.5-8.1l-11.1-11.2
					c-4.5,5.4-6.9,12.1-6.9,19.2C200.4,228.1,202.8,234.9,207.4,240.3"/>
				<path class="st16" d="M218.4,221c0-3.2,1.3-6.2,3.4-8.3l-14.6-14.8l-0.1,0c-5.8,5.9-9.4,13.9-9.4,22.9c0,9,3.6,17.3,9.5,23.2
					l14.5-14.7C219.7,227.2,218.4,224.2,218.4,221z"/>
				<path class="st8" d="M269.9,192.9c0-2.5-2-4.6-4.5-4.6v9.1c1.2,0,2.4-0.5,3.2-1.3C269.4,195.3,269.9,194.2,269.9,192.9"/>
				<path class="st16" d="M269.9,192.9c0-2.5-2-4.6-4.5-4.6v9.1c1.2,0,2.4-0.5,3.2-1.3C269.4,195.3,269.9,194.2,269.9,192.9z"/>
			</g>
		</g>
		
			<linearGradient id="SVGID_15_" gradientUnits="userSpaceOnUse" x1="-196.571" y1="495.2876" x2="-195.9269" y2="495.2876" gradientTransform="matrix(49.8605 0 0 -49.8605 10121.2168 24628.7617)">
			<stop  offset="0" style="stop-color:#D887C7"/>
			<stop  offset="0.2285" style="stop-color:#D887C7"/>
			<stop  offset="1" style="stop-color:#00E4E4"/>
		</linearGradient>
		<path class="st21" d="M320.1-76.6l20.8,23.7h11.3v-8.7h-7.7c-0.4,0-0.8-0.2-1.2-0.5l-19.5-18.2C322.7-78.9,321.5-77.6,320.1-76.6"
			/>
		<g>
			<defs>
				<rect id="SVGID_37_" x="252.6" y="-160" width="128.8" height="130.6"/>
			</defs>
			<clipPath id="SVGID_16_">
				<use xlink:href="#SVGID_37_"  style="overflow:visible;"/>
			</clipPath>
			<g transform="matrix(1.33333 0 0 -1.33333 0 200)" class="st22">
				<path class="st15" d="M242.7,212.1c-1.2-1.8-2.8-3.3-4.6-4.4l16.9-19.3h10.4v9.1h-7L242.7,212.1z M243,208.3l13.7-12.7
					c0.5-0.4,1.1-0.7,1.7-0.7h4.5V191h-6.6l-14.3,16.3C242.3,207.6,242.6,208,243,208.3"/>
				<path class="st16" d="M265.4,197.5v-9.1h-10.4l-16.9,19.3c1.8,1.1,3.4,2.6,4.6,4.4l15.7-14.6H265.4z"/>
				<path class="st8" d="M214.6,221c0-1.3-1-2.3-2.3-2.3c-1.2,0-2.3,1-2.3,2.3c0,1.3,1,2.3,2.3,2.3
					C213.5,223.3,214.6,222.3,214.6,221"/>
				<path class="st9" d="M214.6,221c0-1.3-1-2.3-2.3-2.3c-1.2,0-2.3,1-2.3,2.3c0,1.3,1,2.3,2.3,2.3
					C213.5,223.3,214.6,222.3,214.6,221z"/>
				<path class="st8" d="M216.5,212.8c0-1.3-1-2.3-2.3-2.3s-2.3,1-2.3,2.3s1,2.3,2.3,2.3S216.5,214.1,216.5,212.8"/>
				<path class="st9" d="M216.5,212.8c0-1.3-1-2.3-2.3-2.3s-2.3,1-2.3,2.3s1,2.3,2.3,2.3S216.5,214.1,216.5,212.8z"/>
				<path class="st8" d="M216.5,229.2c0-1.3-1-2.3-2.3-2.3s-2.3,1-2.3,2.3s1,2.3,2.3,2.3S216.5,230.4,216.5,229.2"/>
				<path class="st9" d="M216.5,229.2c0-1.3-1-2.3-2.3-2.3s-2.3,1-2.3,2.3s1,2.3,2.3,2.3S216.5,230.4,216.5,229.2z"/>
				<g>
					<defs>
						<rect id="SVGID_39_" x="-165" y="64.3" width="687" height="522.3"/>
					</defs>
					<clipPath id="SVGID_17_">
						<use xlink:href="#SVGID_39_"  style="overflow:visible;"/>
					</clipPath>
					<g class="st23">
						<path class="st24" d="M436.1,521.3H-79.1V129.6h515.3V521.3z M432.9,132.9H-75.9v385.2h508.8V132.9z"/>
					</g>
				</g>
			</g>
		</g>
	</g>
	<g>
		<g transform="matrix(1.33333 0 0 -1.33333 0 200)">
			<path class="st25" d="M13,249.2H8v12.9h5V249.2z M72,249.2h-5v12.9h5V249.2z"/>
		</g>
		
			<linearGradient id="SVGID_18_" gradientUnits="userSpaceOnUse" x1="-203.6682" y1="496.5177" x2="-202.9577" y2="496.5177" gradientTransform="matrix(133.3548 0 0 -133.3548 27166.1172 66080.0703)">
			<stop  offset="0" style="stop-color:#005E5F;stop-opacity:0.2"/>
			<stop  offset="0.995" style="stop-color:#D887C7"/>
			<stop  offset="1" style="stop-color:#D887C7;stop-opacity:0.5"/>
		</linearGradient>
		<path class="st26" d="M48-181.1c-15.9,0-28.9,12.4-28.9,27.7c0,9.6-3.1,19.2-9,27.7c-0.8,1.1-1.5,2.3-2.2,3.4
			c-2.6,4.5-2.7,10-0.3,14.6c4.4,8.3,11.2,16.2,19.9,22.9l12.1-8.7c0.3-0.2,0.7-0.4,1.1-0.4c0.4,0,0.7,0.1,1,0.3
			c3.7,2.2,7.4,3.3,11.4,3.3c3.6,0,7.2-1.2,11-3.6c0.3-0.2,0.7-0.3,1.1-0.3c0.4,0,0.8,0.1,1.1,0.4l12.5,9
			c8.8-6.8,15.7-14.8,20.1-23.2c2.3-4.4,2.2-9.7-0.2-14c-0.7-1.3-1.5-2.6-2.4-3.8c-5.9-8.4-9-18-9-27.7c0-15.3-13-27.7-28.9-27.7
			L48-181.1z"/>
		<g transform="matrix(1.33333 0 0 -1.33333 0 200)">
			<path class="st6" d="M43.9,287.2H36c-12.8,0-23.1-9.9-23.1-22.1c0-7.1-2.4-14-6.5-20c-0.6-0.9-1.2-1.8-1.7-2.7
				c-2.2-3.8-2.2-8.4-0.2-12.2c3.7-7.1,9.5-13.3,16.2-18.3l9.9,7.1c2.7-1.6,5.7-2.7,9.3-2.7c3.4,0,6.4,1.2,9.1,3l10.2-7.4
				c6.7,5,12.6,11.3,16.3,18.5c1.9,3.7,1.9,8.1-0.2,11.7c-0.6,1-1.2,2-1.9,2.9c-4.1,5.9-6.5,12.9-6.5,20v0
				C67,277.3,56.7,287.2,43.9,287.2 M43.9,284.5c11.2,0,20.3-8.7,20.3-19.4v0c0-7.5,2.4-14.9,6.9-21.5c0.6-0.9,1.2-1.8,1.7-2.7
				c1.6-2.8,1.7-6.3,0.1-9.2c-3-5.9-7.8-11.4-13.8-16.2l-8.5,6.1c-0.5,0.4-1.1,0.5-1.7,0.5c-0.6,0-1.1-0.2-1.6-0.5
				c-2.6-1.7-5-2.5-7.5-2.5c-2.7,0-5.3,0.7-7.8,2.3c-0.5,0.3-1,0.4-1.5,0.4c-0.6,0-1.2-0.2-1.7-0.5l-8.2-5.9
				c-5.9,4.7-10.7,10.2-13.7,16c-1.6,3.1-1.6,6.7,0.2,9.7c0.5,0.8,1,1.7,1.6,2.5c4.6,6.6,7,14,7,21.5c0,10.7,9.1,19.4,20.3,19.4
				H43.9"/>
			<path class="st12" d="M43.9,287.2H36c-12.8,0-23.1-9.9-23.1-22.1c0-7.1-2.4-14-6.5-20c-0.6-0.9-1.2-1.8-1.7-2.7
				c-2.2-3.8-2.2-8.4-0.2-12.2c3.7-7.1,9.5-13.3,16.2-18.3l9.9,7.1c2.7-1.6,5.7-2.7,9.3-2.7c3.4,0,6.4,1.2,9.1,3l10.2-7.4
				c6.7,5,12.6,11.3,16.3,18.5c1.9,3.7,1.9,8.1-0.2,11.7c-0.6,1-1.2,2-1.9,2.9c-4.1,5.9-6.5,12.9-6.5,20v0
				C67,277.3,56.7,287.2,43.9,287.2 M43.9,284.5c11.2,0,20.3-8.7,20.3-19.4v0c0-7.5,2.4-14.9,6.9-21.5c0.6-0.9,1.2-1.8,1.7-2.7
				c1.6-2.8,1.7-6.3,0.1-9.2c-3-5.9-7.8-11.4-13.8-16.2l-8.5,6.1c-0.5,0.4-1.1,0.5-1.7,0.5c-0.6,0-1.1-0.2-1.6-0.5
				c-2.6-1.7-5-2.5-7.5-2.5c-2.7,0-5.3,0.7-7.8,2.3c-0.5,0.3-1,0.4-1.5,0.4c-0.6,0-1.2-0.2-1.7-0.5l-8.2-5.9
				c-5.9,4.7-10.7,10.2-13.7,16c-1.6,3.1-1.6,6.7,0.2,9.7c0.5,0.8,1,1.7,1.6,2.5c4.6,6.6,7,14,7,21.5c0,10.7,9.1,19.4,20.3,19.4
				H43.9"/>
			<path class="st7" d="M75.4,242.1c-0.6,1-1.2,2-1.9,2.9c-4.1,5.9-6.5,12.9-6.5,20v0c0,12.2-10.3,22.1-23.1,22.1H36
				c-12.8,0-23.1-9.9-23.1-22.1v0c0-7.1-2.4-14-6.5-20c-0.6-0.9-1.2-1.8-1.7-2.7c-2.2-3.8-2.2-8.4-0.2-12.2
				c3.7-7.1,9.5-13.3,16.2-18.3l9.9,7.1c2.7-1.6,5.7-2.7,9.3-2.7c3.4,0,6.4,1.2,9.1,3l10.2-7.4c6.7,5,12.6,11.3,16.3,18.5
				C77.5,234.1,77.4,238.5,75.4,242.1L75.4,242.1z M21.1,228.4c-5,6.1-6.7,12.8-6.7,20.1 M65.6,248.5c0-7.3-1.7-13.9-6.7-20.1"/>
		</g>
		
			<radialGradient id="SVGID_19_" cx="-209.7359" cy="498.5517" r="1" gradientTransform="matrix(15.5687 0 0 -14.9104 3318.9172 7305.8052)" gradientUnits="userSpaceOnUse">
			<stop  offset="0" style="stop-color:#00EFEF"/>
			<stop  offset="0.7715" style="stop-color:#D887C7"/>
			<stop  offset="1" style="stop-color:#D887C7"/>
		</radialGradient>
		<path class="st27" d="M39.7-122.1c-3.2,4.1-10.1,12.3-11.3,16.6c1.6-5.4,10.4-9.2,15.1-12.4c4.3-2.9,4.2-5.3,9.8-5.3
			c5.6,0,5.6,2.4,9.8,5.3c4.7,3.2,13.5,7,15.1,12.4c-1.3-4.4-8.1-12.5-11.3-16.6c-4.7-6-6.6-10.2-13.6-10.2S44.4-128.1,39.7-122.1"
			/>
		<g transform="matrix(1.33333 0 0 -1.33333 0 200)">
			<path class="st9" d="M58.7,229.1c-1.2,4-7.8,6.9-11.3,9.3c-3.2,2.2-3.1,4-7.4,4c-4.2,0-4.2-1.8-7.3-3.9
				c-3.5-2.4-10.1-5.3-11.3-9.3c1,3.3,6.1,9.4,8.5,12.5c3.5,4.5,5,7.6,10.2,7.6c5.2,0,6.7-3.2,10.2-7.6
				C52.6,238.5,57.7,232.4,58.7,229.1z"/>
		</g>
		
			<linearGradient id="SVGID_20_" gradientUnits="userSpaceOnUse" x1="-203.0061" y1="496.4716" x2="-202.2956" y2="496.4716" gradientTransform="matrix(85.6123 0 0 -85.6123 17402.7246 42411.7305)">
			<stop  offset="0" style="stop-color:#DD96CE"/>
			<stop  offset="0.2285" style="stop-color:#DD96CE"/>
			<stop  offset="1" style="stop-color:#00E4E4"/>
		</linearGradient>
		<path class="st28" d="M47.4-102.8c-0.8,1.3-2.7,1.7-4.1,0.9c-3-1.7-8.1-3.2-13.7-0.7c-2.2,1-4,2.7-5.1,4.8
			c-5.6,10.8,5,21.6,16.3,17.4c2.2-0.8,4-2.3,5.3-4.1c0.9-1.3,1.5-2.6,1.9-3.8c0.7-2.3,3.3-4.2,5.5-4.2c2.1,0,4.6,1.8,5.3,4.1
			c0.4,1.4,1.2,2.8,2.2,4.2c1.3,1.8,3.2,3.2,5.3,3.9c11.1,3.8,21.4-6.7,15.9-17.4c-1.1-2.1-2.9-3.8-5.1-4.9
			c-5.6-2.6-10.6-1.1-13.6,0.7c-1.4,0.8-3.3,0.5-4.1-0.9c-1.2-1.9-3.5-2.3-6-2.3C50.8-105.2,48.6-104.8,47.4-102.8"/>
		<g transform="matrix(1.33333 0 0 -1.33333 0 200)">
			<path class="st16" d="M57.8,226.9c-4.2,1.9-7.9,0.8-10.2-0.5c-1.1-0.6-2.5-0.3-3.1,0.7c-0.9,1.5-2.6,1.8-4.5,1.8
				c-1.9,0-3.6-0.3-4.5-1.8c-0.6-1-2-1.3-3.1-0.7c-2.3,1.3-6,2.4-10.3,0.5c-1.7-0.7-3-2-3.8-3.6c-4.2-8.1,3.7-16.2,12.2-13
				c1.6,0.6,3,1.7,3.9,3.1c0.7,1,1.1,1.9,1.4,2.9c0.5,1.8,2.4,3.1,4.1,3.1c1.6,0,3.5-1.4,4-3.1c0.3-1,0.9-2.1,1.7-3.2
				c1-1.3,2.4-2.4,4-2.9c8.3-2.9,16,5.1,11.9,13.1C60.9,224.9,59.5,226.2,57.8,226.9L57.8,226.9z"/>
			<path class="st8" d="M39.6,225.4h0.7c1,0,1.8-1,1.8-2v-7.6h-4.3v7.6C37.9,224.4,38.6,225.4,39.6,225.4"/>
			<path class="st16" d="M39.6,225.4h0.7c1,0,1.8-1,1.8-2v-7.6h-4.3v7.6C37.9,224.4,38.6,225.4,39.6,225.4z"/>
		</g>
		
			<radialGradient id="SVGID_21_" cx="-207.0624" cy="497.6757" r="1" gradientTransform="matrix(35.75 0 0 -34.2384 7455.7905 16897.9102)" gradientUnits="userSpaceOnUse">
			<stop  offset="0" style="stop-color:#00EFEF"/>
			<stop  offset="0.7715" style="stop-color:#D887C7"/>
			<stop  offset="1" style="stop-color:#D887C7"/>
		</radialGradient>
		<path class="st29" d="M20.7-149.6c0,2.7,0.2,5.8,1.5,8.6c1.9,4.1,5.6,7.1,10.4,7.1c5.6,0,13.2-4.1,17.4-8.7c1.7-1.9,4.8-1.9,6.5,0
			c4.3,4.7,12,8.7,17.6,8.7c4.8,0,8.5-2.9,10.4-7c1.3-2.8,1.5-5.9,1.5-8.6H20.7z"/>
		<path class="st16" d="M20.7-149.6c0,2.7,0.2,5.8,1.5,8.6c1.9,4.1,5.6,7.1,10.4,7.1c5.6,0,13.2-4.1,17.4-8.7c1.7-1.9,4.8-1.9,6.5,0
			c4.3,4.7,12,8.7,17.6,8.7c4.8,0,8.5-2.9,10.4-7c1.3-2.8,1.5-5.9,1.5-8.6H20.7z"/>
		<path class="st15" d="M80.7-149.6h-22c0,4.5,9.3,11,15.4,11C80.2-138.6,80.7-145,80.7-149.6 M76.7-145.9c-0.5,0-1.8,3.5-2.6,3.5
			c-2,0-5.1-1.1-7.7-2.9c-0.3-0.2-0.6-0.6-0.9-0.6H77"/>
		<path class="st16" d="M58.7-149.6c0,4.5,9.3,11,15.4,11c6.1,0,6.6-6.4,6.6-11H58.7z"/>
		<path class="st15" d="M47.9-149.6h-22c0,4.5,0.5,11,6.6,11C38.6-138.6,47.9-145,47.9-149.6 M41.2-145.9c-0.3,0-0.6,0.2-0.9,0.5
			c-2.6,1.8-5.7,3.1-7.7,3.1c-0.8,0-2.1,0-2.6-3.6H41"/>
		<path class="st16" d="M47.9-149.6c0,4.5-9.3,11-15.4,11c-6.1,0-6.6-6.4-6.6-11H47.9z"/>
		<path class="st8" d="M71-87.2c-2.6,0-4.7-2-4.7-4.5c0-2.5,2.1-4.5,4.7-4.5c2.6,0,4.7,2,4.7,4.5C75.7-89.3,73.6-87.2,71-87.2"/>
		<path class="st15" d="M71-98.1c-3.6,0-6.6,2.8-6.6,6.3c0,3.5,3,6.3,6.6,6.3s6.6-2.8,6.6-6.3C77.6-95.2,74.6-98.1,71-98.1 M71-94.4
			c1.5,0,2.8,1.2,2.8,2.7c0,1.5-1.3,2.7-2.8,2.7c-1.5,0-2.8-1.2-2.8-2.7C68.2-93.2,69.4-94.4,71-94.4"/>
		<path class="st16" d="M77.6-91.8c0,3.5-3,6.3-6.6,6.3c-3.6,0-6.6-2.8-6.6-6.3s3-6.3,6.6-6.3C74.6-98.1,77.6-95.2,77.6-91.8z"/>
		<path class="st8" d="M35.7-87.2c-2.6,0-4.7-2-4.7-4.5c0-2.5,2.1-4.5,4.7-4.5s4.7,2,4.7,4.5C40.4-89.3,38.3-87.2,35.7-87.2"/>
		<path class="st15" d="M35.7-98.1c-3.6,0-6.6,2.8-6.6,6.3c0,3.5,3,6.3,6.6,6.3s6.6-2.8,6.6-6.3C42.3-95.2,39.3-98.1,35.7-98.1
			 M35.7-94.4c1.5,0,2.8,1.2,2.8,2.7c0,1.5-1.3,2.7-2.8,2.7s-2.8-1.2-2.8-2.7C32.9-93.2,34.1-94.4,35.7-94.4"/>
		<path class="st16" d="M29.1-91.8c0,3.5,3,6.3,6.6,6.3c3.6,0,6.6-2.8,6.6-6.3s-3-6.3-6.6-6.3C32-98.1,29.1-95.2,29.1-91.8z"/>
		<path class="st7" d="M18.1-124.2c-1.5,1.8-2.8,3.7-4,5.6 M92.5-118.6c-1.2-2-2.5-3.9-4-5.6 M19.9-118c-1.2,1.9-2.3,3.9-3.2,5.9
			 M89.9-112c-0.9-2.1-2-4.1-3.2-5.9"/>
		<path class="st15" d="M88.4-155.9H18.2c-0.5,0-0.9,0.7-0.9,1.2v5.1h72v-5.1C89.3-155.2,89-155.9,88.4-155.9"/>
		<path class="st16" d="M89.3-149.6h-72v-5.1c0-0.5,0.3-1.2,0.9-1.2h70.3c0.5,0,0.9,0.7,0.9,1.2V-149.6z"/>
	</g>
	<g>
		
			<linearGradient id="SVGID_23_" gradientUnits="userSpaceOnUse" x1="-207.3348" y1="497.2296" x2="-206.6139" y2="497.2296" gradientTransform="matrix(0 -74.2219 -74.2219 0 36783.2773 -15332.709)">
			<stop  offset="0" style="stop-color:#00E4E4"/>
			<stop  offset="0.7715" style="stop-color:#D887C7"/>
			<stop  offset="1" style="stop-color:#D887C7"/>
		</linearGradient>
		<path class="st30" d="M-174.3,2.9c1.5,26.9,24.4,48.1,52.3,48.1c27.9,0,50.7-21.1,52.3-48.1H-174.3z"/>
		
			<linearGradient id="SVGID_24_" gradientUnits="userSpaceOnUse" x1="-208.2144" y1="497.2799" x2="-207.4935" y2="497.2799" gradientTransform="matrix(0 -60.8952 -60.8952 0 30159.9258 -12681.1875)">
			<stop  offset="0" style="stop-color:#D887C7"/>
			<stop  offset="0.2285" style="stop-color:#D887C7"/>
			<stop  offset="1" style="stop-color:#00E4E4"/>
		</linearGradient>
		<path class="st31" d="M-174.3-1.9h104.5C-71.3-28.8-94.1-50-122-50C-150-50-172.8-28.8-174.3-1.9"/>
		<g transform="matrix(1.33333 0 0 -1.33333 0 200)">
			<path class="st32" d="M-91.5,188.2c-14.4,0-27-7.5-33.9-18.7c-1.4-2.3-2.5-4.7-3.4-7.2c-1.1-3.2-1.8-6.5-2-10.1h9.6
				c0,0.7,0.1,1.1,0.1,1.7c0,0.3,0,0.6,0.1,1c0,0.4,0.1,0.9,0.1,1.3s0.1,0.9,0.2,1.3c0.1,0.4,0.1,0.8,0.2,1.3
				c0.1,0.4,0.1,0.8,0.2,1.2c0.1,0.3,0.1,0.5,0.2,0.8c0,0.2,0.1,0.4,0.1,0.6c0.3,1.1,0.6,2.2,0.9,3.3c0.1,0.3,0.2,0.6,0.3,0.9
				c0.1,0.3,0.2,0.5,0.3,0.8c0.1,0.2,0.1,0.4,0.2,0.6c0.1,0.3,0.2,0.6,0.3,0.9c0.2,0.6,0.5,1.2,0.8,1.7
				C-111.9,180.7-102.4,188.2-91.5,188.2 M-117.6,174.7c-0.8-1.3-1.5-2.6-2.1-4c-0.3-0.6-0.6-1.2-0.8-1.9c-0.1-0.3-0.2-0.6-0.4-0.9
				c-0.1-0.2-0.2-0.4-0.2-0.6c-0.1-0.3-0.2-0.6-0.3-0.8c-0.1-0.3-0.2-0.7-0.3-1c-0.4-1.1-0.7-2.3-1-3.5c-0.1-0.2-0.1-0.5-0.2-0.7
				c-0.1-0.3-0.1-0.5-0.2-0.8c-0.1-0.4-0.2-0.9-0.2-1.3c-0.1-0.4-0.2-0.9-0.2-1.4c-0.1-0.4-0.2-0.9-0.3-1.3
				c-0.1-0.4-0.3-0.9-0.3-1.3v0h-3.3c0.3,2.2,0.8,4.3,1.5,6.3c0.8,2.3,1.8,4.5,3.1,6.7C-121.4,170.5-119.6,172.7-117.6,174.7"/>
			<path class="st32" d="M-91.5,188.2c-10.9,0-20.4-7.2-25.5-18.7h9.6c-0.1-0.7-0.3-1-0.4-1.6c0-0.1,0-0.1-0.1-0.2
				c-0.1-0.4-0.2-0.8-0.3-1.2c-0.1-0.2-0.1-0.5-0.2-0.7c-0.1-0.5-0.2-1.1-0.3-1.6c-0.3-1.5-0.5-3-0.7-4.6c0-0.3-0.1-0.7-0.1-1
				c-0.1-0.4-0.1-0.8-0.1-1.3c0-0.4-0.1-0.7-0.1-1.1c-0.1-1.3-0.2-2.6-0.2-4h48.1c-0.2,3.6-0.7,7.2-1.5,10.1h9.2
				c-0.9,2.9-2,4.9-3.4,7.2C-64.5,180.7-77.1,188.2-91.5,188.2 M-91.5,185.3c13,0,24.7-6.5,31.3-17.3c0.6-0.9,1.1-2.1,1.6-2.9h-4.8
				c-0.9,0-1.8-0.4-2.3-1.1c-0.6-0.7-0.8-1.6-0.5-2.5c0.6-2.1,1-4.3,1.2-6.5h-41.8c0,0,0,0.6,0.1,0.9c0,0.4,0.1,0.7,0.1,1.1l0,0.4
				c0,0.3,0.1,0.5,0.1,0.8l0,0.1c0,0.3,0.1,0.6,0.1,0.8c0,0,0,0,0,0c0.2,1.5,0.4,3,0.7,4.4c0.1,0.5,0.2,1,0.3,1.5
				c0.1,0.3,0.1,0.5,0.2,0.7c0.1,0.3,0.2,0.7,0.2,1c0,0.1,0.1,0.2,0.1,0.3c0.1,0.5,0.3,1,0.4,1.4c0.3,0.9,0.1,1.8-0.5,2.5
				c-0.6,0.7-1.4,1.1-2.4,1.1h-4.7C-107.1,180.3-99.5,185.3-91.5,185.3 M-73,147.8h-25.9c0-3.6,0.2-6.9,0.4-10.1
				c0.4-5.5,0.9-10.1,1.7-14.4h18.6c1,2.2,1.9,4.6,2.7,7.2C-74.1,135.7-73.2,141.3-73,147.8 M-76.1,145c-0.3-5-1.1-9.5-2.3-13.6
				c-0.5-1.8-1.2-3.7-1.8-5.1h-14.1c-0.6,3.6-1,7.5-1.3,11.7c-0.1,2.2-0.3,4.9-0.3,7H-76.1L-76.1,145z"/>
		</g>
		
			<linearGradient id="SVGID_26_" gradientUnits="userSpaceOnUse" x1="-211.7886" y1="498.1331" x2="-211.0677" y2="498.1331" gradientTransform="matrix(0 -28.889 -28.889 0 14313.3574 -6121.2383)">
			<stop  offset="0" style="stop-color:#D887C7"/>
			<stop  offset="0.2285" style="stop-color:#D887C7"/>
			<stop  offset="1" style="stop-color:#00E4E4"/>
		</linearGradient>
		<path class="st33" d="M-84.6-16.3c1.1,3.8,1.8,8.7,2,13.5h12.8c-0.3-4.8-1.2-9.6-2.6-13.5H-84.6z"/>
		
			<linearGradient id="SVGID_27_" gradientUnits="userSpaceOnUse" x1="-209.1655" y1="497.2104" x2="-208.4446" y2="497.2104" gradientTransform="matrix(0 -42.2824 -42.2824 0 20877.9238 -8795.2822)">
			<stop  offset="0" style="stop-color:#00E4E4"/>
			<stop  offset="0.7715" style="stop-color:#D887C7"/>
			<stop  offset="1" style="stop-color:#D887C7"/>
		</linearGradient>
		<path class="st34" d="M-143.5,18.3C-143.5,18.3-143.5,18.3-143.5,18.3c0.2,1,0.9,4.3,1,5c0.2,0.7,0.4,1.4,0.6,2.1
			c0.2,0.6,0.1,1.3-0.3,1.8c-0.4,0.5-1,0.8-1.7,0.8h-19.6c1.6,1.9,3.4,4.4,5.4,6.4c7.9,8,19.3,13.3,30.9,14.5
			c-1.2-2.4-2.6-6.3-3.9-12.8c-1-5.1-1.7-10.9-2.2-17.6H-143.5z"/>
		<g transform="matrix(1.33333 0 0 -1.33333 0 200)">
			<path class="st35" d="M-98.9,137.7h-10.3c0,0-0.1,0-0.1-0.1c0.1-0.6,0.2-1.1,0.3-1.6c0.1-0.7,0.7-3.2,0.8-3.8
				c0.1-0.6,0.3-1.1,0.4-1.6c0,0,0-0.1-0.1-0.1h-17.3c0-0.1,0,0-0.1-0.1c1.6-2.6,3.5-5,5.6-7.1c6.8-6.9,17-11.5,27.5-11.5h0
				c0.1,0,0.1,0.1,0,0.1c-1.8,0.8-3.5,5-4.7,11.4c-0.8,4-1.5,8.9-1.9,14.4C-98.7,137.7-98.9,137.7-98.9,137.7L-98.9,137.7z
				 M-101.2,134.9c0.4-4.3,0.9-8.6,1.5-12.1c0.6-3.2,1.3-5.7,1.9-7.6c-7.5,1.3-14.6,4.9-19.8,10.1c-0.7,0.7-1.5,1.6-2.1,2.3h11.7
				c0.9,0,1.8,0.4,2.4,1.2c0.6,0.7,0.8,1.7,0.5,2.6c-0.2,0.5-0.3,1-0.4,1.5c-0.1,0.3-0.2,1.2-0.4,1.9H-101.2L-101.2,134.9z"/>
			<path class="st32" d="M-52.3,147.8h-9.7c-0.2-3.6-0.7-6.9-1.5-10.1c-0.7-2.5-1.5-5-2.6-7.2h8.2c1.4,2.2,2.5,4.7,3.4,7.2
				C-53.3,140.9-52.5,144.3-52.3,147.8L-52.3,147.8z M-55.4,145c-0.3-2.2-1-4.2-1.7-6.3c-0.6-1.8-1.5-3.8-2.5-5.3h-2.1
				c0.4,1.4,0.8,2.4,1.1,3.6c0.7,2.6,1.2,5,1.4,7.9h3.9H-55.4z"/>
		</g>
		
			<linearGradient id="SVGID_29_" gradientUnits="userSpaceOnUse" x1="-211.9636" y1="497.1512" x2="-211.2427" y2="497.1512" gradientTransform="matrix(0 -26.6666 -26.6666 0 13098.083 -5628.3198)">
			<stop  offset="0" style="stop-color:#00EFEF"/>
			<stop  offset="0.9957" style="stop-color:#CC67B9"/>
			<stop  offset="1" style="stop-color:#CC67B9"/>
		</linearGradient>
		<path class="st36" d="M-172.2,4.8c0.4,3.8,1.2,7.4,2.4,10.9c1,2.9,2.3,5.4,3.8,8.3h19.6c-0.6-1.9-1.1-4.9-1.4-7.4
			c-0.5-3.7-0.9-8-0.9-11.8H-172.2z"/>
		<g transform="matrix(1.33333 0 0 -1.33333 0 200)">
			<path class="st32" d="M-110.1,147.8h-20.7c0,0,0-0.1,0-0.1c0.2-3.5,0.9-6.8,2-10c0.9-2.5,2-5,3.4-7.2h17.5
				c-0.7,2.2-1.2,4.7-1.5,7.2C-109.8,140.9-110.1,144.3-110.1,147.8L-110.1,147.8z M-113,145c0.1-2.9,0.3-5.2,0.7-7.6
				c0.2-1.3,0.4-2.5,0.7-3.9h-12c-0.9,1.4-1.7,3.4-2.3,5.3c-0.7,2-1.2,4.1-1.5,6.3H-113L-113,145z"/>
			<path class="st37" d="M-54.5,150c0-0.7,0-1.5-0.1-2.2h-74c0,0.7-0.1,1.5-0.1,2.2c0,0.7,0,1.4,0.1,2.1h74
				C-54.5,151.4-54.5,150.7-54.5,150"/>
		</g>
		
			<linearGradient id="SVGID_30_" gradientUnits="userSpaceOnUse" x1="-209.9773" y1="497.5384" x2="-209.2564" y2="497.5384" gradientTransform="matrix(0 -39.9999 -39.9999 0 19792.2832 -8409.6367)">
			<stop  offset="0" style="stop-color:#00E4E4"/>
			<stop  offset="0.7715" style="stop-color:#D887C7"/>
			<stop  offset="1" style="stop-color:#D887C7"/>
		</linearGradient>
		<path class="st38" d="M-124-25c0,8,6.6,14.4,14.8,14.4c8.2,0,14.8-6.5,14.8-14.4s-6.6-14.4-14.8-14.4C-117.4-39.4-124-32.9-124-25
			"/>
		<path class="st35" d="M-109.2-41.3c-9.3,0-16.8,7.3-16.8,16.3s7.5,16.3,16.8,16.3S-92.4-16-92.4-25S-99.9-41.3-109.2-41.3
			 M-109.2-37.5c7.1,0,12.8,5.6,12.8,12.5s-5.8,12.5-12.8,12.5c-7.1,0-12.8-5.6-12.8-12.5S-116.3-37.5-109.2-37.5"/>
		<path class="st37" d="M-109.2-20.2c-2.7,0-4.9-2.2-4.9-4.8s2.2-4.8,4.9-4.8s4.9,2.2,4.9,4.8S-106.5-20.2-109.2-20.2"/>
		<path class="st39" d="M-146.7-2.9c0.1-4.7,0.6-9.2,1.3-13.5c0.6-3.4,1.3-6.7,2.1-9.6h-12.7c6.9-15.4,19.4-25,33.9-25 M-72.7-16.3
			h-12c1.1,3.8,1.8,8.8,2,13.5 M-97.4,2.9c-0.2,8.7-1.4,16.2-3.4,23.1c-1,3.5-2.2,6.7-3.6,9.6h-24.8c-1-5.8-1.8-11.9-2.3-19.2
			c-0.3-4.3-0.5-8.7-0.5-13.5H-97.4z"/>
		<path class="st40" d="M-145.8,16.3h13.8"/>
		<path class="st41" d="M-88.5,26h10.9 M-161.5-2.9c0.4-8.4,2.3-16.2,5.5-23.1 M-167.5,26h23.7c-0.9-2.9-1.6-6.2-2-9.6
			c-0.6-4.3-0.9-8.8-0.9-13.4v0 M-82.6,2.9c-0.2,4.7-0.9,9.2-2,13.5c-0.9,3.4-2,6.6-3.4,9.6c-1.6,3.5-3.5,6.7-5.7,9.6
			c-6.9,9.2-17.7,15-28.3,15.4c-2.8,0-5.2-5.9-7-15.4 M-72.7-0.1c0,1,0,2-0.1,2.9h-98.6c0-1-0.1-2-0.1-2.9c0-0.9,0-1.9,0.1-2.8h98.6
			C-72.7-1.9-72.7-1-72.7-0.1z"/>
		<path class="st39" d="M-69.8,2.9c-1.5,26.9-24.4,48.1-52.3,48.1c-27.9,0-50.7-21.1-52.3-48.1H-69.8z M-174.3-2.9
			c1.5-26.9,24.4-48.1,52.3-48.1c27.9,0,50.7,21.1,52.3,48.1H-174.3z"/>
		<path class="st40" d="M-92.4-25c0,9-7.5,16.3-16.8,16.3S-126-16-126-25s7.5-16.3,16.8-16.3S-92.4-34-92.4-25z"/>
		<path class="st41" d="M-111.7-20.8l-5.9,10 M-100.8-39.1l-5.9,10 M-100.8-10.8l-5.9-10 M-111.7-29.1l-5.9-10 M-114.1-25H-126
			 M-92.4-25h-11.9 M-109.2-20.2c-2.7,0-4.9-2.2-4.9-4.8s2.2-4.8,4.9-4.8s4.9,2.2,4.9,4.8S-106.5-20.2-109.2-20.2z"/>
	</g>
	<g>
		
			<linearGradient id="SVGID_32_" gradientUnits="userSpaceOnUse" x1="-205.2595" y1="493.1146" x2="-204.3913" y2="493.1146" gradientTransform="matrix(103.9997 0 0 -103.9997 21162.9473 51461.5391)">
			<stop  offset="0" style="stop-color:#D887C7"/>
			<stop  offset="0.2285" style="stop-color:#D887C7"/>
			<stop  offset="1" style="stop-color:#00E4E4"/>
		</linearGradient>
		<path class="st42" d="M-145.8,146.2c-21.1,0-38.2,16.8-38.2,37.7v25.4h90.3v-25.4c0-20.9-17.2-37.7-38.2-37.7H-145.8z"/>
		<g transform="matrix(1.33333 0 0 -1.33333 0 200)">
			<path class="st35" d="M-98.9,42.1h-10.4c-16.8,0-30.4-13.4-30.4-30V-8.7h71.2v20.8C-68.5,28.7-82.2,42.1-98.9,42.1 M-98.9,38.6
				c14.8,0,26.9-11.8,26.9-26.5V-5.2h-64.2v17.3c0,14.7,12.1,26.5,26.9,26.5H-98.9"/>
			<path class="st40" d="M-68.5-8.7h-71.2v20.8c0,16.6,13.6,30,30.4,30h10.4c16.8,0,30.4-13.4,30.4-30V-8.7z"/>
		</g>
		
			<linearGradient id="SVGID_33_" gradientUnits="userSpaceOnUse" x1="-205.1737" y1="494.1823" x2="-204.3055" y2="494.1823" gradientTransform="matrix(141.2239 0 0 -141.2239 28775.2812 70005.9297)">
			<stop  offset="0" style="stop-color:#00E4E4"/>
			<stop  offset="1" style="stop-color:#D887C7"/>
		</linearGradient>
		<path class="st43" d="M-151.5,165.7c-16.3,0-30.4,11.2-33.9,26.9l-13.7,42.3c-4.6,15.2,6.9,30.5,23,30.5h74.6
			c16,0,27.5-15.3,23-30.5l-13.7-42.3c-3.5-15.7-17.6-26.9-33.9-26.9H-151.5z"/>
		<g transform="matrix(1.33333 0 0 -1.33333 0 200)">
			<path class="st39" d="M-113.6,25.7h19c12.2,0,22.8-8.4,25.4-20.2l10.3-31.7c3.4-11.4-5.2-22.9-17.2-22.9h-56
				c-12,0-20.7,11.5-17.2,22.9L-139,5.5C-136.4,17.3-125.8,25.7-113.6,25.7z"/>
		</g>
		
			<linearGradient id="SVGID_35_" gradientUnits="userSpaceOnUse" x1="-205.2247" y1="493.5941" x2="-204.3565" y2="493.5941" gradientTransform="matrix(116.4257 0 0 -116.4257 23704.0547 57691.2266)">
			<stop  offset="0" style="stop-color:#D887C7"/>
			<stop  offset="5.034530e-03" style="stop-color:#D887C7"/>
			<stop  offset="1" style="stop-color:#00EFEF"/>
		</linearGradient>
		<path class="st44" d="M-158.1,185.2c-8.7,0-16.1,5.9-18.1,14.3c0,0.1,0,0.2-0.1,0.2l-12.2,35.7c-2,6.6-0.9,13.5,3.3,19.1
			c4.1,5.5,10.5,8.7,17.4,8.7h57.7c6.9,0,13.3-3.2,17.4-8.7c4.1-5.5,5.3-12.5,3.3-19l-12.2-35.8c0-0.1,0-0.2-0.1-0.2
			c-1.9-8.4-9.4-14.3-18.1-14.3H-158.1z"/>
		<g transform="matrix(1.33333 0 0 -1.33333 0 200)">
			<path class="st32" d="M-89.7,12.8h-28.9c-7.3,0-13.6-5-15.2-12.1l-9.2-26.8c-3.6-11.5,5.1-23.1,17.2-23.1h43.3
				c12.1,0,20.7,11.6,17.2,23.1l-9.2,26.8C-76.1,7.8-82.4,12.8-89.7,12.8 M-89.5,9.4c5.7,0,10.5-3.9,11.8-9.4c0-0.1,0-0.2,0.1-0.3
				l9.1-26.8c1.4-4.4,0.5-9-2.2-12.7c-2.8-3.7-7-5.8-11.7-5.8h-43.3c-4.7,0-8.9,2.1-11.7,5.8c-2.8,3.7-3.6,8.3-2.2,12.7l9.1,26.8
				c0,0.1,0.1,0.2,0.1,0.3c1.3,5.5,6.1,9.4,11.9,9.4h29.2"/>
			<path class="st39" d="M-82.5-49.1h-43.3c-12.1,0-20.7,11.6-17.2,23.1l9.2,26.8c1.6,7.1,7.9,12.1,15.2,12.1h28.9
				c7.3,0,13.6-5,15.2-12.1l9.2-26.8C-61.7-37.5-70.4-49.1-82.5-49.1z"/>
		</g>
		
			<linearGradient id="SVGID_36_" gradientUnits="userSpaceOnUse" x1="-205.3873" y1="491.7293" x2="-204.5191" y2="491.7293" gradientTransform="matrix(74.6665 0 0 -74.6665 15164.2949 36958.2422)">
			<stop  offset="0" style="stop-color:#00E4E4"/>
			<stop  offset="0.7715" style="stop-color:#DD96CE"/>
			<stop  offset="1" style="stop-color:#DD96CE"/>
		</linearGradient>
		<path class="st45" d="M-171.3,268.9h64.8v-52.8h-64.8V268.9z"/>
		<g transform="matrix(1.33333 0 0 -1.33333 0 200)">
			<path class="st35" d="M-78.1-10.4h-52.1v-43h52.1V-10.4z M-81.6-50h-45.1v36.1h45.1V-50z"/>
			<path class="st39" d="M-78.1-53.4h-52.1v43h52.1V-53.4z"/>
			<path class="st37" d="M-100.7,12.8h-6.9v29.2c0,1.9,1.6,3.4,3.5,3.4c1.9,0,3.5-1.5,3.5-3.4V12.8z"/>
			<path class="st41" d="M-100.7,12.8h-6.9v29.2c0,1.9,1.6,3.4,3.5,3.4c1.9,0,3.5-1.5,3.5-3.4V12.8z"/>
		</g>
		
			<linearGradient id="SVGID_38_" gradientUnits="userSpaceOnUse" x1="-206.1309" y1="483.9821" x2="-205.2627" y2="483.9821" gradientTransform="matrix(30.6966 0 0 -30.6966 6194.4673 15061.8721)">
			<stop  offset="0" style="stop-color:#00ECEC"/>
			<stop  offset="0.7715" style="stop-color:#E3A6D6"/>
			<stop  offset="1" style="stop-color:#E3A6D6"/>
		</linearGradient>
		<path class="st46" d="M-119.7,194.4c-7.3,0-13.3,6.7-13.3,14.9v6.9h26.6c0-3.4,0-8.3,0-8.7c0-7.2-5.9-13-13.2-13H-119.7z"/>
		<g transform="matrix(1.33333 0 0 -1.33333 0 200)">
			<path class="st35" d="M-89.7,5.9L-89.7,5.9c-6.6,0-11.8-5.8-11.8-12.9v-6.9h23.4c0,0,0,7.8,0,8.3C-78.1,0.8-83.3,5.9-89.7,5.9
				 M-89.7,2.5c4.5,0,8.2-3.6,8.2-8.1c0-0.3,0-3.1,0-4.8h-16.5V-7C-98.1-1.7-94.3,2.5-89.7,2.5h0.3"/>
			<path class="st40" d="M-78.1-13.8h-23.4V-7c0,7.1,5.3,12.9,11.7,12.9h0.1c6.4,0,11.6-5.1,11.6-11.5
				C-78.1-6.1-78.1-13.8-78.1-13.8L-78.1-13.8z"/>
		</g>
		
			<linearGradient id="SVGID_40_" gradientUnits="userSpaceOnUse" x1="-205.939" y1="484.0174" x2="-205.0708" y2="484.0174" gradientTransform="matrix(30.7799 0 0 -30.7799 6167.4375 15103.2881)">
			<stop  offset="0" style="stop-color:#E3A6D6"/>
			<stop  offset="0.2285" style="stop-color:#E3A6D6"/>
			<stop  offset="1" style="stop-color:#00ECEC"/>
		</linearGradient>
		<path class="st47" d="M-158.2,194.4c-7.3,0-13.2,5.8-13.2,13c0,0.5,0,5.3,0,8.8h26.7v-6.9c0-8.2-6.1-14.9-13.4-14.9H-158.2z"/>
		<g transform="matrix(1.33333 0 0 -1.33333 0 200)">
			<path class="st35" d="M-118.5,5.9L-118.5,5.9c-6.5,0-11.7-5.1-11.7-11.5c0-0.5,0-8.3,0-8.3h23.5V-7
				C-106.7,0.2-112.1,5.9-118.5,5.9 M-118.5,2.5c4.5,0,8.3-4.2,8.3-9.5v-3.4h-16.5c0,2.6,0,4.6,0,4.8
				C-126.8-1.1-123.1,2.5-118.5,2.5h-0.4"/>
			<path class="st40" d="M-130.2-13.8h23.5V-7c0,7.1-5.3,12.9-11.8,12.9h-0.1c-6.4,0-11.6-5.1-11.6-11.5
				C-130.2-6.1-130.2-13.8-130.2-13.8z"/>
		</g>
		
			<linearGradient id="SVGID_41_" gradientUnits="userSpaceOnUse" x1="-205.3979" y1="491.594" x2="-204.5296" y2="491.594" gradientTransform="matrix(72.9556 0 0 -72.9556 14814.3779 36101.8242)">
			<stop  offset="0" style="stop-color:#00EFEF"/>
			<stop  offset="0.9938" style="stop-color:#DD96CE"/>
			<stop  offset="1" style="stop-color:#DD96CE"/>
		</linearGradient>
		<path class="st48" d="M-170.5,216.2l7.1,24.8l24.6,17.5l24.6-17.5l7.1-24.8H-170.5z"/>
		<path class="st49" d="M-104.1,213.9h-69.5l8.1,28.5l26.6,18.9l26.6-18.9L-104.1,213.9z M-110.1,218.5l-6.1,21.1l-22.7,16.1
			l-22.6-16.1l-6-21.1h57.6"/>
		<path class="st39" d="M-138.9,261.3l-26.6-18.9l-8.1-28.5h69.5l-8.1,28.5L-138.9,261.3z"/>
		<path class="st41" d="M-138.8,215v27.5 M-148.1,227.6v14.9 M-129.6,227.6v14.9"/>
		<path class="st35" d="M-138.9,215l-26.6,27.5h53.3L-138.9,215z M-138.9,221.7l15.8,16.3h-31.5L-138.9,221.7z"/>
		<path class="st41" d="M-138.9,215l-26.6,27.5h53.3L-138.9,215z"/>
		<path class="st37" d="M-133,215c0,2.5-2.1,4.6-4.6,4.6h-2.3c-2.6,0-4.6-2.1-4.6-4.6v-2.3c0-2.5,2.1-4.6,4.6-4.6h2.3
			c2.6,0,4.6,2.1,4.6,4.6V215z"/>
		<path class="st41" d="M-133,215c0,2.5-2.1,4.6-4.6,4.6h-2.3c-2.6,0-4.6-2.1-4.6-4.6v-2.3c0-2.5,2.1-4.6,4.6-4.6h2.3
			c2.6,0,4.6,2.1,4.6,4.6V215z"/>
		<path class="st39" d="M-142.3,192.1h6.9"/>
	</g>
	<g>
		
			<linearGradient id="SVGID_42_" gradientUnits="userSpaceOnUse" x1="-200.5852" y1="491.0704" x2="-199.8234" y2="491.0704" gradientTransform="matrix(47.9999 0 0 -47.9999 9710.9756 23725.6074)">
			<stop  offset="0" style="stop-color:#00E4E4"/>
			<stop  offset="0.7715" style="stop-color:#D887C7"/>
			<stop  offset="1" style="stop-color:#D887C7"/>
		</linearGradient>
		<path class="st50" d="M82.9,163.5h36.6v-18.3H82.9V163.5z"/>
		<g transform="matrix(1.33333 0 0 -1.33333 0 200)">
			<path class="st51" d="M62.2,41.2V27.4h27.4v13.8"/>
		</g>
		
			<linearGradient id="SVGID_43_" gradientUnits="userSpaceOnUse" x1="-203.2" y1="494.5803" x2="-202.4382" y2="494.5803" gradientTransform="matrix(122.6664 0 0 -122.6664 24980.2715 60770.8477)">
			<stop  offset="0" style="stop-color:#D887C7"/>
			<stop  offset="0.2285" style="stop-color:#D887C7"/>
			<stop  offset="1" style="stop-color:#00E4E4"/>
		</linearGradient>
		<path class="st52" d="M54.6,90.1c-0.1,1.1-0.1,2.7-0.1,4.1c0,7.2,1,14.3,2.7,20.7h88c1.8-6.5,2.7-13.5,2.7-20.7c0-1.4,0-3-0.1-4.1
			H54.6z"/>
		<g transform="matrix(1.33333 0 0 -1.33333 0 200)">
			<path class="st53" d="M110.9,79.4c0-5.4-0.7-10.7-2-15.6h-66c-1.3,4.9-2,10.2-2,15.6c0,1,0,2.3,0.1,3.1h69.9
				C110.9,81.6,110.9,80.4,110.9,79.4L110.9,79.4z"/>
		</g>
		
			<linearGradient id="SVGID_44_" gradientUnits="userSpaceOnUse" x1="-202.9478" y1="494.1971" x2="-202.186" y2="494.1971" gradientTransform="matrix(106.6664 0 0 -106.6664 21708.2793 52807.5078)">
			<stop  offset="0" style="stop-color:#00E4E4"/>
			<stop  offset="0.7715" style="stop-color:#D887C7"/>
			<stop  offset="1" style="stop-color:#D887C7"/>
		</linearGradient>
		<path class="st54" d="M92.3,39c-2.9,4.7-7,8.4-11.5,11.3c-12.6,8.2-20.3,24.3-20.3,44.1c0,31.1,18.8,58.2,40.6,58.2
			c21.8,0,40.6-27.2,40.6-58.2c0-19.7-7.7-35.8-20.3-44.1c-4.5-2.9-8.6-6.6-11.5-11.3c-1.6-2.7-4.5-5.1-8.9-5.1
			C96.8,33.9,94,36.3,92.3,39"/>
		<g transform="matrix(1.33333 0 0 -1.33333 0 200)">
			<path class="st53" d="M60.6,112.3c3.4,2.2,6.4,5,8.6,8.5c1.2,2,3.3,3.8,6.6,3.8c3.3,0,5.4-1.8,6.6-3.8c2.2-3.5,5.2-6.3,8.6-8.5
				c9.4-6.2,15.2-18.2,15.2-33c0-23.3-14.1-43.7-30.5-43.7c-16.3,0-30.5,20.4-30.5,43.7C45.4,94,51.2,106.1,60.6,112.3L60.6,112.3z"
				/>
		</g>
		
			<linearGradient id="SVGID_45_" gradientUnits="userSpaceOnUse" x1="-202.4645" y1="493.5107" x2="-201.7028" y2="493.5107" gradientTransform="matrix(85.3331 0 0 -85.3331 17345.623 42211.3008)">
			<stop  offset="0" style="stop-color:#00EFEF"/>
			<stop  offset="0.995" style="stop-color:#D887C7"/>
			<stop  offset="1" style="stop-color:#D887C7"/>
		</linearGradient>
		<path class="st55" d="M68.7,94.4c0,26.5,15.2,49.8,32.5,49.8s32.5-23.3,32.5-49.8c0-24.1-13.7-41.6-32.5-41.6S68.7,70.3,68.7,94.4
			"/>
		<g transform="matrix(1.33333 0 0 -1.33333 0 200)">
			<path class="st56" d="M75.9,112C61.4,112,50,99,50,79.2s11.4-39,25.9-39s25.9,19.2,25.9,39S90.4,112,75.9,112 M75.9,108.8
				c6.3,0,12-2.8,16.1-7.9c4.4-5.4,6.8-13,6.8-21.7c0-9-2.5-18.2-7-25.1c-4.4-6.9-10-10.6-15.9-10.6S64.4,47.2,60,54.1
				c-4.4,6.9-7,16.1-7,25.1c0,8.8,2.3,16.3,6.8,21.7C63.9,106,69.6,108.8,75.9,108.8"/>
			<path class="st51" d="M101.8,79.2c0-19.8-11.4-39-25.9-39S50,59.4,50,79.2S61.4,112,75.9,112S101.8,99,101.8,79.2z"/>
			<path class="st51" d="M56.9,82.4c0-20.5,9.4-40.6,19-40.6s19,20.1,19,40.6"/>
			<path class="st51" d="M75.9,81.6V40.4"/>
		</g>
		
			<linearGradient id="SVGID_46_" gradientUnits="userSpaceOnUse" x1="-198.297" y1="487.2301" x2="-197.5352" y2="487.2301" gradientTransform="matrix(30.6666 0 0 -30.6666 6184.3228 15032.2959)">
			<stop  offset="0" style="stop-color:#00E4E4"/>
			<stop  offset="0.7715" style="stop-color:#E3A6D6"/>
			<stop  offset="1" style="stop-color:#E3A6D6"/>
		</linearGradient>
		<path class="st57" d="M103.2,90.6c0,7.4,5.2,13.5,11.7,13.5c6.4,0,11.7-6.1,11.7-13.5c0-7.4-5.2-13.5-11.7-13.5
			C108.5,77.1,103.2,83.2,103.2,90.6"/>
		<g transform="matrix(1.33333 0 0 -1.33333 0 200)">
			<path class="st58" d="M86.2,93.8c-5.7,0-10.3-5.3-10.3-11.7s4.6-11.7,10.3-11.7S96.5,75.6,96.5,82S91.9,93.8,86.2,93.8
				 M86.2,90.5c4,0,7.2-3.8,7.2-8.5c0-4.7-3.2-8.5-7.2-8.5s-7.2,3.8-7.2,8.5C78.9,86.7,82.2,90.5,86.2,90.5"/>
			<path class="st51" d="M96.5,82c0-6.5-4.6-11.7-10.3-11.7S75.9,75.6,75.9,82s4.6,11.7,10.3,11.7S96.5,88.5,96.5,82z"/>
		</g>
		
			<linearGradient id="SVGID_47_" gradientUnits="userSpaceOnUse" x1="-198.0173" y1="487.2301" x2="-197.2555" y2="487.2301" gradientTransform="matrix(30.6666 0 0 -30.6666 6148.3125 15032.2959)">
			<stop  offset="0" style="stop-color:#E3A6D6"/>
			<stop  offset="0.2285" style="stop-color:#E3A6D6"/>
			<stop  offset="1" style="stop-color:#00E4E4"/>
		</linearGradient>
		<path class="st59" d="M75.8,90.6c0,7.4,5.2,13.5,11.7,13.5c6.4,0,11.7-6.1,11.7-13.5c0-7.4-5.2-13.5-11.7-13.5
			C81,77.1,75.8,83.2,75.8,90.6"/>
		<path class="st58" d="M87.5,75c-7.6,0-13.7,7-13.7,15.6s6.1,15.6,13.7,15.6c7.6,0,13.7-7,13.7-15.6S95.1,75,87.5,75 M87.5,79.3
			c5.3,0,9.6,5.1,9.6,11.3c0,6.2-4.3,11.3-9.6,11.3s-9.6-5.1-9.6-11.3C77.8,84.4,82.2,79.3,87.5,79.3"/>
		<path class="st51" d="M101.2,90.6c0,8.6-6.1,15.6-13.7,15.6s-13.7-7-13.7-15.6S79.9,75,87.5,75S101.2,82,101.2,90.6z"/>
		<path class="st60" d="M119.5,90.6c0,2.7-2,4.9-4.6,4.9c-2.5,0-4.6-2.2-4.6-4.9c0-2.7,2-4.9,4.6-4.9
			C117.4,85.8,119.5,87.9,119.5,90.6"/>
		<path class="st51" d="M119.5,90.6c0,2.7-2,4.9-4.6,4.9c-2.5,0-4.6-2.2-4.6-4.9c0-2.7,2-4.9,4.6-4.9
			C117.4,85.8,119.5,87.9,119.5,90.6z M107.1,115.3l-5.9-6.2"/>
		<path class="st51" d="M73.8,90.2c0,26.4,12.3,56.2,27.4,56.2c15.1,0,27.4-29.8,27.4-56.2"/>
		<path class="st60" d="M82.9,90.6c0,2.7,2,4.9,4.6,4.9c2.5,0,4.6-2.2,4.6-4.9c0-2.7-2-4.9-4.6-4.9C85,85.8,82.9,87.9,82.9,90.6"/>
		<path class="st51" d="M82.9,90.6c0,2.7,2,4.9,4.6,4.9c2.5,0,4.6-2.2,4.6-4.9c0-2.7-2-4.9-4.6-4.9C85,85.8,82.9,87.9,82.9,90.6z
			 M95.3,115.3l5.9-6.2"/>
		<path class="st56" d="M106.1,45.4c0,2.9-2.2,5.2-4.9,5.2c-2.7,0-4.9-2.3-4.9-5.2c0-2.9,2.2-5.2,4.9-5.2
			C103.9,40.2,106.1,42.5,106.1,45.4"/>
		<path class="st51" d="M106.1,45.4c0,2.9-2.2,5.2-4.9,5.2c-2.7,0-4.9-2.3-4.9-5.2c0-2.9,2.2-5.2,4.9-5.2
			C103.9,40.2,106.1,42.5,106.1,45.4L106.1,45.4z M96.1,126.8h10.2 M75.8,163.5h50.8"/>
	</g>
</g>
<g id="Layer_1">
</g>
</svg>
