<?xml version="1.0" encoding="utf-8"?>
<!-- Generator: Adobe Illustrator 24.3.0, SVG Export Plug-In . SVG Version: 6.00 Build 0)  -->
<svg version="1.1" xmlns="http://www.w3.org/2000/svg" xmlns:xlink="http://www.w3.org/1999/xlink" x="0px" y="0px"
	 viewBox="0 0 200 200" style="enable-background:new 0 0 200 200;" xml:space="preserve">
<style type="text/css">
	.st0{fill:url(#SVGID_1_);stroke:#BBBDBF;stroke-miterlimit:10;}
	.st1{fill:url(#SVGID_2_);stroke:#231F20;stroke-miterlimit:10;}
	.st2{fill:url(#SVGID_3_);}
	.st3{fill:url(#SVGID_4_);}
	.st4{fill:#FFFFFF;}
</style>
<g id="Layer_2">
	
		<radialGradient id="SVGID_1_" cx="84.0719" cy="84.5082" r="61.3141" gradientTransform="matrix(1.3593 0 0 1.3275 -13.9006 -12.1865)" gradientUnits="userSpaceOnUse">
		<stop  offset="0.1269" style="stop-color:#EBEBEB"/>
		<stop  offset="0.6604" style="stop-color:#F6F6F6"/>
		<stop  offset="1" style="stop-color:#020202"/>
	</radialGradient>
	<ellipse class="st0" cx="100.4" cy="100" rx="83.3" ry="81.4"/>
	
		<radialGradient id="SVGID_2_" cx="84.072" cy="84.5083" r="71.2117" fx="118.3013" fy="59.3457" gradientTransform="matrix(1.3593 0 0 1.3275 -13.9006 -12.1865)" gradientUnits="userSpaceOnUse">
		<stop  offset="0.1269" style="stop-color:#FFFFFF"/>
		<stop  offset="0.8831" style="stop-color:#020202"/>
		<stop  offset="0.9244" style="stop-color:#020202"/>
	</radialGradient>
	<path class="st1" d="M100.4,168.1c-38.5,0-69.8-30.6-69.8-68.1c0-37.6,31.3-68.1,69.8-68.1c38.5,0,69.8,30.6,69.8,68.1
		C170.1,137.6,138.8,168.1,100.4,168.1z"/>
	<g>
		<radialGradient id="SVGID_3_" cx="100.38" cy="100.0011" r="62.2353" gradientUnits="userSpaceOnUse">
			<stop  offset="0" style="stop-color:#26A9E0"/>
			<stop  offset="0" style="stop-color:#020202"/>
			<stop  offset="0" style="stop-color:#4D83C3"/>
			<stop  offset="0" style="stop-color:#1B75BB"/>
			<stop  offset="0" style="stop-color:#F9FAFA"/>
			<stop  offset="1" style="stop-color:#BDDAF3"/>
			<stop  offset="1" style="stop-color:#EB008B"/>
			<stop  offset="1" style="stop-color:#EA028C"/>
			<stop  offset="1" style="stop-color:#E6098F"/>
			<stop  offset="1" style="stop-color:#DF1493"/>
			<stop  offset="1" style="stop-color:#D5259A"/>
			<stop  offset="1" style="stop-color:#C83BA3"/>
			<stop  offset="1" style="stop-color:#B757AF"/>
			<stop  offset="1" style="stop-color:#A477BC"/>
			<stop  offset="1" style="stop-color:#8F9BCB"/>
			<stop  offset="1" style="stop-color:#8AA3CE"/>
			<stop  offset="1" style="stop-color:#70BF44"/>
		</radialGradient>
		<path class="st2" d="M141.8,146.4c-26,22.4-65.8,19.9-88.6-5.7C30.4,115.1,33,76,59,53.6c26-22.4,65.8-19.9,88.6,5.7
			C170.4,84.9,167.8,124,141.8,146.4z"/>
		
			<radialGradient id="SVGID_4_" cx="89.4482" cy="73.9427" r="59.9634" gradientTransform="matrix(1.3593 0 0 1.3275 -13.9006 -12.1865)" gradientUnits="userSpaceOnUse">
			<stop  offset="0" style="stop-color:#26A9E0"/>
			<stop  offset="0" style="stop-color:#020202"/>
			<stop  offset="0" style="stop-color:#4D83C3"/>
			<stop  offset="0" style="stop-color:#1B75BB"/>
			<stop  offset="0" style="stop-color:#F9FAFA"/>
			<stop  offset="0" style="stop-color:#FFFFFF"/>
			<stop  offset="0.1799" style="stop-color:#FAC2E3"/>
			<stop  offset="0.4029" style="stop-color:#F57EC4"/>
			<stop  offset="0.6045" style="stop-color:#F148AC"/>
			<stop  offset="0.7775" style="stop-color:#EE219A"/>
			<stop  offset="0.9151" style="stop-color:#EC098F"/>
			<stop  offset="1" style="stop-color:#EB008B"/>
			<stop  offset="1" style="stop-color:#EA028C"/>
			<stop  offset="1" style="stop-color:#E6098F"/>
			<stop  offset="1" style="stop-color:#DF1493"/>
			<stop  offset="1" style="stop-color:#D5259A"/>
			<stop  offset="1" style="stop-color:#C83BA3"/>
			<stop  offset="1" style="stop-color:#B757AF"/>
			<stop  offset="1" style="stop-color:#A477BC"/>
			<stop  offset="1" style="stop-color:#8F9BCB"/>
			<stop  offset="1" style="stop-color:#8AA3CE"/>
			<stop  offset="1" style="stop-color:#E63825"/>
		</radialGradient>
		<path class="st3" d="M100.4,162.5c-17.7,0-35.3-7.2-47.8-21.3C29.5,115.3,32.1,75.7,58.5,53c12.7-11,29.1-16.4,46.1-15.3
			c17,1.1,32.4,8.6,43.6,21.1c23.1,25.9,20.5,65.5-5.9,88.2C130.2,157.4,115.3,162.5,100.4,162.5z M100.3,39
			c-15,0-29.4,5.3-40.8,15.1c-25.7,22.2-28.3,60.8-5.7,86.1c22.5,25.3,61.8,27.8,87.5,5.6l0.5,0.6l-0.5-0.6
			c12.4-10.7,19.9-25.6,21-41.9c1.1-16.3-4.3-32-15.2-44.2c-10.9-12.2-26-19.6-42.6-20.6C103,39.1,101.7,39,100.3,39z"/>
	</g>
	<g>
		<path d="M160.5,99c-1.2,0.3-2.3,0.5-3.3,0.7c-0.4-1.3-0.7-2.2-1.1-3.3c0.3-0.1,0.6-0.3,0.9-0.5c-0.1-0.5-0.1-1.1-0.2-1.9
			c0.7,0.3,1.2,0.6,1.8,0.8c0.1-0.1,0.2-0.2,0.2-0.2c-0.8-1.4-1.5-2.8-2.3-4.1c-0.5-0.8-1.3-1.4-1.9-2.1c-0.4-0.5-0.6-1.1-1-1.5
			c-1-1-2.2-1.8-3.7-1.8c-1.9-0.1-3.2-1.1-4.3-2.4c-0.7-0.8-1.5-1.1-2.5-1.1c-1.2,0.1-2.1-0.5-3.2-1c-0.4-0.2-1.1-0.1-1.6-0.2
			c-0.5-0.1-1-0.1-1.6-0.2c0.4-0.9,0.6-1.6,0.9-2.2c-0.1,0-0.1-0.1-0.2-0.1c-0.4,0.5-0.8,1-1.1,1.6c-2.1,3.8-4.2,7.7-6.4,11.5
			c-0.3,0.6-0.7,1.2-0.1,1.9c-0.5-0.2-1-0.4-1.4-0.6c-1-0.5-1.3-0.3-1.2,0.8c0.1,2.4,0.1,4.8,0.2,7.2c0,0.9-1,2-1.9,1.8
			c-0.3,0-0.4-0.6-0.6-0.8c-0.3-0.1-0.8-0.1-1.1-0.3c-0.3-0.2-0.4-0.7-0.7-1c-0.1,0.3-0.1,0.6-0.2,1.1c-0.3-0.5-0.6-0.8-0.9-1.3
			c0,0.6-0.1,1-0.1,1.6c-0.4-0.1-0.6-0.2-0.8-0.2c-0.2,0.4-0.4,0.7-0.7,1.2c0.6,1.3-1.4,0.2-1.3,1.1c0.5,0.2,0.9,0.3,1.5,0.5
			c-0.6,0.7-1.2,0.8-1.8,0.6c-0.7-0.2-1,0-1.4,0.6c-1.9,2.7-3.8,5.4-5.9,8c-2.6,3.1-5.3,6.2-8,9.2c-0.4,0.5-1,0.9-1.3,1.4
			c-0.2,0.5,0,1.2,0,1.9c-0.3,0.1-0.8,0.1-1.2,0.2c-0.1-0.3-0.2-0.5-0.2-0.7c-0.2-1.6-0.4-3.1-0.5-4.7c-0.1-5.4,0-10.7,0-16.1
			c0-0.3,0-0.6,0-1c-1.5,0-2.9,0-4.3,0c4-0.8,7.9-0.4,11.9-0.2c-0.8-0.1-1.5-0.1-2.3-0.3c-0.9-0.2-1.8-0.5-2.7-0.7
			c-0.7-0.1-1.4-0.1-2.3-0.2c0-1.7,0-3.5-0.1-5.3c0-1.8,0-3.6,0-5.4c-0.1,0-0.2,0-0.2,0c0,3.6,0,7.2,0,10.9c-2.6,0.2-5,0.5-7.5,0.6
			c-0.2,0-0.7-0.4-0.8-0.7c-1-2.9-1.9-5.8-2.9-8.7c-1.5-4.5-3.1-9.1-4.6-13.6c-0.2-0.7-0.3-1.3,0.2-1.8c4.9,0.6,9.7,1.4,14.5,1.8
			c1.7,0.2,3.5-0.2,5.2-0.4c0.6-0.1,0.8-0.6,0.4-1c-0.4-0.4-1-0.8-1.6-0.8c-0.7-0.1-1.4,0.1-2.1,0.2c-0.5,0.1-0.9,0.1-0.9-0.5
			c0-0.2-0.2-0.5-0.4-0.5c-1.2-0.2-2.3-0.4-3.5-0.6c-0.8-0.1-1.2,0.2-1.1,1c0,0.7-0.2,0.9-1,0.8c-2.2-0.3-4.4-0.6-6.6-0.9
			c-1.7-0.2-2.8,0.2-4,1.6c-3.4,4.1-7,8.1-10.6,12.1c-0.3,0.4-0.5,1.1-1.2,0.8c0-0.3,0.1-0.6,0-0.9c-0.9-2.1-1.7-4.3-2.6-6.4
			c-0.1,0-0.2,0-0.3,0.1c0.1,0.7,0.2,1.5,0.3,2.2c0,0.2,0.1,0.3,0,0.5c-0.3,0.7,0,1.2,0.8,1.2c0.2,1.5-0.1,2.2-1.2,2.6
			c0,0.1,0,0.1,0,0.2c0.6,1.7,0.6,1.7-1.1,2.4c-0.9,0.4-1.7,0.8-2.5,1.2c-0.6,0.3-1.2,0.6-1.8-0.1c-0.3,0.3-0.6,0.4-0.9,0.7
			c-0.2-0.4-0.3-0.7-0.5-1c-0.2,0.1-0.3,0.2-0.4,0.3c-0.4-0.5-0.7-0.9-1.1-1.4c-0.1,0.4-0.2,0.6-0.2,0.9c-0.1,0.1-0.3,0.2-0.4,0.4
			c-0.3-0.4-0.6-0.8-0.9-1.2c0,0-0.2,0.4-0.4,0.4c-0.2,0-0.5-0.2-0.7-0.4c-0.4-0.4-0.8-0.9-1.3-1.4c0.4-0.2,0.6-0.4,0.9-0.5
			c1.4-0.5,2.7-1.4,4.1-2c1.4-0.6,2.9-1.3,4.3-1.9c0.8-0.3,0.8-0.8,0.4-1.4c-0.4-0.7-0.9-1.5-1.3-2.2c-0.1-0.2-0.4-0.4-0.6-0.5
			c-2.6-0.6-5.2-1.1-7.8-1.6c-0.4-0.1-1.1,0.1-1.4,0.4c-2.6,2.5-5.1,5-7.6,7.5c-0.1,0.1-0.2,0.2-0.2,0.4c0.3-0.3,0.7-0.6,1-0.9
			c0.1,0,0.1,0.1,0.2,0.1c-2,3.4-3.9,6.8-5.9,10.1c0.1,0,0.1,0.1,0.2,0.1c0.2-0.4,0.5-0.9,0.6-1.1c0.9,0,1.7-0.1,2.5,0
			c0.5,0.1,1,0.4,1.5,0.5c0.8,0.1,1.2,1.1,2.1,1.2c1.1,0.1,2.1,0.9,3.1,1.3c0.4,0.1,0.8,0.2,1.2,0.2c0.5,0.1,1.1,0.1,1.6,0.1
			c2.8,0.3,5.7,0.6,8.5,0.8c1.6,0.1,3.2-0.1,4.8,0.1c1.5,0.2,2.9,0.6,4.3,1c0.4,0.1,0.7,0.5,1,0.8c0.3,0.4,0.6,0.8,0.9,1.3
			c0-0.3,0-0.4,0-0.4c-0.6-1.3-0.2-2,1.3-1.9c2,0.1,4,0.2,5.9,0.4c-0.6,0-1.3,0-2.1,0c1.9,1.4,4.1,2.3,5.6,4.4
			c-0.5,0.1-0.7,0.1-1,0.2c-0.5,0.1-1.1,0.1-1.5,0.4c-0.2,0.1-0.5,0.7-0.4,0.9c0.4,0.9,0.2,1.8-0.1,2.6c-0.2,0.5-0.5,0.7-0.9,0.3
			c-0.6-0.5-1.1-0.4-1.7,0c-0.5,0.3-1.1,1.1-1.9,0.2c0.1,0.2,0.1,0.4,0.1,0.4c1.1,1.8,2.1,3.6,3.2,5.3c0.2,0.3,0.6,0.6,0.9,0.8
			c2.4,1.3,4.9,2.6,7.4,3.9c0.7,0.4,1.5,0.7,2.2,1c0.8,0.4,1.5,1,2.3,1.4c0.2,0.1,0.5,0,0.6,0.1c0.3,0.1,0.5,0.3,0.7,0.5
			c0.1,0.1-0.1,0.4-0.2,0.6c-0.5,0.5-0.7,0.8,0.2,1c0.2,0,0.5,0.2,0.7,0.3c-0.1,0.1-0.2,0.2-0.3,0.4c-0.6,0-1.4,0.7-2-0.3
			c-0.3,0.3-0.5,0.5-0.7,0.7c-0.4,0.3-0.9,0.5-1.4,0.7c0,0-0.4-0.3-0.4-0.5c0-1,0-1.9,0.1-2.9c0.2-1.4,0.1-1.6-1.2-2.2
			c-2.5-1.2-5-2.4-7.4-3.5c-0.2-0.1-0.3-0.1-0.7-0.3c0.1,0.4,0.2,0.6,0.3,0.8c1.7,3.5,3.4,6.9,5.2,10.3c0.3,0.6,1,0.9,1.6,1.3
			c-0.3,0.7-0.5,0.7-1.1,0c-0.7-0.9-1.5-1.7-2.2-2.5c-0.1,0.1-0.2,0.1-0.4,0.2c0.2,0.4,0.2,0.9,0.5,1.2c1.1,1.8,2.4,3.5,3.5,5.4
			c1.3,2.2,2.5,4.5,3.7,6.7c0.1,0.1,0.1,0.3,0.2,0.6c-0.8-0.5-1.4-1-2-1.4c-0.1-0.1-0.3-0.2-0.4-0.4c-0.1-0.1-0.1-0.3-0.2-0.4
			c-3.7-3.5-7.3-6.9-11-10.4c-2.2-2.2-4.4-4.4-6.6-6.6c-0.6-0.6-0.7-1.1-0.2-1.8c1.3-1.8,2.5-3.7,3.8-5.5c1.3-1.9,1.4-1.9-0.3-3.4
			c-0.5-0.5-1-0.9-1.7-1.3c0.3,0.4,0.5,0.7,0.8,1.1c0.3,0.4,0.7,0.7,1.1,1.2c-0.3-0.1-0.5-0.2-0.7-0.3c-1.4-1.1-2.8-2.3-4.3-3.3
			c-0.7-0.5-1.6-0.7-2.5-1.1c0,0.7,0,1.1,0,1.6c-0.1,0.4-0.3,0.7-0.3,1.1c-0.1,0.4-0.1,0.7-0.1,1.1c0.3,2.8,0.6,5.7,0.9,8.5
			c0,0,0,0.1-0.1,0.2c-0.3-0.3-0.6-0.5-1.1-0.9c0.1,0.6,0.2,0.9,0.3,1.4c-3.2-2-6.4-4-9.4-5.8c0.2,0,0.5,0.1,1,0.3
			c-4.2-3.1-8.3-6.2-12.5-9.2c-0.1,0.1-0.1,0.2-0.2,0.2c2.6,2,5.2,3.9,7.3,6.4c-2.9-1.8-6-3.2-8.3-5.8c-2.7-3.1-5.8-5.9-8.7-8.9
			c-1-1-1.8-2-2.8-3c0.1,0,0.1-0.1,0.2-0.1c0.3,0.4,0.6,0.7,1,1.1c0.8,0.8,1.7,1.7,2.5,2.5c1,1,1.9,2.1,2.9,3
			c0.4,0.4,0.9,0.5,1.5,0.6c-0.7-0.7-1.4-1.3-2.1-2c-0.5-0.5-1-0.9-1.4-1.4c-0.2-0.2-0.1-0.6-0.2-0.9c-0.4-0.5-0.8-0.9-1.2-1.4
			c0.1-0.1,0.3-0.2,0.4-0.2c0.8,0.1,1.5,0.3,2.3,0.3c-1-0.2-2-0.4-2.9-0.8c-1.3-0.5-2.6-1.2-3.9-1.9c-0.5-0.3-0.5-0.8-0.2-1.2
			c0.6-0.8,1.2-1.7,1.8-2.5c3.9-4.4,7.8-8.8,11.7-13.3c3.3-3.9,7.1-7,11.3-9.9c2.6-1.8,5-3.6,7.4-5.6c2.8-2.2,5.9-3.6,9.2-4.7
			c1.8-0.6,3.4-0.7,5.2-0.2c0.7,0.2,1.3,0.3,2.1,0.3c-1.3-0.3-2.7-0.6-4-0.9c3.3-1.4,6.7-1.7,10.2-1.4c1.4,0.1,2.7-0.1,4.1,0
			c0.8,0,1.6,0.2,2.4,0.2c1.6,0,3.3,0,5.1,0c-0.6-0.2-1-0.4-1.4-0.6c0,0,0-0.1,0-0.1c4,0.1,8,0.3,12,0.4c1.7,0.1,3.4,0,5,0.3
			c2.2,0.4,4.4,1.1,6.5,1.7c1.5,0.4,3.1,0.9,4.5,1.6c1.6,0.8,3.2,1.7,4.6,2.8c3.8,2.7,7.5,5.5,11.2,8.3c0.7,0.5,1.2,1.4,1.8,2.1
			c0.2,0.3,0.5,0.6,0.8,1c-0.3,0.2-0.6,0.4-1,0.6c0.2,1.1,0.6,1.4,1.6,1.2c1-0.1,1.2,0.1,1,1.1c-0.1,0.5-0.1,1-0.1,1.6
			c0.1-0.5,0.2-0.9,0.4-1.5c0.3,0.2,0.4,0.4,0.6,0.5c0.3,0.1,0.7,0.2,1.1,0.3c0-0.4,0.1-0.9,0-1.3c-0.1-0.4-0.5-0.7-0.8-1
			c0.1-0.1,0.1-0.1,0.2-0.2c1.1,1.3,2.2,2.5,3.2,3.8c0.2,0.3,0,0.9,0.2,1.3c0.3,0.5,0.7,0.9,1.1,1.4c0.2,0.3,0.4,0.6,0.6,1
			c-0.3,0.1-0.4,0.1-0.7,0.2c0.7,0.5,1.3,0.9,1.9,1.4c0.5,0.3,1.2,1.9,1.3,2.5c0,0.2,0.2,0.3,0.3,0.5c1,1,2,2,2.9,3
			c0.3,0.3,0.4,0.7,0.5,1.1c0.1,0.2,0.1,0.5,0.2,0.7c0.8,1.3,1.6,2.6,2.5,3.9c0.4,0.6,0.5,1.1,0,1.6c0,0,0,0,0,0
			c-0.4,0.1-0.8,0.2-1.1,0.3C161.4,98.6,160.9,98.8,160.5,99z M65.6,79.8c0.4,1.4,0.8,2.7,1.2,4.1C67,82.4,66.3,81.1,65.6,79.8
			c-0.4-0.9,0.2-0.8,0.8-0.6c-0.2-0.4-0.4-0.7-0.5-1c-0.2-0.5-0.5-1-0.5-1.4c0-0.7-0.4-0.9-0.8-0.7c-0.3,0.1-0.7,0.7-0.6,0.9
			C64.5,77.9,65.1,78.8,65.6,79.8z M101,59.9c-5.6-0.1-11-0.3-16.4-0.4c-0.2,0-0.4,0-0.5,0.1c-2,1.2-3.9,2.4-5.9,3.6
			c-0.4,0.3-0.7,0.7-1.1,1c0.1,0.1,0.1,0.1,0.2,0.2c0.8-0.5,1.6-1,2.5-1.5c0.3,1.1,0.6,2.2,1,3.2c0.7,1.9,1.6,3.8,2.4,5.7
			c0.4,1,2.6,2.5,3.6,2.4c0.3,0,0.6-0.2,0.8-0.4c2.7-2.9,5.5-5.8,8.2-8.8c1.4-1.5,2.7-3,4.2-4.7c0,3.3,0,6.3,0,9.3c0,0,0.1,0,0.1,0
			c0.1-0.5,0.1-1,0.2-1.7c0.7,0.3,1.4,0.4,1.8,0.7c0.5,0.4,0.7,1.2,1.6,0.8c0.1-0.1,0.4,0.1,0.5,0.2c0.1-0.3,0.1-0.6,0.1-0.6
			c1.1-0.3,2.1-0.5,3.3-0.8c-2.5-2.7-4.9-5.4-7.4-8C100.5,60.1,100.7,60,101,59.9z M43.5,100.1c0.7,1.5,1.5,2.6,3,3.3
			c0-0.5-0.1-1-0.1-1.5c0.3,0,0.7-0.1,0.8,0.1c0.6,0.5,1.3,1,1.6,1.7c0.7,1.4,1.9,2.2,3.1,3.1c0.4,0.3,0.8,0.7,1,0.9
			c-0.2,0.5-0.5,0.8-0.4,1c0.2,0.9,2.5,1.9,3.2,1.4c0.6-0.4,1-0.1,1.5,0.2c0.2,0.1,0.4,0.2,0.5,0.3c0.1-0.1,0.2-0.2,0.2-0.2
			c-0.5-0.7-1-1.4-1.6-2.1c-1.2-1.6-2.5-3.1-3.7-4.8c-0.4-0.6-0.9-1-1.6-0.9c-0.8,0-1.4-0.3-1.8-1c-0.3-0.4-0.8-0.8-1.3-0.9
			c-1.1-0.3-2.3-0.4-3.5-0.6C44.3,100.1,44,100.1,43.5,100.1z M129.5,64.5c-0.1,0.5-0.1,0.7-0.1,0.9c-0.1,0.8,0,1.7-0.2,2.5
			c-0.3,0.9,0,1.3,0.7,1.6c1.7,1,3.5,2.1,5.2,3.1c0.5,0.3,0.7,0.1,0.8-0.5c0.2-1.4,0-2.7-0.7-4.1c-1-1.8-2.4-3.2-3.9-4.4
			c-0.1-0.1-0.2-0.1-0.4-0.1c0,0.1-0.1,0.1-0.1,0.2c0.7,0.9,1.5,1.9,2.2,2.8c-0.1,0-0.1,0.1-0.2,0.1
			C131.7,65.9,130.7,65.3,129.5,64.5z M64.2,67.9c0.1,0.5,0.1,0.9,0.2,1.2c0.1,0.2,0.3,0.5,0.4,0.5c0.9-0.4,1.8-0.7,2.7-1.2
			c0.4-0.3,0.7-0.8,1.1-1.3c1.2-1.6,2.3-3.3,4.2-4.1c1.1-0.5,1.9-1.2,1.3-2.6c0-0.1,0-0.2,0.1-0.5c-0.8,0.3-1.5,0.6-2.1,0.9
			c0,0.1,0,0.1,0.1,0.2c0.2,0,0.4,0,0.8-0.1c-1.8,1.2-3.5,2.3-5.2,3.4c-0.1-0.1-0.1-0.1-0.2-0.2c0.5-0.5,1-0.9,1.6-1.4
			c-0.1-0.1-0.1-0.1-0.2-0.2c-1.9,2.2-3.7,4.3-5.6,6.5c-0.1-0.1-0.2-0.2-0.3-0.3C63.3,68.6,63.7,68.3,64.2,67.9z M75.6,104.1
			c-0.1,0.1-0.2,0.2-0.3,0.3c0.5,0.7,0.9,1.5,1.5,2.2c0.3,0.4,0.9,0.8,1.3,1.2c0.5,0.5,0.9,0.4,1.1-0.2c0.1-0.3,0.2-0.8,0-1.1
			c-0.3-0.8-0.7-1.5-1.2-2.2c-0.5-0.8-0.8-0.9-1.5-0.2c0.1,0.3,0.2,0.5,0.3,0.8c-0.1,0.1-0.2,0.1-0.2,0.2
			C76.2,104.7,75.9,104.4,75.6,104.1z M129.2,87.5c0.7-0.7,0.2-1.4-0.1-2c-0.4-0.8-0.5-1.6-0.4-2.5c0.2-1.3,0.2-2.7,0.3-4.1
			c0-0.3-0.1-0.5-0.1-0.8c-0.3,0.2-0.4,0.3-0.4,0.5c-0.3,1.7-0.7,3.3-0.7,5C127.8,85,127.7,86.5,129.2,87.5z M64.1,119
			c0.5-0.6,1-0.8,1.6-0.1c0.1,0.1,0.4,0.1,0.6,0.1c0,0,0.1-0.4,0.1-0.4c-0.7-0.5-1.3-1-2-1.3c-0.7-0.3-1.5-0.3-2.1-0.7
			c-0.9-0.6-1.9-0.7-2.8-0.9c0,0.1-0.1,0.2-0.1,0.3C60.8,116.9,62.4,117.9,64.1,119z M144,74.7c-0.1-1-0.1-1.7-0.2-2.4
			c0-0.2-0.2-0.4-0.4-0.6c-0.5-0.4-1.1-0.8-1.7-1.1c-0.2-0.1-0.5-0.1-0.7-0.1c0,0.2,0,0.5,0.1,0.7c0.7,1,1.4,2,2.1,3
			C143.4,74.5,143.7,74.5,144,74.7z M52.8,80.9c0.8-0.4,1.7-0.6,2-1.6c0.2-0.9,0.6-1.8-0.3-2.6C53.7,78,52.6,79.1,52.8,80.9z
			 M75.2,65.8c-0.8,0.6-1.5,1.2-2.4,1.9c1.1,0.4,2.1,1.1,2.9,0.5c0.7-0.5-0.1-1.4-0.3-2.2C75.4,66,75.4,65.9,75.2,65.8z M53.9,112
			c0.1-0.1,0.1-0.2,0.2-0.2c-0.7-1-6-5.3-7-5.2C49.4,108.4,51.6,110.2,53.9,112z M93.6,58.8c4.2,0,8.4,0,12.6,0
			C101.9,58.9,97.7,57.5,93.6,58.8z M134.3,79.7c0.1,0,0.2,0.1,0.2,0.1c0.4-0.3,0.8-0.6,1.2-0.9c0.2-0.2,0.6-0.3,0.7-0.5
			c0-0.3-0.1-1-0.3-1c-0.8-0.1-0.4-0.5-0.3-0.9c0.1-0.1,0-0.3,0-0.5c-0.1,0-0.2,0-0.2,0C135.2,77.3,134.7,78.5,134.3,79.7z
			 M123.1,62.4c-0.6-0.5-1.1-1-1.6-1.3c-0.4-0.3-0.8-1-1.3-0.4c-0.6,0.7,0.3,0.9,0.7,1.2C121.5,62.4,122,63.2,123.1,62.4z M61,104.9
			c0.1-0.1,0.2-0.1,0.3-0.2c0.1-2.1-0.2-2.1-2.4-2.3C59.7,103.3,60.3,104.1,61,104.9z M140.4,77.6c-0.2-0.3-0.4-0.7-0.6-0.9
			c-0.3-0.2-0.7-0.2-1-0.3c-0.1,0.4-0.3,0.8-0.2,1.2c0.1,0.2,0.6,0.5,0.9,0.5C139.8,78.1,140.1,77.8,140.4,77.6z M68.7,109.2
			c-0.6,0.7-0.9,1.2-1.3,1.7c-0.1,0.2-0.2,0.5-0.3,0.8c0,0,0.3,0.2,0.4,0.2c0.5-0.3,1.1-0.5,1.3-0.9C69,110.4,68.7,109.8,68.7,109.2
			z M118.5,63.9c0.9-1.2,0.8-1.7-0.4-2.1C117.3,63.2,117.3,63.2,118.5,63.9z M79.2,66.6c0.4-0.3,0.7-0.5,1-0.7
			c-0.4-0.3-0.7-0.7-1.2-0.9c-0.2-0.1-0.6,0.3-0.9,0.5C78.5,65.9,78.8,66.2,79.2,66.6z M131.8,78.8c0.9-0.2,1.4-1.1,1.2-2.6
			C132.3,76.9,132.3,77.9,131.8,78.8z M132.7,80.1c0.1,0,0.3,0.1,0.4,0.1c0.5-1.3,1-2.7,1.5-4c-0.1,0-0.2-0.1-0.4-0.1
			C133.8,77.5,133.3,78.8,132.7,80.1z M42.4,99.7c-0.1,0.1-0.1,0.1-0.2,0.2c0.5,1.1,0.9,2.1,1.4,3.2c0.2-1.1-0.8-1.9-0.3-3.1
			C43,99.9,42.7,99.8,42.4,99.7z M126.2,88.1c-0.1,0-0.2,0.1-0.2,0.1c0.2,0.7,0.4,1.4,0.6,2.2C127.4,89.6,127.2,88.7,126.2,88.1z
			 M67.1,86.5c0.1,0.5,0.2,1,0.4,1.4c0.1,0,0.2,0,0.3,0c0-0.6,1.1-0.9,0.3-1.7C67.7,86.3,67.5,86.4,67.1,86.5z M63.7,115
			c0.1-0.1,0.2-0.1,0.4-0.2c-0.1-0.5-0.3-1-0.4-1.4c0-0.1-0.3-0.2-0.4-0.2c-0.1,0.1-0.3,0.4-0.3,0.4C63.2,114.1,63.5,114.5,63.7,115
			z M43,103.2c0.1-0.1,0.1-0.1,0.2-0.2c-0.7-0.7-1.5-1.4-2.2-2.1c-0.1,0.1-0.2,0.2-0.3,0.3C41.5,101.9,42.2,102.6,43,103.2z
			 M62.6,78.3c0.1,0,0.2-0.1,0.3-0.1c-0.4-1-0.8-2.1-1.2-3.1c-0.1,0.1-0.3,0.1-0.4,0.2C61.7,76.3,62.2,77.3,62.6,78.3z M129.3,61.7
			c0-0.1,0.1-0.2,0.1-0.3c-1.3-0.4-2.5-0.9-3.8-1.3c0,0.1-0.1,0.2-0.1,0.2C126.8,60.7,128.1,61.2,129.3,61.7z M127.7,84.7
			c-0.1,0-0.2,0-0.3,0c-0.2,0.8-1,1.4-0.6,2.3c0.1,0,0.2,0,0.3,0.1C127.3,86.3,127.5,85.5,127.7,84.7z M118.8,77.7
			c-0.1,0-0.2,0-0.3,0.1c0.2,1,0.5,2,0.7,2.9c0.1,0,0.2,0,0.3-0.1C119.3,79.7,119.1,78.7,118.8,77.7z M100.4,57.4c0,0.1,0,0.1,0,0.2
			c0.7,0,1.4,0,2.1,0c0-0.1,0-0.1,0-0.2C101.8,57.4,101.1,57.4,100.4,57.4z M52.6,79.5c-0.1,0-0.2,0-0.3,0c0,0.7-0.1,1.4-0.1,2
			c0.1,0,0.2,0,0.3,0C52.5,80.9,52.6,80.2,52.6,79.5z M121.4,58.8c0.3,1.2,0.3,1.2,1.1,1.2C122.1,59.5,121.8,59.2,121.4,58.8z
			 M124.8,66.5c-0.1,0-0.1,0.1-0.2,0.1c0.1,0.3,0.2,0.6,0.4,0.7c0.2,0.1,0.5,0,0.7-0.1c0-0.1,0-0.1,0-0.2
			C125.5,66.9,125.1,66.7,124.8,66.5z"/>
		<path d="M140.2,117.3c-0.7,0.4-1.3,0.8-1.9,1.2c-0.8,0.6-1.7,1.2-2.5,1.7c0,0,0,0,0,0c-0.2-0.4-0.4-0.7-0.7-1.2
			c-0.7,0.2-1.6,0.4-2.6,0.7c0.1-0.3,0.2-0.6,0.3-0.8c0,0-0.1,0-0.1-0.1c-0.3,0.6-0.6,1.1-0.9,1.7c-0.2-0.2-0.4-0.4-0.6-0.4
			c-0.8-0.2-0.9-0.7-0.9-1.4c0-1.1,0.3-1.7,1.3-2.1c0.7-0.3,1.2-0.7,1.9-1.1c-0.3-0.6-0.6-1.1-0.9-1.6c-0.1-0.2-0.4-0.5-0.5-0.4
			c-0.9,0.3-1.2-0.3-1.5-0.9c-0.1,0-0.1,0-0.2,0c-0.1,1.2-0.1,2.4-0.2,3.5c0,0-0.1,0-0.1,0c-0.2-0.8-0.5-1.7-0.5-2.5
			c0-0.8,0.4-1.5,0.7-2.4c-1.4,0-2.7,0-4,0c-0.1,0-0.4,0.4-0.3,0.6c0.1,0.4,0.3,0.8,0.4,1.2c0.7,1.7,1.4,3.4,2,5
			c0.1-0.3,0.1-0.8,0.3-1.2c0.1-0.2,0.3-0.4,0.4-0.5c0.1,0.2,0.4,0.4,0.4,0.6c-0.3,0.9-0.6,1.9-0.9,2.8c-0.2,0.4-0.5,0.8-0.6,1.2
			c-0.2,0.8-0.3,1.6-0.4,2.4c-0.2,0.9-0.5,1.6-1.3,2.3c-0.6,0.6-1.8,1-1.7,2.2c0,0.2-0.3,0.4-0.5,0.6c-1.6,1.5-3.3,3.1-4.9,4.6
			c-0.5,0.5-0.9,1-1.3,1.5c-0.4,0.4-1,0.7-1.4,1c-1.3,1-2.6,1.9-3.9,2.9c-0.1,0.1-0.2,0-0.4-0.1c0.6-0.5,1.3-1.1,1.9-1.6
			c-0.1-0.1-0.2-0.2-0.2-0.3c-0.2,0.1-0.4,0.2-0.5,0.3c-1.6,1.4-3.2,2.8-4.9,4.2c-0.2,0.2-0.5,0.3-0.7,0.4c-0.8,0.5-1.5,1-2.2,1.5
			c0.2-0.6,0.5-1.3,0.9-2.1c-0.3,0-0.5,0-0.6,0c-0.1-0.9-0.3-1.9-0.3-2.8c0-0.3,0.5-0.7,0.9-0.8c0.7-0.1,1.4-0.1,1.7-1
			c0.6-1.4,1.3-2.6,2-4c-0.3,0-0.6,0.1-0.7,0c-0.9-0.7-2-0.7-3.1-0.8c-1-0.1-1.6-0.6-1.8-1.6c-0.2-1-0.7-1.9-0.9-2.9
			c-0.1-0.4,0.1-1,0.4-1.3c0.1-0.2,0.7,0,1.1,0.1c1.3,0.4,1.7,1.6,2.3,2.7c0.3,0.6,0.6,1.2,1,1.9c0.7-0.9,0.5-5.2-0.2-6.4
			c1.4-0.6,2.8-1.3,4.2-1.9c1.1-0.4,2.2-0.7,3.3-1.1c0.3-0.1,0.6-0.4,0.7-0.7c0.4-0.7,0.8-1.4,1.2-2.2c-2.8,1.4-5.4,2.8-8.1,4.1
			c-0.8,0.4-1.7,0.7-2.6,0.9c-0.7,0.2-1-0.1-0.8-0.8c0.3-0.8,0.7-1.7,0.9-2.3c0.6,0.2,1,0.4,1.4,0.4c0.3-0.1,0.6-0.5,1-0.8
			c-0.9-0.4-0.9-0.6-0.3-1.8c-0.4,0.1-0.7,0.1-1,0.2c0-0.1-0.1-0.1-0.1-0.2c0.7-0.8,1.3-1.7,2.1-2.4c1.3-1.2,2.7-2.3,3.9-3.4
			c0.6-0.5,1.4-1.2,1.4-1.8c0-1.1,0.8-1.5,1.3-2.2c0.6-0.7,1.3-1.3,2-2c0.1,0,0.2,0,0.3-0.1c0.1,0.1,0.2,0.3,0.2,0.4
			c-0.2,1.1,0.7,1.3,1.3,1.7c0.4,0.3,0.9,0.5,1.4,0.8c1-0.6,2.1-1.2,3.2-1.9c0.2-0.1,0.5-0.2,0.7-0.1c0.8,0.3,1.6,0.6,2.2,0.8
			c0.7,0.5,1.2,1,1.8,1.2c0.5,0.2,0.7,0.4,0.6,0.9c-0.1,0.6,0,1.2,0,1.8c0.1,0,0.2,0,0.2,0c0-2.1,0-4.1,0-6.2c0.1,0,0.2,0,0.4,0
			c0,0.2,0,0.4,0.1,0.6c0,0.2,0.1,0.4,0.1,0.6c0.1,0,0.2,0.1,0.3,0.1c0.2-0.4,0.5-0.8,0.5-1.1c-0.1-0.3-0.6-0.5-1.1-0.9
			c0,0-0.2-0.5-0.4-0.5c-0.7,0.1-1.6-0.6-2.1,0.2c-0.7-0.1-1.4-0.2-2.2-0.3c0.2-0.1,0.3-0.3,0.5-0.4c-0.3-0.1-0.5-0.2-0.7-0.3
			c0,0,0.1,0,0.2-0.1c1.3-0.2,2.6-0.5,3.9-0.7c0.9-0.2,1.3,0.2,1.3,1.3c0.8-0.2,1.5-0.2,2.2-0.5c1.5-0.6,3.2-0.8,4.8-0.9
			c3.2-0.3,6.4-0.6,9.6-0.8c-0.6,0.6-2,0.8-1.7,2.5c1.1-0.7,2-1.3,2.5-2.3c0.1-0.2,0.3-0.4,0.5-0.4c2.3-0.5,4.6-0.9,7-1.3
			c0.4-0.1,0.9-0.1,1.4-0.1c0.1,0.1,0.1,0.2,0.2,0.3c-0.4,0.6-0.8,1.2-1.1,1.7c-0.3,0.2-0.7,0.4-1,0.7c-0.2-0.1-0.4-0.2-0.6-0.3
			c-0.5,1.3-2,2.1-3.1,3.1c-2.9,2.6-5.9,5.1-8.8,7.6c-0.1,0.1-0.2,0.3-0.3,0.5c0.9-0.5,1.7-0.9,2.7-1.4c0.5,0.7,0.4,1.2-0.2,1.7
			c-0.4,0.3-0.7,0.6-1,0.9c-0.3,0.1-0.7,0-1,0.2c-0.9,0.5-1.9,1.1-2.8,1.8C140.2,116.8,140.2,117.1,140.2,117.3z M118.3,116.1
			c0,0.1,0.1,0.1,0.1,0.2c2-1.6,3.9-3.2,5.9-4.8c0-0.1-0.1-0.1-0.1-0.2c-1,0-2,0-3,0c0.2-0.6,0.4-1.2,0.6-1.8
			c-0.1-0.1-0.2-0.2-0.3-0.2c-0.5,0.2-1,0.4-1.7,0.6c0,0-0.2-0.1-0.3-0.2c-0.2,0.3-0.3,0.5-0.5,0.6c-0.5,0.4-1.1,0.6-1.6,1
			c-1.1,0.7-2.4,1.2-3.1,2.2c-0.8,1.2-1.9,1.9-3,2.7c-0.5,0.4-0.8,1-1.2,1.6c0.1,0.1,0.1,0.2,0.2,0.3c0.6-0.1,1.1-0.2,1.8-0.4
			c0.5,0.5,1.1,0,1.5-0.4c1.4-1.5,3.5-1.4,5.1-2.5C118.7,115.2,118.5,115.6,118.3,116.1z M131.5,110.4c0.7-0.3,1.4-0.6,2-1
			c1.2-0.6,2-1.5,2.1-2.9c0-0.6-0.4-0.8-0.7-0.9c-0.4-0.1-0.8-0.7-1.3-0.1C132.4,106.9,131.5,108.3,131.5,110.4z M135.3,113.1
			c1.8-0.2,4.2-3.9,3.4-5.2C137.3,109.5,136,111,135.3,113.1z M140.2,110.9c-2.2,2-2.4,3.2-1.1,4.9c0.6-0.3,1.4-0.6,1.4-1.5
			c0-0.1-0.5-0.3-0.9-0.6C139.7,112.9,140,111.9,140.2,110.9z M141.9,106.2c0.1,0.1,0.2,0.1,0.2,0.2c1-1.1,2.2-2,2.7-3.5
			c-0.1-0.1-0.1-0.1-0.2-0.2C143.8,103.8,142.9,105,141.9,106.2z M105.6,140.3c0.9-0.4,1.2-1.1,0.6-1.7
			C106,139.2,105.8,139.7,105.6,140.3z"/>
		<path d="M131.2,92.5c0.8-1.8,1.6-3.4,2.4-5.1c0.2-0.5,0.6-0.4,1-0.3c3.8,1.1,7.6,2.1,11.4,3.2c0.7,0.2,1.1,0.2,1.6-0.4
			c0.4-0.5,1-0.8,1.5-1.2c0.8-0.8,0.8-1,0.2-1.9c2.2,2.4,4.4,4.8,6.7,7.2c-0.4-0.2-0.7-0.3-0.9-0.4c-1,0.8-0.9,1.6-0.5,2.6
			c0.4,0.9,0.5,1.9,0.8,3c-1.1,0-2,0-2.9,0c-0.9,0-1.6-0.5-2.1-1.1c-0.5-0.6-0.9-1.4-1.4-2c-0.5,0.5-1.5,0.2-2.5-0.9
			c0,0.4,0,0.6,0.1,0.9c-0.3-1.1-1.2-0.5-1.8-0.7c-0.7-0.2-1.5,0.1-2.3,0.1c-0.7,0-1.5-0.2-2.2,0.1c-1,0.4-1.8,0.1-2.6-0.3
			c-0.4-0.2-0.8-0.6-1.1-1c-0.3-0.4-0.4-0.7-1.1-0.7c-0.6,0-1.3-0.5-1.9-0.9C132.9,92.1,132,92,131.2,92.5z"/>
		<path d="M91.3,142.4c0.1,0.1,0.3,0.2,0.4,0.4c0.3,0.3,0.6,0.6,1,1c-0.8,0-1.6,0-2.4,0c0,0.1-0.1,0.1-0.1,0.2
			c0.5,0.4,0.9,0.8,1.4,1.2c1.1,0.4,2.2,0.7,3.3,1.1c0,0.1-0.1,0.2-0.1,0.3c-0.7-0.2-1.5-0.4-2.4-0.7c0.3,0.4,0.5,0.7,0.7,1
			c-1.1,0-2.1-0.6-2-1.2c-2-1-2.2-1-3.1-0.2c0.4,0.5,0.8,0.9,1.1,1.3c-0.1,0-0.4,0-0.4,0c0.2,0.2,0.4,0.4,0.7,0.7
			c-0.1,0.1-0.2,0.2-0.3,0.3c-6.7-4.8-12.7-10.4-19-15.7c0.1-0.1,0.1-0.2,0.2-0.3c0.3,0.4,0.7,0.9,1,1.3c0.1-0.1,0.1-0.1,0.2-0.2
			c-0.3-1.4-0.5-2.7-0.8-4.1c-0.1-0.2-0.3-0.4-0.5-0.6c-0.4-0.4-0.8-0.8-1.2-1.2c0.1-0.1,0.2-0.2,0.2-0.3c0.5,0.3,0.9,0.6,1.4,0.9
			c0.1-1.9-1.5-2.6-2.4-3.8c0-0.1,0.1-0.1,0.1-0.2c0.4,0.3,1,0.4,1.2,0.8c1.3,2,3.5,3.1,5.2,4.7c2.2,2.1,4.6,4,6.9,6
			c0.1,0.1,0.1,0.2,0.2,0.3c-2.1-1.2-4.1-2.3-6.1-3.4c-0.1,0.1-0.1,0.2-0.2,0.3c0.3,0.3,0.7,0.5,1,0.8c1.5,0.9,3.1,1.8,4.7,2.8
			c3.1,2,6.2,4.1,9.3,6.2C90.8,142.2,91.1,142.3,91.3,142.4z M81,140.5c0,0.1-0.1,0.3-0.1,0.4c1.4,0.2,2.5,1.4,4,1.2
			c0-0.1,0.1-0.2,0.1-0.3C83.6,141.4,82.3,141,81,140.5z"/>
		<path d="M135.7,120.2C135.7,120.2,135.7,120.2,135.7,120.2c1.6-0.9,3.3-1.7,5-2.6c1.8-1,3.5-2.1,5.3-3.1c0.3-0.2,0.6-0.3,0.8-0.4
			c0.1,0.1,0.1,0.2,0.2,0.3c-0.7,0.5-1.5,0.9-2.2,1.4c-1.5,0.9-3,1.8-4.5,2.8c-0.9,0.6-1.8,1.2-2.7,1.9c-1.6,0.5-2.8,1.7-4,2.8
			c1.6-0.6,3-1.4,4-2.9c1.8-0.5,3.4-1.5,4.9-2.5c0.4-0.3,0.8-0.5,1.1-0.7c0.1,0.1,0.1,0.1,0.2,0.2c-0.1,0.2-0.2,0.5-0.4,0.7
			c-1.6,1.2-3.1,2.3-4.7,3.5c-1.1,0.8-2.2,1.6-3.4,2.3c-1.8,1.1-3.7,2.1-5.5,3.3c-0.7,0.4-1.3,1.2-1.6,1.9c-0.4,1.2-0.4,2.6-0.6,3.8
			c0,0.2-0.1,0.4-0.3,0.5c-2.1,1.6-4.2,3.3-6.4,4.8c-0.9,0.6-2.1,0.8-3.4,1.3c1.2-1.5,2.3-2.8,3.4-4c-0.1-0.1-0.2-0.2-0.2-0.4
			c-1.1,1.4-2.8,1.3-4.2,1.9c0-0.1-0.1-0.1-0.1-0.2c1.9-1.4,3.8-2.8,5.8-4.1c0.6-0.4,1.1-0.8,2-0.7c0.3,0.1,0.8-0.5,1.2-0.7
			c0.1-0.1,0.3,0,0.5,0c0.7-1.3,1.4-2.7,0.7-4c0.9-1,1.8-1.8,2.6-2.6c0.1,0,0.1,0.1,0.2,0.1c-0.1,0.7-0.1,1.5-0.2,2.1
			c0.8-1.1,1.7-2.2,2.6-3.3c-0.1,0-0.3-0.2-0.8-0.5c0.7-0.5,1.3-0.9,1.9-1.3c0.8-0.5,1.5-1.1,2.3-1.6
			C135.1,120.3,135.4,120.3,135.7,120.2z"/>
		<path d="M84.7,116c0.7-1.2,1.8-0.5,2.7-0.7c-0.4-0.6-0.7-1.2-1.1-1.8c0.4-0.2,0.8-0.4,1.3-0.7c1.4,1.6,2.8,3.2,4.3,4.9
			c0.4,0.5,0.8,1.1,1.3,1.5c0.7,0.7,1.2,1.4,0.5,2.3c0.3,0.4,0.6,0.7,0.9,1.1c-1.9,0.9-3.5,0.1-4.8-0.9c-1.5-1.2-2.6-2.8-3.8-4.3
			c-0.1-0.1-0.1-0.3,0-0.6c0.5,0.3,1,0.5,1.5,0.8c1.5,1,2.9,2,4.4,2.9c0.5,0.3,0.8,0.2,0.8-0.5c0-1.1-0.2-1.4-1.2-1.8
			c-0.7-0.3-1.3-0.8-2-1C87.9,116.7,86.6,115.5,84.7,116z"/>
		<path d="M63.2,100.2c0.3-0.5,0.6-0.8,0.8-1.1c-0.1-0.2-0.3-0.4-0.2-0.6c0-0.2,0.2-0.5,0.3-0.6c1.8-1.5,3.4-3.2,5.5-4.2
			c0.1,0,0.2,0,0.4,0c-0.1,0.6-0.1,1.2-0.3,1.9c-0.3,1.9-0.7,3.7-1,5.6c-0.1,0.7-0.4,0.8-1.1,0.9C65.9,102,64.6,100.8,63.2,100.2z"
			/>
		<path d="M163,98.1C163,98.1,163,98.1,163,98.1c0.3-0.1,0.6-0.3,0.9-0.4c0.1,0.1,0.1,0.1,0.2,0.2c-3.8,3.8-7.5,7.6-11.3,11.4
			c-0.1,0-0.1-0.1-0.2-0.1c0.1-0.2,0.3-0.5,0.4-0.7c0,0,0-0.1-0.1-0.1c-0.2,0.2-0.4,0.3-0.6,0.5c-0.1,0-0.1-0.1-0.2-0.1
			c0.4-0.6,0.8-1.3,1.1-1.9c0,0-0.1,0-0.1-0.1c-1.3,0.9-2.5,1.9-3.8,2.8c0-0.7,2.3-2.6,4.7-4.2c-0.2,0.7-0.3,1.3-0.4,1.9
			c0.4-0.3,0.7-0.5,1.1-0.8c-0.1-0.2-0.2-0.4-0.4-0.7c0.7-0.4,1.4-0.7,2-1.2c2.2-1.9,4.3-3.9,6.4-5.9
			C162.9,98.6,162.9,98.3,163,98.1z"/>
		<path d="M155.4,102.7c0.3-0.2,0.7-0.4,1-0.7c0.2,0,0.5,0,0.8,0.1c1-0.9,2.1-2,3.3-3.1c0.5-0.2,0.9-0.4,1.4-0.6
			c0.1,0,0.3,0,0.4,0.1c-0.1,0.2-0.1,0.4-0.3,0.5c-1,0.9-1.9,1.9-3,2.7c-1.2,0.9-2.6,1.5-3.9,2.3c-0.4,0.2-0.7,0.6-0.9,0.8
			C154,103.9,154.5,103.2,155.4,102.7z"/>
		<path d="M95,137.2c-0.2,0.1-0.4,0.2-0.7,0.4c-0.3-1.3,0.5-2.2,0.6-3.3c0.7,0.5,1.3,0.9,1.9,1.2c0.7,0.4,0.4,0.9,0.3,1.4
			c-0.1,0.4-0.4,0.9-0.7,0.9c-0.4,0.1-0.9-0.3-1.3-0.4C95,137.3,95,137.3,95,137.2z"/>
		<path d="M99.1,130.2c1,1.4,0.5,3.7-0.9,4.8C97.8,134.2,98.4,130.9,99.1,130.2z"/>
		<path d="M91,132.2c0.4,0.1,0.8,0.2,1.2,0.3c0.1,0,0.2,0.1,0.3,0c0.8-0.3,0.9-0.1,0.9,0.7c0,0.5,0.1,0.9,0.1,1.4
			c0,0.3-0.2,0.6-0.4,1.1c-0.9-1.1-1.6-2.1-2.3-3.1C90.9,132.4,91,132.3,91,132.2z"/>
		<path d="M128,107c-0.9-0.5-1.7-1-2.5-1.5c0.7-0.7,2.5-0.8,3-0.1C129,106,128.4,106.5,128,107z"/>
		<path d="M91.4,138.4c-0.6-1.1-1.1-2.2-1.7-3.3c0.1-0.1,0.1-0.2,0.2-0.2c0.9,0.7,1.8,1.3,2.8,2.1C92.3,137.5,91.9,137.9,91.4,138.4
			z"/>
		<path d="M96.6,129.3c0.9,0.9,0.2,3.2-1.3,4.2C95.7,132.1,96.1,130.7,96.6,129.3z"/>
		<path d="M65,122.4c-0.6,0.5-1,0.3-1.5-0.2c-0.4-0.3-0.8-0.5-1.3-0.8c0.3,0,0.5,0,1,0c-0.9-0.6-1.7-1.1-2.5-1.7
			C62,120,64.3,121.4,65,122.4z"/>
		<path d="M98.8,126.8c-0.7-0.3-1.3-0.5-2-0.8c0.3-0.5,0.6-1,0.9-1.5C98.7,125,99.1,126.2,98.8,126.8z"/>
		<path d="M66.8,125.7c-1.9-1.1-3.8-2.3-5.7-3.4c0.1-0.1,0.1-0.2,0.2-0.3c1.9,1.1,3.8,2.3,5.7,3.4C67,125.4,66.9,125.5,66.8,125.7z"
			/>
		<path d="M98.1,146c-0.3,0.2-0.6,0.3-0.9,0.5c-0.5,0.2-1.1-0.2-1.2-0.9c0-0.5-0.1-0.7-0.5-0.3c0.2-0.6,0.2-0.6,1.2-0.4
			c0,0.2-0.1,0.3-0.1,0.4c0.5,0.2,1,0.3,1.5,0.5C98.1,145.8,98.1,145.9,98.1,146z"/>
		<path class="st4" d="M140.2,117.3c0-0.2,0-0.5,0.2-0.6c0.9-0.6,1.8-1.2,2.8-1.8c0.3-0.2,0.6-0.1,1-0.2
			C142.8,115.6,141.5,116.5,140.2,117.3z"/>
		<path d="M101.3,137c0-0.9-0.1-1.6-0.1-2.3c0.9,0.3,1.1,0.9,1.2,1.6C102.4,136.4,101.8,136.6,101.3,137z"/>
		<path d="M38.7,98.9c0.4,0.5,0.8,1,1.2,1.4c-0.5,0.7-0.7,0-1-0.2c-0.3-0.3-0.6-0.7-1-1.2C38.2,98.9,38.4,98.9,38.7,98.9z"/>
		<path d="M102.3,146.5c0-1.3,0.8-2.7,1.9-3.3C103.6,144.4,103,145.4,102.3,146.5z"/>
		<path d="M54.8,115.8c0.9,0.5,1.9,1,2.8,1.5c-0.1,0.1-0.1,0.2-0.2,0.3c-0.9-0.5-1.9-1-2.8-1.5C54.7,116,54.7,115.9,54.8,115.8z"/>
		<path d="M66.7,95.3c-1.3,0.5-2.6,1.1-4,1.6c0-0.1,0-0.1-0.1-0.2c1.3-0.5,2.6-1.1,4-1.6C66.6,95.2,66.6,95.3,66.7,95.3z"/>
		<path d="M103.4,136.5c-0.1-0.6-0.2-0.9-0.3-1.4C104.1,135.4,104.1,135.7,103.4,136.5z"/>
		<path d="M99.5,126.2c0.2-0.6,0.3-1.1,0.5-1.7c0.1,0,0.1,0,0.2,0c-0.1,0.6-0.2,1.2-0.3,1.8C99.8,126.3,99.7,126.3,99.5,126.2z"/>
		<path class="st4" d="M101,59.9c-0.3,0.2-0.4,0.3-0.7,0.4c2.4,2.6,4.8,5.3,7.4,8c-1.2,0.3-2.2,0.5-3.3,0.8c0,0-0.1,0.3-0.1,0.6
			c-0.2-0.1-0.4-0.2-0.5-0.2c-0.9,0.3-1.1-0.4-1.6-0.8c-0.4-0.4-1.1-0.5-1.8-0.7c-0.1,0.7-0.2,1.2-0.2,1.7c0,0-0.1,0-0.1,0
			c0-3,0-6,0-9.3c-1.5,1.7-2.9,3.2-4.2,4.7c-2.7,2.9-5.5,5.8-8.2,8.8c-0.2,0.2-0.5,0.4-0.8,0.4c-1,0.1-3.2-1.5-3.6-2.4
			c-0.8-1.9-1.6-3.8-2.4-5.7c-0.4-1-0.6-2.1-1-3.2c-0.9,0.5-1.7,1-2.5,1.5c-0.1-0.1-0.1-0.1-0.2-0.2c0.4-0.3,0.7-0.7,1.1-1
			c1.9-1.2,3.9-2.4,5.9-3.6c0.1-0.1,0.3-0.1,0.5-0.1C90,59.6,95.4,59.7,101,59.9z"/>
		<path class="st4" d="M43.5,100.1c0.5,0,0.8,0,1.1,0c1.2,0.2,2.3,0.3,3.5,0.6c0.5,0.1,1,0.5,1.3,0.9c0.5,0.7,1,1,1.8,1
			c0.8,0,1.2,0.3,1.6,0.9c1.2,1.6,2.4,3.2,3.7,4.8c0.5,0.7,1,1.4,1.6,2.1c-0.1,0.1-0.2,0.2-0.2,0.2c-0.2-0.1-0.4-0.2-0.5-0.3
			c-0.5-0.3-0.8-0.6-1.5-0.2c-0.7,0.5-3-0.6-3.2-1.4c-0.1-0.2,0.2-0.6,0.4-1c-0.3-0.2-0.6-0.6-1-0.9c-1.3-0.8-2.5-1.6-3.1-3.1
			c-0.3-0.7-1-1.2-1.6-1.7c-0.2-0.1-0.5-0.1-0.8-0.1c0,0.5,0.1,1,0.1,1.5C45,102.8,44.2,101.6,43.5,100.1z"/>
		<path class="st4" d="M129.5,64.5c1.2,0.8,2.2,1.5,3.3,2.1c0.1,0,0.1-0.1,0.2-0.1c-0.7-0.9-1.5-1.9-2.2-2.8c0-0.1,0.1-0.1,0.1-0.2
			c0.1,0,0.3,0,0.4,0.1c1.5,1.3,2.9,2.6,3.9,4.4c0.7,1.3,0.9,2.6,0.7,4.1c-0.1,0.5-0.3,0.8-0.8,0.5c-1.7-1-3.5-2.1-5.2-3.1
			c-0.6-0.4-0.9-0.8-0.7-1.6c0.2-0.8,0.1-1.6,0.2-2.5C129.3,65.2,129.4,65,129.5,64.5z"/>
		<path class="st4" d="M64.2,67.9c-0.6,0.4-0.9,0.6-1.2,0.9c0.1,0.1,0.2,0.2,0.3,0.3c1.9-2.2,3.7-4.3,5.6-6.5
			c0.1,0.1,0.1,0.1,0.2,0.2c-0.5,0.5-1,0.9-1.6,1.4c0.1,0.1,0.1,0.1,0.2,0.2c1.7-1.1,3.3-2.2,5.2-3.4c-0.4,0-0.6,0.1-0.8,0.1
			c0-0.1,0-0.1-0.1-0.2c0.7-0.3,1.3-0.5,2.1-0.9c-0.1,0.2-0.1,0.4-0.1,0.5c0.6,1.4-0.2,2.1-1.3,2.6c-1.9,0.9-3,2.6-4.2,4.1
			c-0.3,0.4-0.6,1-1.1,1.3c-0.8,0.5-1.8,0.8-2.7,1.2c-0.1,0-0.3-0.3-0.4-0.5C64.3,68.8,64.3,68.4,64.2,67.9z"/>
		<path class="st4" d="M75.6,104.1c0.3,0.3,0.6,0.6,0.9,0.9c0.1-0.1,0.2-0.1,0.2-0.2c-0.1-0.3-0.2-0.5-0.3-0.8
			c0.8-0.6,1-0.6,1.5,0.2c0.4,0.7,0.8,1.4,1.2,2.2c0.1,0.3,0.1,0.8,0,1.1c-0.2,0.6-0.7,0.7-1.1,0.2c-0.4-0.4-0.9-0.7-1.3-1.2
			c-0.5-0.7-1-1.4-1.5-2.2C75.4,104.3,75.5,104.2,75.6,104.1z"/>
		<path class="st4" d="M129.2,87.5c-1.5-1-1.4-2.5-1.4-3.8c0.1-1.7,0.5-3.3,0.7-5c0-0.2,0.1-0.4,0.4-0.5c0,0.3,0.1,0.5,0.1,0.8
			c-0.1,1.4-0.1,2.7-0.3,4.1c-0.1,0.9,0,1.7,0.4,2.5C129.4,86.1,129.9,86.7,129.2,87.5z"/>
		<path class="st4" d="M64.1,119c-1.6-1.1-3.2-2.1-4.8-3.1c0-0.1,0.1-0.2,0.1-0.3c1,0.2,1.9,0.3,2.8,0.9c0.6,0.4,1.4,0.4,2.1,0.7
			c0.7,0.4,1.4,0.9,2,1.3c0.1,0-0.1,0.4-0.1,0.4c-0.2,0-0.5,0-0.6-0.1C65,118.2,64.6,118.4,64.1,119z"/>
		<path class="st4" d="M144,74.7c-0.3-0.2-0.6-0.2-0.8-0.4c-0.7-1-1.4-2-2.1-3c-0.1-0.2-0.1-0.5-0.1-0.7c0.2,0,0.5,0,0.7,0.1
			c0.6,0.3,1.1,0.7,1.7,1.1c0.2,0.1,0.3,0.4,0.4,0.6C143.9,73,143.9,73.8,144,74.7z"/>
		<path class="st4" d="M52.8,80.9c-0.2-1.8,0.9-2.9,1.7-4.3c0.8,0.9,0.5,1.7,0.3,2.6C54.5,80.3,53.6,80.5,52.8,80.9z"/>
		<path class="st4" d="M65.7,79.8c-0.6-1-1.2-1.9-1.7-2.9c-0.1-0.2,0.3-0.8,0.6-0.9c0.4-0.1,0.9,0,0.8,0.7c0,0.5,0.3,1,0.5,1.4
			c0.1,0.3,0.3,0.6,0.5,1C65.8,79,65.2,78.9,65.7,79.8L65.7,79.8z"/>
		<path class="st4" d="M75.2,65.8c0.2,0.1,0.2,0.1,0.2,0.2c0.2,0.7,1,1.6,0.3,2.2c-0.8,0.6-1.8-0.1-2.9-0.5
			C73.7,67,74.4,66.4,75.2,65.8z"/>
		<path class="st4" d="M53.9,112c-2.3-1.8-4.5-3.6-6.8-5.4c0.9-0.1,6.3,4.2,7,5.2C54,111.9,54,112,53.9,112z"/>
		<path class="st4" d="M93.6,58.8c4.2-1.3,8.4,0.1,12.6,0C101.9,58.8,97.8,58.8,93.6,58.8z"/>
		<path class="st4" d="M134.3,79.7c0.4-1.2,0.9-2.5,1.3-3.7c0.1,0,0.2,0,0.2,0c0,0.2,0.1,0.4,0,0.5c-0.1,0.4-0.5,0.7,0.3,0.9
			c0.1,0,0.3,0.7,0.3,1c0,0.2-0.4,0.3-0.7,0.5c-0.4,0.3-0.8,0.6-1.2,0.9C134.5,79.8,134.4,79.8,134.3,79.7z"/>
		<path class="st4" d="M123.1,62.4c-1.1,0.8-1.6,0-2.2-0.5c-0.4-0.3-1.2-0.5-0.7-1.2c0.5-0.6,0.9,0.1,1.3,0.4
			C122,61.4,122.5,61.9,123.1,62.4z"/>
		<path class="st4" d="M61,104.9c-0.7-0.8-1.3-1.6-2.1-2.5c2.2,0.2,2.4,0.2,2.4,2.3C61.2,104.8,61.1,104.8,61,104.9z"/>
		<path class="st4" d="M140.4,77.6c-0.3,0.2-0.6,0.5-0.9,0.5c-0.3,0-0.9-0.2-0.9-0.5c-0.1-0.3,0.1-0.8,0.2-1.2
			c0.4,0.1,0.8,0.1,1,0.3C140,76.9,140.2,77.3,140.4,77.6z"/>
		<path class="st4" d="M68.7,109.2c0.1,0.7,0.3,1.3,0.2,1.8c-0.2,0.4-0.8,0.6-1.3,0.9c-0.1,0-0.4-0.2-0.4-0.2
			c0.1-0.3,0.1-0.5,0.3-0.8C67.7,110.3,68.1,109.9,68.7,109.2z"/>
		<path class="st4" d="M118.5,63.9c-1.2-0.8-1.2-0.8-0.4-2.1C119.3,62.2,119.4,62.8,118.5,63.9z"/>
		<path class="st4" d="M79.2,66.6c-0.4-0.4-0.7-0.7-1.1-1c0.3-0.2,0.7-0.6,0.9-0.5c0.4,0.2,0.8,0.6,1.2,0.9
			C79.9,66.1,79.6,66.3,79.2,66.6z"/>
		<path class="st4" d="M131.8,78.8c0.5-0.9,0.4-2,1.2-2.6C133.2,77.7,132.8,78.6,131.8,78.8z"/>
		<path class="st4" d="M132.7,80.1c0.5-1.3,1-2.7,1.6-4c0.1,0,0.2,0.1,0.4,0.1c-0.5,1.3-1,2.7-1.5,4C133,80.2,132.9,80.2,132.7,80.1
			z"/>
		<path class="st4" d="M42.4,99.7c0.3,0.1,0.6,0.2,0.9,0.3c-0.5,1.1,0.5,2,0.3,3.1c-0.5-1.1-0.9-2.1-1.4-3.2
			C42.3,99.8,42.3,99.8,42.4,99.7z"/>
		<path class="st4" d="M126.2,88.1c0.9,0.6,1.1,1.5,0.4,2.3c-0.2-0.8-0.4-1.5-0.6-2.2C126.1,88.2,126.2,88.1,126.2,88.1z"/>
		<path class="st4" d="M67.1,86.5c0.4-0.1,0.6-0.2,0.9-0.3c0.8,0.8-0.3,1.1-0.3,1.7c-0.1,0-0.2,0-0.3,0C67.3,87.5,67.2,87,67.1,86.5
			z"/>
		<path class="st4" d="M63.7,115c-0.3-0.4-0.5-0.9-0.8-1.3c0-0.1,0.1-0.4,0.3-0.4c0.1,0,0.4,0.1,0.4,0.2c0.2,0.5,0.3,0.9,0.4,1.4
			C64,114.9,63.8,114.9,63.7,115z"/>
		<path class="st4" d="M43,103.2c-0.8-0.7-1.5-1.4-2.3-2c0.1-0.1,0.2-0.2,0.3-0.3c0.7,0.7,1.5,1.4,2.2,2.1
			C43.1,103.1,43,103.2,43,103.2z"/>
		<path class="st4" d="M62.6,78.3c-0.4-1-0.9-2-1.3-3c0.1-0.1,0.3-0.1,0.4-0.2c0.4,1,0.8,2.1,1.2,3.1C62.8,78.2,62.7,78.3,62.6,78.3
			z"/>
		<path class="st4" d="M129.3,61.7c-1.3-0.5-2.5-0.9-3.8-1.4c0-0.1,0.1-0.2,0.1-0.2c1.3,0.4,2.5,0.9,3.8,1.3
			C129.4,61.5,129.4,61.6,129.3,61.7z"/>
		<path class="st4" d="M127.7,84.7c-0.2,0.8-0.4,1.6-0.6,2.4c-0.1,0-0.2,0-0.3-0.1c-0.4-0.9,0.4-1.6,0.6-2.3
			C127.6,84.7,127.6,84.7,127.7,84.7z"/>
		<path class="st4" d="M65.6,79.8c0.6,1.3,1.3,2.5,1.2,4.1C66.4,82.5,66,81.2,65.6,79.8C65.7,79.8,65.6,79.8,65.6,79.8z"/>
		<path class="st4" d="M118.8,77.7c0.3,1,0.5,2,0.8,2.9c-0.1,0-0.2,0-0.3,0.1c-0.2-1-0.5-2-0.7-2.9
			C118.6,77.8,118.7,77.7,118.8,77.7z"/>
		<path class="st4" d="M100.4,57.4c0.7,0,1.4,0,2.1,0c0,0.1,0,0.1,0,0.2c-0.7,0-1.4,0-2.1,0C100.4,57.5,100.4,57.5,100.4,57.4z"/>
		<path class="st4" d="M52.6,79.5c0,0.7-0.1,1.3-0.1,2c-0.1,0-0.2,0-0.3,0c0-0.7,0.1-1.4,0.1-2C52.4,79.5,52.5,79.5,52.6,79.5z"/>
		<path class="st4" d="M121.4,58.8c0.3,0.4,0.7,0.7,1.1,1.2C121.7,60,121.7,60,121.4,58.8z"/>
		<path class="st4" d="M124.8,66.5c0.3,0.2,0.6,0.4,1,0.6c0,0.1,0,0.1,0,0.2c-0.3,0-0.6,0.2-0.7,0.1c-0.2-0.2-0.3-0.5-0.4-0.7
			C124.7,66.5,124.8,66.5,124.8,66.5z"/>
		<path class="st4" d="M118.3,116.1c0.2-0.5,0.4-0.9,0.6-1.4c-1.6,1.1-3.7,1-5.1,2.5c-0.4,0.4-1,1-1.5,0.4c-0.7,0.2-1.3,0.3-1.8,0.4
			c-0.1-0.1-0.1-0.2-0.2-0.3c0.4-0.5,0.7-1.2,1.2-1.6c1.1-0.8,2.1-1.5,3-2.7c0.7-1,2-1.5,3.1-2.2c0.5-0.4,1.1-0.6,1.6-1
			c0.2-0.1,0.3-0.4,0.5-0.6c0.1,0.1,0.3,0.2,0.3,0.2c0.7-0.2,1.2-0.4,1.7-0.6c0.1,0.1,0.2,0.2,0.3,0.2c-0.2,0.6-0.4,1.2-0.6,1.8
			c1,0,2,0,3,0c0,0.1,0.1,0.1,0.1,0.2c-2,1.6-3.9,3.2-5.9,4.8C118.4,116.2,118.3,116.2,118.3,116.1z"/>
		<path class="st4" d="M131.5,110.4c0-2.1,0.9-3.6,2.1-4.9c0.5-0.6,0.9,0,1.3,0.1c0.4,0.1,0.8,0.3,0.7,0.9c-0.1,1.4-1,2.3-2.1,2.9
			C132.9,109.8,132.2,110.1,131.5,110.4z"/>
		<path class="st4" d="M135.3,113.1c0.7-2.1,2-3.7,3.4-5.2C139.5,109.2,137.1,113,135.3,113.1z"/>
		<path class="st4" d="M140.2,110.9c-0.2,1.1-0.4,2.1-0.6,2.9c0.4,0.3,0.9,0.4,0.9,0.6c0,0.9-0.7,1.1-1.4,1.5
			C137.7,114.1,138,112.9,140.2,110.9z"/>
		<path class="st4" d="M141.9,106.2c0.9-1.2,1.8-2.3,2.8-3.5c0.1,0.1,0.1,0.1,0.2,0.2c-0.5,1.5-1.7,2.4-2.7,3.5
			C142.1,106.3,142,106.2,141.9,106.2z"/>
		<path class="st4" d="M105.6,140.3c0.2-0.6,0.4-1.2,0.6-1.7C106.7,139.2,106.5,139.9,105.6,140.3z"/>
		<path class="st4" d="M81,140.5c1.3,0.4,2.6,0.8,3.9,1.3c0,0.1-0.1,0.2-0.1,0.3c-1.5,0.2-2.6-1-4-1.2
			C80.9,140.8,80.9,140.7,81,140.5z"/>
		<path class="st4" d="M137.6,120.4c-0.9,1.5-2.4,2.3-4,2.9C134.8,122.1,136,121,137.6,120.4C137.6,120.4,137.6,120.4,137.6,120.4z"
			/>
	</g>
</g>
<g id="Layer_1">
</g>
</svg>
