<?xml version="1.0" encoding="utf-8"?>
<!-- Generator: Adobe Illustrator 24.3.0, SVG Export Plug-In . SVG Version: 6.00 Build 0)  -->
<svg version="1.1" xmlns="http://www.w3.org/2000/svg" xmlns:xlink="http://www.w3.org/1999/xlink" x="0px" y="0px"
	 viewBox="0 0 200 200" style="enable-background:new 0 0 200 200;" xml:space="preserve">
<style type="text/css">
	.st0{fill:url(#SVGID_1_);stroke:#BBBDBF;stroke-miterlimit:10;}
	.st1{fill:url(#SVGID_2_);stroke:#231F20;stroke-miterlimit:10;}
	.st2{fill:url(#SVGID_3_);}
	.st3{fill:url(#SVGID_4_);}
	.st4{fill:url(#SVGID_5_);}
	.st5{clip-path:url(#SVGID_6_);}
	.st6{fill:#8CF7F7;}
	.st7{fill:none;stroke:#303030;stroke-linecap:round;stroke-linejoin:round;stroke-miterlimit:13.3333;}
	.st8{fill:#00E4E4;}
	.st9{fill:none;stroke:#303030;stroke-linejoin:round;stroke-miterlimit:13.3333;}
	.st10{fill:url(#SVGID_7_);}
	.st11{clip-path:url(#SVGID_8_);}
	.st12{fill:#75F5F5;}
	.st13{fill:url(#SVGID_9_);}
	.st14{clip-path:url(#SVGID_10_);}
	.st15{fill:#E3A6D6;}
	.st16{fill:none;stroke:#303030;stroke-miterlimit:13.3333;}
	.st17{fill:url(#SVGID_11_);}
	.st18{clip-path:url(#SVGID_12_);}
	.st19{fill:url(#SVGID_13_);}
	.st20{clip-path:url(#SVGID_14_);}
	.st21{fill:url(#SVGID_15_);}
	.st22{clip-path:url(#SVGID_16_);}
	.st23{opacity:0.2;clip-path:url(#SVGID_17_);}
	.st24{fill:#303030;}
</style>
<g id="Layer_2">
	
		<radialGradient id="SVGID_1_" cx="84.0719" cy="84.5082" r="61.3141" gradientTransform="matrix(1.3593 0 0 1.3275 -13.9006 -12.1865)" gradientUnits="userSpaceOnUse">
		<stop  offset="0.1269" style="stop-color:#EBEBEB"/>
		<stop  offset="0.6604" style="stop-color:#F6F6F6"/>
		<stop  offset="1" style="stop-color:#020202"/>
	</radialGradient>
	<ellipse class="st0" cx="100.4" cy="100" rx="83.3" ry="81.4"/>
	
		<radialGradient id="SVGID_2_" cx="84.072" cy="84.5083" r="71.2117" fx="118.3013" fy="59.3457" gradientTransform="matrix(1.3593 0 0 1.3275 -13.9006 -12.1865)" gradientUnits="userSpaceOnUse">
		<stop  offset="0.1269" style="stop-color:#FFFFFF"/>
		<stop  offset="0.8831" style="stop-color:#020202"/>
		<stop  offset="0.9244" style="stop-color:#020202"/>
	</radialGradient>
	<path class="st1" d="M100.4,168.1c-38.5,0-69.8-30.6-69.8-68.1c0-37.6,31.3-68.1,69.8-68.1c38.5,0,69.8,30.6,69.8,68.1
		C170.1,137.6,138.8,168.1,100.4,168.1z"/>
	<g>
		<radialGradient id="SVGID_3_" cx="100.38" cy="100.0011" r="62.2353" gradientUnits="userSpaceOnUse">
			<stop  offset="0" style="stop-color:#26A9E0"/>
			<stop  offset="0" style="stop-color:#020202"/>
			<stop  offset="0" style="stop-color:#4D83C3"/>
			<stop  offset="0" style="stop-color:#1B75BB"/>
			<stop  offset="0" style="stop-color:#F9FAFA"/>
			<stop  offset="1" style="stop-color:#BDDAF3"/>
			<stop  offset="1" style="stop-color:#EB008B"/>
			<stop  offset="1" style="stop-color:#EA028C"/>
			<stop  offset="1" style="stop-color:#E6098F"/>
			<stop  offset="1" style="stop-color:#DF1493"/>
			<stop  offset="1" style="stop-color:#D5259A"/>
			<stop  offset="1" style="stop-color:#C83BA3"/>
			<stop  offset="1" style="stop-color:#B757AF"/>
			<stop  offset="1" style="stop-color:#A477BC"/>
			<stop  offset="1" style="stop-color:#8F9BCB"/>
			<stop  offset="1" style="stop-color:#8AA3CE"/>
			<stop  offset="1" style="stop-color:#70BF44"/>
		</radialGradient>
		<path class="st2" d="M141.8,146.4c-26,22.4-65.8,19.9-88.6-5.7C30.4,115.1,33,76,59,53.6c26-22.4,65.8-19.9,88.6,5.7
			C170.4,84.9,167.8,124,141.8,146.4z"/>
		
			<radialGradient id="SVGID_4_" cx="89.4482" cy="73.9427" r="59.9634" gradientTransform="matrix(1.3593 0 0 1.3275 -13.9006 -12.1865)" gradientUnits="userSpaceOnUse">
			<stop  offset="0" style="stop-color:#26A9E0"/>
			<stop  offset="0" style="stop-color:#020202"/>
			<stop  offset="0" style="stop-color:#4D83C3"/>
			<stop  offset="0" style="stop-color:#1B75BB"/>
			<stop  offset="0" style="stop-color:#F9FAFA"/>
			<stop  offset="0" style="stop-color:#FFFFFF"/>
			<stop  offset="0.1799" style="stop-color:#FAC2E3"/>
			<stop  offset="0.4029" style="stop-color:#F57EC4"/>
			<stop  offset="0.6045" style="stop-color:#F148AC"/>
			<stop  offset="0.7775" style="stop-color:#EE219A"/>
			<stop  offset="0.9151" style="stop-color:#EC098F"/>
			<stop  offset="1" style="stop-color:#EB008B"/>
			<stop  offset="1" style="stop-color:#EA028C"/>
			<stop  offset="1" style="stop-color:#E6098F"/>
			<stop  offset="1" style="stop-color:#DF1493"/>
			<stop  offset="1" style="stop-color:#D5259A"/>
			<stop  offset="1" style="stop-color:#C83BA3"/>
			<stop  offset="1" style="stop-color:#B757AF"/>
			<stop  offset="1" style="stop-color:#A477BC"/>
			<stop  offset="1" style="stop-color:#8F9BCB"/>
			<stop  offset="1" style="stop-color:#8AA3CE"/>
			<stop  offset="1" style="stop-color:#E63825"/>
		</radialGradient>
		<path class="st3" d="M100.4,162.5c-17.7,0-35.3-7.2-47.8-21.3C29.5,115.3,32.1,75.7,58.5,53c12.7-11,29.1-16.4,46.1-15.3
			c17,1.1,32.4,8.6,43.6,21.1c23.1,25.9,20.5,65.5-5.9,88.2C130.2,157.4,115.3,162.5,100.4,162.5z M100.3,39
			c-15,0-29.4,5.3-40.8,15.1c-25.7,22.2-28.3,60.8-5.7,86.1c22.5,25.3,61.8,27.8,87.5,5.6l0.5,0.6l-0.5-0.6
			c12.4-10.7,19.9-25.6,21-41.9c1.1-16.3-4.3-32-15.2-44.2c-10.9-12.2-26-19.6-42.6-20.6C103,39.1,101.7,39,100.3,39z"/>
	</g>
	<g>
		
			<linearGradient id="SVGID_5_" gradientUnits="userSpaceOnUse" x1="-203.6559" y1="495.3105" x2="-203.0118" y2="495.3105" gradientTransform="matrix(174.6662 0 0 -174.6662 35621.5781 86614.3281)">
			<stop  offset="0" style="stop-color:#D887C7"/>
			<stop  offset="5.034530e-03" style="stop-color:#D887C7"/>
			<stop  offset="1" style="stop-color:#00EFEF"/>
		</linearGradient>
		<path class="st4" d="M61.9,70.7c-7.8,7.9-12.1,18.4-12.1,29.7c0,11.1,4.3,21.5,12,29.3c5.1,5.2,11.5,8.9,18.5,10.8l3.3-3.7
			c0.3-0.4,0.8-0.6,1.3-0.6c0.1,0,0.2,0,0.3,0c1.9,0.3,3.9,0.5,5.8,0.5s3.9-0.2,5.8-0.5c0.1,0,0.2,0,0.3,0c0.5,0,0.9,0.2,1.3,0.6
			l3.2,3.5c22.4-6,55.2-26.3,60.7-29.8v-4.3H146c-0.9,0-1.7-0.8-1.7-1.7v-8.7c0-0.5,0.2-0.9,0.5-1.2c0.3-0.3,0.8-0.5,1.2-0.5
			c0,0,16.3,0,16.3,0v-4.3c-5.5-3.5-38.4-23.8-60.7-29.6l-3.2,3.4c-0.3,0.3-0.8,0.5-1.2,0.5c-0.1,0-0.2,0-0.3,0
			c-1.9-0.3-3.9-0.5-5.8-0.5c-1.9,0-3.9,0.2-5.8,0.5c-0.1,0-0.2,0-0.3,0c-0.5,0-0.9-0.2-1.2-0.5l-3.3-3.5
			C73.4,61.8,67.1,65.5,61.9,70.7"/>
		<g>
			<defs>
				<rect id="SVGID_22_" x="36.9" y="34.9" width="128.8" height="130.6"/>
			</defs>
			<clipPath id="SVGID_6_">
				<use xlink:href="#SVGID_22_"  style="overflow:visible;"/>
			</clipPath>
			<g transform="matrix(1.33333 0 0 -1.33333 0 200)" class="st5">
				<path class="st6" d="M60.7,106.4c-5.8-1.3-11-4.3-15.1-8.5C39.7,92,36,83.8,36,74.7c0-9,3.6-17.1,9.4-22.9
					c4.1-4.2,9.4-7.2,15.2-8.7l3,3.4c1.5-0.2,3-0.4,4.6-0.4s3.1,0.1,4.6,0.4l2.9-3.2C94.5,48.1,123,66.4,123,66.4v5.2h-13.5v6.5
					l13.5,0v5.3c0,0-28.6,18.4-47.3,22.9l-2.9-3.1c-1.5,0.2-3,0.4-4.6,0.4s-3.1-0.1-4.6-0.4L60.7,106.4z M59.8,103.5l2-2.1
					c0.5-0.5,1.2-0.8,1.9-0.8c0.1,0,0.3,0,0.4,0c1.4,0.2,2.8,0.3,4.2,0.3c1.4,0,2.8-0.1,4.2-0.3c0.1,0,0.3,0,0.4,0
					c0.7,0,1.4,0.3,1.9,0.8l1.9,2C92.4,99,115,85.3,120.4,81.9v-1.2l-10.9,0h0c-0.7,0-1.3-0.3-1.8-0.8c-0.5-0.5-0.8-1.2-0.8-1.8
					v-6.5c0-1.4,1.2-2.6,2.6-2.6h10.9v-1.2c-5.4-3.4-27.9-17.1-43.8-21.6l-1.9,2.1c-0.5,0.5-1.2,0.8-1.9,0.8c-0.1,0-0.3,0-0.4,0
					c-1.4-0.2-2.8-0.3-4.2-0.3s-2.8,0.1-4.2,0.3c-0.1,0-0.3,0-0.4,0c-0.7,0-1.4-0.3-1.9-0.9l-2-2.2c-4.7,1.4-9,4-12.6,7.6
					c-5.6,5.6-8.6,13.1-8.6,21.1c0,8.1,3.1,15.7,8.7,21.3C50.9,99.6,55.2,102.2,59.8,103.5"/>
				<path class="st7" d="M109.5,78.1v-6.5H123v-5.2c0,0-28.5-18.3-47.2-23.1l-2.9,3.2c-1.5-0.2-3-0.4-4.6-0.4s-3.1,0.1-4.6,0.4
					l-3-3.4c-5.9,1.4-11.1,4.5-15.2,8.7C39.6,57.7,36,65.7,36,74.7c0,9,3.6,17.3,9.5,23.2c4.1,4.2,9.3,7.2,15.1,8.5l3-3.2
					c1.5,0.2,3,0.4,4.6,0.4s3.1-0.1,4.6-0.4l2.9,3.1c18.7-4.6,47.3-22.9,47.3-22.9v-5.3L109.5,78.1z"/>
				<path class="st8" d="M72.8,46.4c0.1-2.1-1.5-4-3.7-4.1c-0.3,0-0.6,0-0.9,0c-0.3,0-0.5,0-0.8,0c-2.2,0.1-3.9,1.9-3.8,4.1l0,0.2
					c1.5-0.2,3-0.4,4.6-0.4s3.1,0.1,4.6,0.4L72.8,46.4z"/>
				<path class="st9" d="M72.8,46.4c0.1-2.1-1.5-4-3.7-4.1c-0.3,0-0.6,0-0.9,0c-0.3,0-0.5,0-0.8,0c-2.2,0.1-3.9,1.9-3.8,4.1l0,0.2
					c1.5-0.2,3-0.4,4.6-0.4s3.1,0.1,4.6,0.4L72.8,46.4z"/>
				<path class="st8" d="M72.8,103.2c-1.5,0.2-3,0.4-4.6,0.4c-1.6,0-3.1-0.1-4.6-0.4c0,0.1,0,0.1,0,0.2c0,2.1,1.7,3.9,3.8,3.9
					c0.5,0,1.1,0,1.6,0C71.2,107.3,72.9,105.4,72.8,103.2"/>
				<path class="st9" d="M72.8,103.2c-1.5,0.2-3,0.4-4.6,0.4c-1.6,0-3.1-0.1-4.6-0.4c0,0.1,0,0.1,0,0.2c0,2.1,1.7,3.9,3.8,3.9
					c0.5,0,1.1,0,1.6,0C71.2,107.3,72.9,105.4,72.8,103.2z M79.8,74.9c0-1.7-0.3-3.3-1-4.7c-0.2-0.5-0.5-1-0.8-1.5
					c-1.1-1.7-2.6-3.1-4.3-4.1c-1.6-0.9-3.5-1.4-5.5-1.4c-3.2,0-6.1,1.3-8.2,3.4s-3.4,5.1-3.4,8.3c0,1.9,0.4,3.7,1.2,5.3
					c0.6,1.1,1.3,2.2,2.2,3c0.7,0.8,1.6,1.4,2.5,1.9c1.7,1,3.6,1.5,5.7,1.5c4.7,0,8.8-2.9,10.6-7C79.5,78.1,79.8,76.5,79.8,74.9z"/>
			</g>
		</g>
		
			<linearGradient id="SVGID_7_" gradientUnits="userSpaceOnUse" x1="-207.4619" y1="495.1071" x2="-206.809" y2="495.1071" gradientTransform="matrix(0 -111.9997 -111.9997 0 55542.8633 -23098.9434)">
			<stop  offset="0" style="stop-color:#00E4E4"/>
			<stop  offset="0.7715" style="stop-color:#CC67B9"/>
			<stop  offset="1" style="stop-color:#CC67B9"/>
		</linearGradient>
		<path class="st10" d="M86.7,63.9l1.7,36.2c0,0.1,0,0.1,0,0.2l-1.7,36.2c1.4,0.2,2.9,0.3,4.3,0.3c1.4,0,2.9-0.1,4.3-0.3l-1.7-36.2
			c0-0.1,0-0.1,0-0.2l1.7-36.2c-1.4-0.2-2.9-0.3-4.3-0.3C89.6,63.6,88.1,63.7,86.7,63.9"/>
		<g>
			<defs>
				<rect id="SVGID_25_" x="36.9" y="34.9" width="128.8" height="130.6"/>
			</defs>
			<clipPath id="SVGID_8_">
				<use xlink:href="#SVGID_25_"  style="overflow:visible;"/>
			</clipPath>
			<g transform="matrix(1.33333 0 0 -1.33333 0 200)" class="st11">
				<path class="st6" d="M68.2,103.6c-1.6,0-3.1-0.1-4.6-0.4L65,74.9l-1.4-28.3c1.5-0.2,3-0.4,4.6-0.4s3.1,0.1,4.6,0.4l-1.4,28.3
					l1.4,28.3C71.3,103.5,69.8,103.6,68.2,103.6 M68.2,101c0.6,0,1.3,0,1.9-0.1L68.9,75c0-0.1,0-0.2,0-0.3l1.2-25.9
					c-0.6,0-1.3-0.1-1.9-0.1s-1.3,0-1.9,0.1l1.2,25.9c0,0.1,0,0.2,0,0.3l-1.2,25.9C67,101,67.6,101,68.2,101"/>
				<path class="st12" d="M68.2,103.6c-1.6,0-3.1-0.1-4.6-0.4L65,74.9l-1.4-28.3c1.5-0.2,3-0.4,4.6-0.4s3.1,0.1,4.6,0.4l-1.4,28.3
					l1.4,28.3C71.3,103.5,69.8,103.6,68.2,103.6 M68.2,101c0.6,0,1.3,0,1.9-0.1L68.9,75c0-0.1,0-0.2,0-0.3l1.2-25.9
					c-0.6,0-1.3-0.1-1.9-0.1s-1.3,0-1.9,0.1l1.2,25.9c0,0.1,0,0.2,0,0.3l-1.2,25.9C67,101,67.6,101,68.2,101"/>
				<path class="st7" d="M71.5,74.9l1.4-28.3c-1.5-0.2-3-0.4-4.6-0.4s-3.1,0.1-4.6,0.4L65,74.9l-1.4,28.3c1.5,0.2,3,0.4,4.6,0.4
					s3.1-0.1,4.6-0.4L71.5,74.9z"/>
			</g>
		</g>
		
			<linearGradient id="SVGID_9_" gradientUnits="userSpaceOnUse" x1="-202.7829" y1="493.9944" x2="-202.1388" y2="493.9944" gradientTransform="matrix(98.2062 0 0 -98.2062 19995.1523 48613.4844)">
			<stop  offset="0" style="stop-color:#CC67B9"/>
			<stop  offset="0.2285" style="stop-color:#CC67B9"/>
			<stop  offset="1" style="stop-color:#00E4E4"/>
		</linearGradient>
		<path class="st13" d="M108.2,100.2c0,1.5-0.2,3-0.6,4.4l36.6-1.7v-5.4l-36.6-1.7C108,97.2,108.2,98.7,108.2,100.2"/>
		<g>
			<defs>
				<rect id="SVGID_28_" x="36.9" y="34.9" width="128.8" height="130.6"/>
			</defs>
			<clipPath id="SVGID_10_">
				<use xlink:href="#SVGID_28_"  style="overflow:visible;"/>
			</clipPath>
			<g transform="matrix(1.33333 0 0 -1.33333 0 200)" class="st14">
				<path class="st15" d="M78.8,79.6c0.6-1.4,1-3,1-4.7s-0.4-3.3-1-4.7l30.6,1.5v6.5L78.8,79.6z M82.3,76.8l24.6-1.2v-1.5l-24.6-1.2
					c0.1,0.6,0.1,1.3,0.1,1.9C82.4,75.5,82.4,76.2,82.3,76.8"/>
				<path class="st16" d="M109.5,78.1v-6.5l-30.6-1.5c0.6,1.4,1,3,1,4.7s-0.4,3.3-1,4.7L109.5,78.1z"/>
			</g>
		</g>
		
			<linearGradient id="SVGID_11_" gradientUnits="userSpaceOnUse" x1="-196.8721" y1="485.9311" x2="-196.228" y2="485.9311" gradientTransform="matrix(26.6666 0 0 -26.6666 5332.3198 13058.3008)">
			<stop  offset="0" style="stop-color:#D887C7"/>
			<stop  offset="0.2285" style="stop-color:#D887C7"/>
			<stop  offset="1" style="stop-color:#00E4E4"/>
		</linearGradient>
		<path class="st17" d="M82.4,100.2c0,4.8,3.9,8.7,8.6,8.7s8.6-3.9,8.6-8.7c0-4.8-3.9-8.7-8.6-8.7S82.4,95.4,82.4,100.2"/>
		<g>
			<defs>
				<rect id="SVGID_31_" x="36.9" y="34.9" width="128.8" height="130.6"/>
			</defs>
			<clipPath id="SVGID_12_">
				<use xlink:href="#SVGID_31_"  style="overflow:visible;"/>
			</clipPath>
			<g transform="matrix(1.33333 0 0 -1.33333 0 200)" class="st18">
				<path class="st15" d="M68.2,82.7c-4.3,0-7.7-3.5-7.7-7.8S64,67,68.2,67s7.7,3.5,7.7,7.8S72.5,82.7,68.2,82.7 M68.2,80.1
					c2.8,0,5.2-2.3,5.2-5.2s-2.3-5.2-5.2-5.2c-2.8,0-5.2,2.3-5.2,5.2S65.4,80.1,68.2,80.1"/>
				<path class="st16" d="M68.2,67c-4.3,0-7.7,3.5-7.7,7.8s3.5,7.8,7.7,7.8s7.7-3.5,7.7-7.8S72.5,67,68.2,67z"/>
				<path class="st8" d="M36,74.7c0-9,3.6-17.1,9.4-22.9l-5.7,0.7c-4.7,6.2-7.5,13.9-7.5,22.3S35,91,39.7,97.2l5.8,0.8l0,0
					C39.7,92,36,83.8,36,74.7"/>
				<path class="st9" d="M36,74.7c0-9,3.6-17.1,9.4-22.9l-5.7,0.7c-4.7,6.2-7.5,13.9-7.5,22.3S35,91,39.7,97.2l5.8,0.8l0,0
					C39.7,92,36,83.8,36,74.7z"/>
			</g>
		</g>
		
			<linearGradient id="SVGID_13_" gradientUnits="userSpaceOnUse" x1="-202.9819" y1="494.463" x2="-202.3378" y2="494.463" gradientTransform="matrix(116.3344 0 0 -116.3344 23663.5547 57623.2695)">
			<stop  offset="0" style="stop-color:#DD96CE"/>
			<stop  offset="0.2285" style="stop-color:#DD96CE"/>
			<stop  offset="1" style="stop-color:#00E4E4"/>
		</linearGradient>
		<path class="st19" d="M49.8,100.4c0,10.5,3.8,20.4,10.8,28.1l17.1-17.3c-2.5-3.1-3.9-7-3.9-11s1.4-7.9,3.9-11l-17-17.2
			C53.6,79.7,49.8,89.7,49.8,100.4"/>
		<g>
			<defs>
				<rect id="SVGID_34_" x="36.9" y="34.9" width="128.8" height="130.6"/>
			</defs>
			<clipPath id="SVGID_14_">
				<use xlink:href="#SVGID_34_"  style="overflow:visible;"/>
			</clipPath>
			<g transform="matrix(1.33333 0 0 -1.33333 0 200)" class="st20">
				<path class="st15" d="M45.5,97.9C39.7,92,36,83.8,36,74.7c0-9,3.6-17.1,9.4-22.9l0.1,0l14.6,14.8c-2.1,2.1-3.4,5.1-3.4,8.3
					c0,3.2,1.3,6.2,3.4,8.3L45.5,97.9z M45.6,94.1l11-11.1c-1.6-2.4-2.5-5.2-2.5-8.1c0-2.9,0.9-5.8,2.5-8.1L45.5,55.5
					c-4.5,5.4-6.9,12.1-6.9,19.2C38.6,81.9,41.1,88.7,45.6,94.1"/>
				<path class="st16" d="M56.7,74.9c0-3.2,1.3-6.2,3.4-8.3L45.5,51.8l-0.1,0C39.6,57.7,36,65.7,36,74.7c0,9,3.6,17.3,9.5,23.2
					l14.5-14.7C58,81,56.7,78.1,56.7,74.9z"/>
				<path class="st8" d="M108.2,46.8c0-2.5-2-4.6-4.5-4.6v9.1c1.2,0,2.4-0.5,3.2-1.3C107.7,49.2,108.2,48.1,108.2,46.8"/>
				<path class="st16" d="M108.2,46.8c0-2.5-2-4.6-4.5-4.6v9.1c1.2,0,2.4-0.5,3.2-1.3C107.7,49.2,108.2,48.1,108.2,46.8z"/>
			</g>
		</g>
		
			<linearGradient id="SVGID_15_" gradientUnits="userSpaceOnUse" x1="-200.8967" y1="491.3799" x2="-200.2526" y2="491.3799" gradientTransform="matrix(49.8605 0 0 -49.8605 10121.2168 24628.7617)">
			<stop  offset="0" style="stop-color:#D887C7"/>
			<stop  offset="0.2285" style="stop-color:#D887C7"/>
			<stop  offset="1" style="stop-color:#00E4E4"/>
		</linearGradient>
		<path class="st21" d="M104.4,118.3l20.8,23.7h11.3v-8.7h-7.7c-0.4,0-0.8-0.2-1.2-0.5l-19.5-18.2
			C107.1,116,105.8,117.2,104.4,118.3"/>
		<g>
			<defs>
				<rect id="SVGID_37_" x="36.9" y="34.9" width="128.8" height="130.6"/>
			</defs>
			<clipPath id="SVGID_16_">
				<use xlink:href="#SVGID_37_"  style="overflow:visible;"/>
			</clipPath>
			<g transform="matrix(1.33333 0 0 -1.33333 0 200)" class="st22">
				<path class="st15" d="M81,66c-1.2-1.8-2.8-3.3-4.6-4.4l16.9-19.3h10.4v9.1h-7L81,66z M81.2,62.2l13.7-12.7
					c0.5-0.4,1.1-0.7,1.7-0.7h4.5v-3.9h-6.6L80.2,61.2C80.5,61.5,80.9,61.8,81.2,62.2"/>
				<path class="st16" d="M103.7,51.4v-9.1H93.3L76.4,61.5c1.8,1.1,3.4,2.6,4.6,4.4l15.7-14.6H103.7z"/>
				<path class="st8" d="M52.8,74.9c0-1.3-1-2.3-2.3-2.3c-1.2,0-2.3,1-2.3,2.3s1,2.3,2.3,2.3C51.8,77.2,52.8,76.1,52.8,74.9"/>
				<path class="st9" d="M52.8,74.9c0-1.3-1-2.3-2.3-2.3c-1.2,0-2.3,1-2.3,2.3s1,2.3,2.3,2.3C51.8,77.2,52.8,76.1,52.8,74.9z"/>
				<path class="st8" d="M54.7,66.7c0-1.3-1-2.3-2.3-2.3c-1.2,0-2.3,1-2.3,2.3s1,2.3,2.3,2.3C53.7,69,54.7,68,54.7,66.7"/>
				<path class="st9" d="M54.7,66.7c0-1.3-1-2.3-2.3-2.3c-1.2,0-2.3,1-2.3,2.3s1,2.3,2.3,2.3C53.7,69,54.7,68,54.7,66.7z"/>
				<path class="st8" d="M54.7,83c0-1.3-1-2.3-2.3-2.3c-1.2,0-2.3,1-2.3,2.3c0,1.3,1,2.3,2.3,2.3C53.7,85.3,54.7,84.3,54.7,83"/>
				<path class="st9" d="M54.7,83c0-1.3-1-2.3-2.3-2.3c-1.2,0-2.3,1-2.3,2.3c0,1.3,1,2.3,2.3,2.3C53.7,85.3,54.7,84.3,54.7,83z"/>
				<g>
					<defs>
						<rect id="SVGID_39_" x="-326.8" y="-81.8" width="687" height="522.3"/>
					</defs>
					<clipPath id="SVGID_17_">
						<use xlink:href="#SVGID_39_"  style="overflow:visible;"/>
					</clipPath>
					<g class="st23">
						<path class="st24" d="M274.4,375.2h-515.3V-16.5h515.3V375.2z M271.1-13.3h-508.8v385.2h508.8V-13.3z"/>
					</g>
				</g>
			</g>
		</g>
	</g>
</g>
<g id="Layer_1">
</g>
</svg>
