<?xml version="1.0" encoding="utf-8"?>
<!-- Generator: Adobe Illustrator 24.3.0, SVG Export Plug-In . SVG Version: 6.00 Build 0)  -->
<svg version="1.1" xmlns="http://www.w3.org/2000/svg" xmlns:xlink="http://www.w3.org/1999/xlink" x="0px" y="0px"
	 viewBox="0 0 200 200" style="enable-background:new 0 0 200 200;" xml:space="preserve">
<style type="text/css">
	.st0{fill:url(#SVGID_1_);stroke:#BBBDBF;stroke-miterlimit:10;}
	.st1{fill:url(#SVGID_2_);stroke:#231F20;stroke-miterlimit:10;}
	.st2{fill:url(#SVGID_3_);}
	.st3{fill:url(#SVGID_4_);}
	.st4{fill:#FFFFFF;}
</style>
<g id="Layer_2">
	
		<radialGradient id="SVGID_1_" cx="84.0719" cy="84.5082" r="61.3141" gradientTransform="matrix(1.3593 0 0 1.3275 -13.9006 -12.1865)" gradientUnits="userSpaceOnUse">
		<stop  offset="0.1269" style="stop-color:#EBEBEB"/>
		<stop  offset="0.6604" style="stop-color:#F6F6F6"/>
		<stop  offset="1" style="stop-color:#020202"/>
	</radialGradient>
	<ellipse class="st0" cx="100.4" cy="100" rx="83.3" ry="81.4"/>
	
		<radialGradient id="SVGID_2_" cx="84.072" cy="84.5083" r="71.2117" fx="118.3013" fy="59.3457" gradientTransform="matrix(1.3593 0 0 1.3275 -13.9006 -12.1865)" gradientUnits="userSpaceOnUse">
		<stop  offset="0.1269" style="stop-color:#FFFFFF"/>
		<stop  offset="0.8831" style="stop-color:#020202"/>
		<stop  offset="0.9244" style="stop-color:#020202"/>
	</radialGradient>
	<path class="st1" d="M100.4,168.1c-38.5,0-69.8-30.6-69.8-68.1c0-37.6,31.3-68.1,69.8-68.1c38.5,0,69.8,30.6,69.8,68.1
		C170.1,137.6,138.8,168.1,100.4,168.1z"/>
	<g>
		<radialGradient id="SVGID_3_" cx="100.38" cy="100.0011" r="62.2353" gradientUnits="userSpaceOnUse">
			<stop  offset="0" style="stop-color:#26A9E0"/>
			<stop  offset="0" style="stop-color:#020202"/>
			<stop  offset="0" style="stop-color:#4D83C3"/>
			<stop  offset="0" style="stop-color:#1B75BB"/>
			<stop  offset="0" style="stop-color:#F9FAFA"/>
			<stop  offset="1" style="stop-color:#BDDAF3"/>
			<stop  offset="1" style="stop-color:#EB008B"/>
			<stop  offset="1" style="stop-color:#EA028C"/>
			<stop  offset="1" style="stop-color:#E6098F"/>
			<stop  offset="1" style="stop-color:#DF1493"/>
			<stop  offset="1" style="stop-color:#D5259A"/>
			<stop  offset="1" style="stop-color:#C83BA3"/>
			<stop  offset="1" style="stop-color:#B757AF"/>
			<stop  offset="1" style="stop-color:#A477BC"/>
			<stop  offset="1" style="stop-color:#8F9BCB"/>
			<stop  offset="1" style="stop-color:#8AA3CE"/>
			<stop  offset="1" style="stop-color:#70BF44"/>
		</radialGradient>
		<path class="st2" d="M141.8,146.4c-26,22.4-65.8,19.9-88.6-5.7C30.4,115.1,33,76,59,53.6c26-22.4,65.8-19.9,88.6,5.7
			C170.4,84.9,167.8,124,141.8,146.4z"/>
		
			<radialGradient id="SVGID_4_" cx="89.4482" cy="73.9427" r="59.9634" gradientTransform="matrix(1.3593 0 0 1.3275 -13.9006 -12.1865)" gradientUnits="userSpaceOnUse">
			<stop  offset="0" style="stop-color:#26A9E0"/>
			<stop  offset="0" style="stop-color:#020202"/>
			<stop  offset="0" style="stop-color:#4D83C3"/>
			<stop  offset="0" style="stop-color:#1B75BB"/>
			<stop  offset="0" style="stop-color:#F9FAFA"/>
			<stop  offset="0" style="stop-color:#FFFFFF"/>
			<stop  offset="0.1799" style="stop-color:#FAC2E3"/>
			<stop  offset="0.4029" style="stop-color:#F57EC4"/>
			<stop  offset="0.6045" style="stop-color:#F148AC"/>
			<stop  offset="0.7775" style="stop-color:#EE219A"/>
			<stop  offset="0.9151" style="stop-color:#EC098F"/>
			<stop  offset="1" style="stop-color:#EB008B"/>
			<stop  offset="1" style="stop-color:#EA028C"/>
			<stop  offset="1" style="stop-color:#E6098F"/>
			<stop  offset="1" style="stop-color:#DF1493"/>
			<stop  offset="1" style="stop-color:#D5259A"/>
			<stop  offset="1" style="stop-color:#C83BA3"/>
			<stop  offset="1" style="stop-color:#B757AF"/>
			<stop  offset="1" style="stop-color:#A477BC"/>
			<stop  offset="1" style="stop-color:#8F9BCB"/>
			<stop  offset="1" style="stop-color:#8AA3CE"/>
			<stop  offset="1" style="stop-color:#E63825"/>
		</radialGradient>
		<path class="st3" d="M100.4,162.5c-17.7,0-35.3-7.2-47.8-21.3C29.5,115.3,32.1,75.7,58.5,53c12.7-11,29.1-16.4,46.1-15.3
			c17,1.1,32.4,8.6,43.6,21.1c23.1,25.9,20.5,65.5-5.9,88.2C130.2,157.4,115.3,162.5,100.4,162.5z M100.3,39
			c-15,0-29.4,5.3-40.8,15.1c-25.7,22.2-28.3,60.8-5.7,86.1c22.5,25.3,61.8,27.8,87.5,5.6l0.5,0.6l-0.5-0.6
			c12.4-10.7,19.9-25.6,21-41.9c1.1-16.3-4.3-32-15.2-44.2c-10.9-12.2-26-19.6-42.6-20.6C103,39.1,101.7,39,100.3,39z"/>
	</g>
	<g>
		<path d="M106.6,143.8c0.4-1.2,0.8-2.5,1.2-3.7c0-0.1,0.1-0.2,0.1-0.2c1.2-0.8,1.5-2.3,2.6-3.2c0.5-0.4,0.8-1,1.2-1.5
			c0.9-1,1.8-1.9,2.9-2.7c1.3-0.9,2.3-2.2,3.5-3.3c0.7-0.6,1.4-1.1,2.1-1.7c0.6-0.5,1.2-1,1.8-1.6c0.8-0.8,1.6-1.7,2.6-2.3
			c1-0.5,1.5-1.3,2.2-2.1c0.7-0.8,1.6-0.8,2.2,0c0.1,0.1,0.1,0.3,0.1,0.4c0,0.3,0,0.7-0.1,1c-0.1,0.3-0.2,0.5-0.3,0.8
			c-0.3,0.6-0.8,1.2-1,1.8c-0.2,0.5-0.3,1-1,1.1c-0.2,0-0.4,0.4-0.4,0.6c0.1,0.5-0.1,0.9-0.4,1.2c-1.2,1.2-2.3,2.3-3.4,3.5
			c-0.4,0.4-0.7,1-0.8,1.5c-0.2,1.2-1,2-2.1,2.7c-1.4,0.9-2.7,1.8-4.1,2.8c-1,0.7-2,1.4-2.9,2.2c-0.2,0.2-0.4,0.4-0.6,0.6
			c-0.1,0.1-0.2,0.3-0.4,0.4c-1.6,0.3-2.4,1.7-3.8,2.3c-0.2,0.1-0.6,0.2-0.8,0.1C106.8,144.4,106.8,144.1,106.6,143.8z"/>
		<path d="M56.7,70.3c-0.2,0.4-0.3,0.9-0.5,1.3c-0.1,0.3-0.1,0.6,0,0.9c0.2,0.7,0.7,1.1,1.7,0.7c-0.2,0.8-0.3,1.5-0.6,2.2
			c-1.2,3.4-1.6,7-1.5,10.5c0,1.3,0.3,2.5,0.4,3.8c0,0.2-0.1,0.4-0.1,0.6c0,0.1-0.1,0.3,0,0.4c0.9,0.9,0.7,2.1,1.2,3.1
			c0.8,2,1.1,4.2,2.3,6c0.5,0.7,0.1,1.3-1,1.7c-0.8,0.3-1.1-0.3-1.3-0.8c-0.8-1.9-2.4-3.4-3.2-5.3c-0.8-1.8-1.8-3.6-1.4-5.7
			c0.1-0.3-0.2-0.7-0.4-1.1c-0.2-0.4-0.5-0.8-0.5-1.2c0-0.8-0.4-1.5-0.8-2.3c-0.8-1.3-1-2.7-0.3-4.2c1-2.4,2.1-4.7,3.2-7
			c0.5-1,1.1-1.9,1.7-2.9c0.2-0.4,0.6-0.6,1-0.9C56.6,70.2,56.6,70.3,56.7,70.3z"/>
		<path d="M146.9,73.5c0.4-0.6,0.7-1.1,1.2-1.9c0.7,1.1,1.3,2.2,1.9,3.2c0.7,1.3,1.3,2.6,2.1,3.9c0.5,0.9,0.6,1.7,0.3,2.7
			c-0.6,1.7-0.8,3.5-1.2,5.3c-0.4,1.8-0.8,3.6-1.2,5.3c-0.2,0.9-0.4,1.7-0.6,2.6c-0.2,0.6-0.5,1.2-0.8,1.7c-0.5,1.3-1,2.5-1.4,3.8
			c-0.3,0.9-1,1.2-1.8,0.9c-0.9-0.4-1-0.9-0.1-1.9c0.9-1.1,1.2-2.3,1.2-3.7c0-0.1,0-0.2,0-0.3c0.8-1.7,0.9-3.6,1.3-5.4
			c0.3-1.2,0.1-2.5,0.1-3.7c0.1-3.9-0.7-7.7-1.9-11.4C145.5,73.5,145.7,73.2,146.9,73.5z"/>
		<path d="M100.6,68.9c-0.1,1-0.2,2-0.4,3.1c-2-1.6-4.1-3.1-5.9-4.8c-1.8-1.7-3.1-3.7-4.2-5.8c0.1,0,0.2-0.1,0.2-0.1
			c0.4,0.6,0.8,1.2,1.3,1.8c0.1-0.3,0.1-0.4,0.2-0.7c0.7,0.5,1.5,1,2.1,1.5c1.1,0.9,2.1,2,3.3,2.8c1.1,0.8,2.3,1.4,3.6,1.9
			c0.5,0.2,1.4,0,1.9-0.3c1.2-0.7,2.2-1.6,3.4-2.4c0.3-0.1,0.6-0.2,0.8-0.4c0.9-0.8,1.7-1.7,2.6-2.5c0.2-0.2,0.5-0.3,1-0.6
			c-0.1,0.3-0.2,0.5-0.2,0.6c-1.6,2.3-3.4,4.3-5.8,5.9c-0.4,0.3-0.8,0.6-1.3,0.9c-1,0.7-1.4,0.6-1.9-0.5c-0.1-0.2-0.2-0.3-0.3-0.4
			C100.9,68.9,100.8,68.9,100.6,68.9z"/>
		<path d="M131.9,129.9c0.3,0.7-0.1,1.2-0.6,1.6c-2.4,2-4.8,4.1-7.3,6.1c-2.2,1.7-4.5,3.3-6.8,4.9c-0.4,0.3-0.8,0.7-1.3,1
			c-0.1-0.1-0.2-0.2-0.3-0.2c0.4-0.4,0.7-0.9,1.1-1.3c3.2-2.7,6.4-5.4,9.7-8c1.6-1.3,3.1-2.5,4.7-3.8
			C131.4,130.1,131.7,130.1,131.9,129.9C132,130,131.9,129.9,131.9,129.9z"/>
		<path d="M112.1,60.9c-0.5,2.8-8.2,10.8-10.5,11c0.2-0.3,0.3-0.5,0.5-0.7c0.6-0.6,1.2-1.2,2-1.6c2.7-1.7,4.6-3.9,6.4-6.4
			C110.9,62.5,111.5,61.7,112.1,60.9z"/>
		<path d="M105.7,145.7c-0.3,1.1-0.6,2.1-1.9,2.7c-0.5,0.2-1,0.7-1.6,0.9c0.3-0.8,0.6-1.6,0.9-2.3c0.1-0.1,0.4-0.2,0.5-0.2
			c0.8-1.4,1.6-2.8,2.4-4.2c0.1,0,0.1,0,0.2,0c-0.2,0.7-0.4,1.5-0.5,2.2C105.6,145.1,105.7,145.4,105.7,145.7
			C105.7,145.7,105.7,145.7,105.7,145.7z"/>
		<path d="M56.1,60.1c-0.1,0.4-0.2,0.8-0.4,1.1c-0.1,0.2-0.2,0.5-0.4,0.6c-1.3,0.9-2.7,1.8-4,2.6c-0.2,0.1-0.5,0.2-0.6,0.2
			c0.1-0.5,0.2-0.9,0.4-1.4c0-0.1,0.2-0.3,0.3-0.3c1.5-1,3.1-2,4.6-3C56,60,56.1,60,56.1,60.1z"/>
		<path d="M51.1,78.4c0.1-2.7,1.7-4.7,3.5-6.7c-1.1,2.3-2.2,4.5-3.3,6.8C51.2,78.4,51.1,78.4,51.1,78.4z"/>
		<path d="M119.5,139.2c-1.7,1.5-3.3,2.9-5,4.3c-0.1,0-0.1-0.1-0.2-0.1c0.1-0.2,0.1-0.5,0.3-0.6c1.5-1.2,3-2.4,4.5-3.6
			C119.2,139.1,119.3,139.1,119.5,139.2z"/>
		<path d="M110.3,145c1.5-1,2.7-2.3,4.4-3c-1.3,1.2-2.4,2.6-4.1,3.3C110.5,145.2,110.4,145.1,110.3,145z"/>
		<path d="M131.9,129.9C131.9,129.9,132,130,131.9,129.9c0.2-1.1,1.4-1.5,2.1-2.2c0.1,0,0.1,0.1,0.2,0.1c-0.4,0.6-0.7,1.3-1.1,1.8
			C132.8,129.9,132.3,129.9,131.9,129.9z"/>
		<path d="M130,130.4c-1,0.8-2.1,1.6-3.1,2.4c-0.1-0.1-0.1-0.2-0.2-0.2c1-0.9,1.9-1.8,3.1-2.3C129.9,130.2,130,130.3,130,130.4z"/>
		<path d="M96.7,146.5c0-1.1,0-2,0-3c0,0,0.1,0,0.1,0c0.2,0.8,0.5,1.6,0.6,2.5C97.6,146.7,97.1,146.6,96.7,146.5z"/>
		<path d="M113.4,141.6c0.9-0.6,1.7-1,2.6-1.6C115.3,141,114.1,141.8,113.4,141.6z"/>
		<path class="st4" d="M105.7,145.7C105.7,145.7,105.7,145.7,105.7,145.7C105.7,145.7,105.7,145.7,105.7,145.7z"/>
	</g>
</g>
<g id="Layer_1">
</g>
</svg>
