<?xml version="1.0" encoding="utf-8"?>
<!-- Generator: Adobe Illustrator 24.3.0, SVG Export Plug-In . SVG Version: 6.00 Build 0)  -->
<svg version="1.1" xmlns="http://www.w3.org/2000/svg" xmlns:xlink="http://www.w3.org/1999/xlink" x="0px" y="0px"
	 viewBox="0 0 200 200" style="enable-background:new 0 0 200 200;" xml:space="preserve">
<style type="text/css">
	.st0{fill:url(#SVGID_1_);stroke:#BBBDBF;stroke-miterlimit:10;}
	.st1{fill:url(#SVGID_2_);stroke:#231F20;stroke-miterlimit:10;}
	.st2{fill:url(#SVGID_3_);}
	.st3{fill:url(#SVGID_4_);}
	.st4{fill:url(#SVGID_5_);stroke:#000000;stroke-width:0.25;stroke-miterlimit:10;}
	.st5{fill:#00EFEF;stroke:#000000;stroke-width:0.25;stroke-miterlimit:10;}
	.st6{fill:none;stroke:#000000;stroke-width:0.25;stroke-linecap:round;stroke-linejoin:round;stroke-miterlimit:13.3333;}
	.st7{fill:url(#SVGID_6_);stroke:#000000;stroke-width:0.25;stroke-miterlimit:10;}
	.st8{fill:#D887C7;stroke:#000000;stroke-width:0.25;stroke-miterlimit:10;}
	.st9{fill:#8CF7F7;stroke:#000000;stroke-width:0.25;stroke-miterlimit:10;}
	.st10{fill:none;stroke:#000000;stroke-width:0.25;stroke-linejoin:round;stroke-miterlimit:13.3333;}
	.st11{fill:url(#SVGID_7_);stroke:#000000;stroke-width:0.25;stroke-miterlimit:10;}
	.st12{fill:#00E4E4;stroke:#000000;stroke-width:0.25;stroke-linejoin:round;stroke-miterlimit:13.3333;}
	.st13{fill:url(#SVGID_8_);stroke:#000000;stroke-width:0.25;stroke-miterlimit:10;}
	.st14{fill:url(#SVGID_9_);stroke:#000000;stroke-width:0.25;stroke-miterlimit:10;}
	.st15{fill:url(#SVGID_10_);stroke:#000000;stroke-width:0.25;stroke-miterlimit:10;}
	.st16{fill:#00E4E4;stroke:#000000;stroke-width:0.25;stroke-miterlimit:10;}
	.st17{fill:#E3A6D6;stroke:#000000;stroke-width:0.25;stroke-miterlimit:10;}
</style>
<g id="Layer_2">
	
		<radialGradient id="SVGID_1_" cx="84.0719" cy="84.5082" r="61.3141" gradientTransform="matrix(1.3593 0 0 1.3275 -13.9006 -12.1865)" gradientUnits="userSpaceOnUse">
		<stop  offset="0.1269" style="stop-color:#EBEBEB"/>
		<stop  offset="0.6604" style="stop-color:#F6F6F6"/>
		<stop  offset="1" style="stop-color:#020202"/>
	</radialGradient>
	<ellipse class="st0" cx="100.4" cy="100" rx="83.3" ry="81.4"/>
	
		<radialGradient id="SVGID_2_" cx="84.072" cy="84.5083" r="71.2117" fx="118.3013" fy="59.3457" gradientTransform="matrix(1.3593 0 0 1.3275 -13.9006 -12.1865)" gradientUnits="userSpaceOnUse">
		<stop  offset="0.1269" style="stop-color:#FFFFFF"/>
		<stop  offset="0.8831" style="stop-color:#020202"/>
		<stop  offset="0.9244" style="stop-color:#020202"/>
	</radialGradient>
	<path class="st1" d="M100.4,168.1c-38.5,0-69.8-30.6-69.8-68.1c0-37.6,31.3-68.1,69.8-68.1c38.5,0,69.8,30.6,69.8,68.1
		C170.1,137.6,138.8,168.1,100.4,168.1z"/>
	<g>
		<radialGradient id="SVGID_3_" cx="100.38" cy="100.0011" r="62.2353" gradientUnits="userSpaceOnUse">
			<stop  offset="0" style="stop-color:#26A9E0"/>
			<stop  offset="0" style="stop-color:#020202"/>
			<stop  offset="0" style="stop-color:#4D83C3"/>
			<stop  offset="0" style="stop-color:#1B75BB"/>
			<stop  offset="0" style="stop-color:#F9FAFA"/>
			<stop  offset="1" style="stop-color:#BDDAF3"/>
			<stop  offset="1" style="stop-color:#EB008B"/>
			<stop  offset="1" style="stop-color:#EA028C"/>
			<stop  offset="1" style="stop-color:#E6098F"/>
			<stop  offset="1" style="stop-color:#DF1493"/>
			<stop  offset="1" style="stop-color:#D5259A"/>
			<stop  offset="1" style="stop-color:#C83BA3"/>
			<stop  offset="1" style="stop-color:#B757AF"/>
			<stop  offset="1" style="stop-color:#A477BC"/>
			<stop  offset="1" style="stop-color:#8F9BCB"/>
			<stop  offset="1" style="stop-color:#8AA3CE"/>
			<stop  offset="1" style="stop-color:#70BF44"/>
		</radialGradient>
		<path class="st2" d="M141.8,146.4c-26,22.4-65.8,19.9-88.6-5.7C30.4,115.1,33,76,59,53.6c26-22.4,65.8-19.9,88.6,5.7
			C170.4,84.9,167.8,124,141.8,146.4z"/>
		
			<radialGradient id="SVGID_4_" cx="89.4482" cy="73.9427" r="59.9634" gradientTransform="matrix(1.3593 0 0 1.3275 -13.9006 -12.1865)" gradientUnits="userSpaceOnUse">
			<stop  offset="0" style="stop-color:#26A9E0"/>
			<stop  offset="0" style="stop-color:#020202"/>
			<stop  offset="0" style="stop-color:#4D83C3"/>
			<stop  offset="0" style="stop-color:#1B75BB"/>
			<stop  offset="0" style="stop-color:#F9FAFA"/>
			<stop  offset="0" style="stop-color:#FFFFFF"/>
			<stop  offset="0.1799" style="stop-color:#FAC2E3"/>
			<stop  offset="0.4029" style="stop-color:#F57EC4"/>
			<stop  offset="0.6045" style="stop-color:#F148AC"/>
			<stop  offset="0.7775" style="stop-color:#EE219A"/>
			<stop  offset="0.9151" style="stop-color:#EC098F"/>
			<stop  offset="1" style="stop-color:#EB008B"/>
			<stop  offset="1" style="stop-color:#EA028C"/>
			<stop  offset="1" style="stop-color:#E6098F"/>
			<stop  offset="1" style="stop-color:#DF1493"/>
			<stop  offset="1" style="stop-color:#D5259A"/>
			<stop  offset="1" style="stop-color:#C83BA3"/>
			<stop  offset="1" style="stop-color:#B757AF"/>
			<stop  offset="1" style="stop-color:#A477BC"/>
			<stop  offset="1" style="stop-color:#8F9BCB"/>
			<stop  offset="1" style="stop-color:#8AA3CE"/>
			<stop  offset="1" style="stop-color:#E63825"/>
		</radialGradient>
		<path class="st3" d="M100.4,162.5c-17.7,0-35.3-7.2-47.8-21.3C29.5,115.3,32.1,75.7,58.5,53c12.7-11,29.1-16.4,46.1-15.3
			c17,1.1,32.4,8.6,43.6,21.1c23.1,25.9,20.5,65.5-5.9,88.2C130.2,157.4,115.3,162.5,100.4,162.5z M100.3,39
			c-15,0-29.4,5.3-40.8,15.1c-25.7,22.2-28.3,60.8-5.7,86.1c22.5,25.3,61.8,27.8,87.5,5.6l0.5,0.6l-0.5-0.6
			c12.4-10.7,19.9-25.6,21-41.9c1.1-16.3-4.3-32-15.2-44.2c-10.9-12.2-26-19.6-42.6-20.6C103,39.1,101.7,39,100.3,39z"/>
	</g>
	
		<linearGradient id="SVGID_5_" gradientUnits="userSpaceOnUse" x1="-201.4638" y1="491.8648" x2="-200.8219" y2="491.8648" gradientTransform="matrix(61.3332 0 0 -61.3332 12437.6357 30234.2578)">
		<stop  offset="0" style="stop-color:#D887C7"/>
		<stop  offset="5.034530e-03" style="stop-color:#D887C7"/>
		<stop  offset="1" style="stop-color:#00E4E4"/>
	</linearGradient>
	<path class="st4" d="M81.8,67.7c-0.1,0.5-0.2,0.9-0.3,1.4c-0.2,0.9-0.3,1.8-0.3,2.7v6.6h39.4v-6.6c0-0.9-0.1-1.8-0.3-2.7
		c-0.1-0.4-0.2-0.9-0.3-1.4c-0.8-3-2.6-5.7-5.2-7.9c-3.7-3.2-8.7-5-13.9-5C91.8,54.8,84,60.1,81.8,67.7"/>
	<g transform="matrix(1.33333 0 0 -1.33333 0 200)">
		<path class="st5" d="M75.7,110c-7.5,0-13.9-4.5-15.6-10.5c-0.1-0.4-0.2-0.7-0.3-1.1c-0.1-0.7-0.2-1.5-0.2-2.2v-6.1h32.1v6.1
			c0,0.8-0.1,1.5-0.2,2.2c-0.1,0.4-0.2,0.7-0.3,1.1c-0.7,2.5-2.2,4.7-4.2,6.4C84.1,108.4,80.1,110,75.7,110 M75.7,107.8
			c3.6,0,7-1.2,9.5-3.4c1.7-1.5,3-3.4,3.6-5.4c0.1-0.3,0.2-0.6,0.2-0.9c0.1-0.6,0.2-1.2,0.2-1.9v-3.9h-27v3.9c0,0.6,0.1,1.2,0.2,1.9
			c0.1,0.3,0.1,0.6,0.2,0.9C64.1,104.1,69.5,107.8,75.7,107.8"/>
		<path class="st6" d="M91.7,96.2v-6.1H59.6v6.1c0,0.8,0.1,1.5,0.2,2.2c0.1,0.4,0.2,0.7,0.3,1.1c1.7,6,8,10.5,15.6,10.5
			c4.4,0,8.4-1.5,11.3-4c2-1.8,3.5-4,4.2-6.4c0.1-0.4,0.2-0.7,0.3-1.1C91.7,97.7,91.7,96.9,91.7,96.2L91.7,96.2z"/>
	</g>
	
		<linearGradient id="SVGID_6_" gradientUnits="userSpaceOnUse" x1="-201.4638" y1="492.3273" x2="-200.8219" y2="492.3273" gradientTransform="matrix(61.3332 0 0 -61.3332 12437.6357 30297.5918)">
		<stop  offset="0" style="stop-color:#D887C7"/>
		<stop  offset="5.034530e-03" style="stop-color:#D887C7"/>
		<stop  offset="1" style="stop-color:#00EFEF"/>
	</linearGradient>
	<path class="st7" d="M81.2,121.8h39.4V81.3H81.2V121.8z"/>
	<g transform="matrix(1.33333 0 0 -1.33333 0 200)">
		<path class="st5" d="M91.7,90.1H59.6V57.5h32.1V90.1z M89.2,59.7h-27v28.2h27V59.7z"/>
		<path class="st6" d="M91.7,57.5H59.6v32.6h32.1V57.5z"/>
		<path class="st8" d="M93.3,46.5l2,7.7h5.6l2-7.7H93.3z"/>
		<path class="st9" d="M102,55.3h-7.7l-2.6-9.9h12.8L102,55.3z M99.9,53.1l1.4-5.5h-6.4l1.4,5.5h3.7"/>
		<path class="st10" d="M94.3,55.3h7.7l2.6-9.9H91.7L94.3,55.3z"/>
	</g>
	
		<linearGradient id="SVGID_7_" gradientUnits="userSpaceOnUse" x1="-200.9603" y1="492.0014" x2="-200.3183" y2="492.0014" gradientTransform="matrix(53.3332 0 0 -53.3332 10801.6396 26366.2676)">
		<stop  offset="0" style="stop-color:#D887C7"/>
		<stop  offset="0.2285" style="stop-color:#D887C7"/>
		<stop  offset="1" style="stop-color:#00E4E4"/>
	</linearGradient>
	<path class="st11" d="M83.8,123.3l4.1,5.9h26.1l4.1-5.9H83.8z"/>
	<g transform="matrix(1.33333 0 0 -1.33333 0 200)">
		<path class="st6" d="M85.5,53.1H65.9l-3.1,4.4h25.7L85.5,53.1z"/>
		<path class="st12" d="M100.7,71.9h-5.1V55.3h5.1V71.9z"/>
	</g>
	
		<linearGradient id="SVGID_8_" gradientUnits="userSpaceOnUse" x1="-198.4866" y1="501.0403" x2="-197.9345" y2="501.0403" gradientTransform="matrix(0 46.7082 46.7082 0 -23270.9844 9350.8115)">
		<stop  offset="0" style="stop-color:#00E4E4"/>
		<stop  offset="0.7715" style="stop-color:#D887C7"/>
		<stop  offset="1" style="stop-color:#D887C7"/>
	</linearGradient>
	<path class="st13" d="M127.4,105.6h8.6V87.2c0-4.1-3.8-7.4-8.6-7.4V105.6z"/>
	<g transform="matrix(1.33333 0 0 -1.33333 0 200)">
		<path class="st10" d="M95.6,90.1V70.8h6.4v13.8C102,87.6,99.1,90.1,95.6,90.1z"/>
		<path class="st8" d="M48.4,46.5l2,7.7H56l2-7.7H48.4z"/>
		<path class="st9" d="M57.1,55.3h-7.7l-2.6-9.9h12.8L57.1,55.3z M55,53.1l1.4-5.5H50l1.4,5.5h3.7"/>
		<path class="st10" d="M57.1,55.3h-7.7l-2.6-9.9h12.8L57.1,55.3z"/>
		<path class="st12" d="M50.6,71.9h5.1V55.3h-5.1V71.9z"/>
	</g>
	
		<linearGradient id="SVGID_9_" gradientUnits="userSpaceOnUse" x1="-198.4866" y1="501.7762" x2="-197.9345" y2="501.7762" gradientTransform="matrix(0 46.7082 46.7082 0 -23366.9844 9350.8115)">
		<stop  offset="0" style="stop-color:#00E4E4"/>
		<stop  offset="0.7715" style="stop-color:#D887C7"/>
		<stop  offset="1" style="stop-color:#D887C7"/>
	</linearGradient>
	<path class="st14" d="M65.8,87.2v18.4h8.6V79.9C69.6,79.9,65.8,83.1,65.8,87.2"/>
	<g transform="matrix(1.33333 0 0 -1.33333 0 200)">
		<path class="st10" d="M55.8,90.1V70.8h-6.4v13.8C49.4,87.6,52.2,90.1,55.8,90.1z M91.7,96.2v-2.8H59.6v2.8c0,0.8,0.1,1.7,0.2,2.2
			h31.7C91.7,97.8,91.7,96.9,91.7,96.2z"/>
	</g>
	
		<linearGradient id="SVGID_10_" gradientUnits="userSpaceOnUse" x1="-197.0996" y1="485.2338" x2="-196.4576" y2="485.2338" gradientTransform="matrix(26.6666 0 0 -26.6666 5348.3198 13007.6338)">
		<stop  offset="0" style="stop-color:#56F4F4"/>
		<stop  offset="0.7715" style="stop-color:#D887C7"/>
		<stop  offset="1" style="stop-color:#D887C7"/>
	</linearGradient>
	<path class="st15" d="M92.3,75.5h17.1V60.7H92.3V75.5z"/>
	<path class="st10" d="M109.5,75.5H92.3V60.7h17.1V75.5z"/>
	<path class="st16" d="M104.7,67.7c0,1.8-1.7,3.3-3.9,3.3c-2.1,0-3.9-1.5-3.9-3.3s1.7-3.3,3.9-3.3C103,64.4,104.7,65.9,104.7,67.7"
		/>
	<path class="st10" d="M104.7,67.7c0,1.8-1.7,3.3-3.9,3.3c-2.1,0-3.9-1.5-3.9-3.3s1.7-3.3,3.9-3.3C103,64.4,104.7,65.9,104.7,67.7z"
		/>
	<path class="st6" d="M88.9,85.8H112 M88.9,90.2H112 M88.9,94.6H112"/>
	<path class="st16" d="M90.6,102h6.8v11.8h-6.8V102z"/>
	<path class="st17" d="M99.2,100.5H88.9v14.7h10.3V100.5z M95.8,112.3h-3.4v-8.8h3.4V112.3z"/>
	<path class="st10" d="M99.2,115.2H88.9v-14.7h10.3V115.2z"/>
</g>
<g id="Layer_1">
</g>
</svg>
