<?xml version="1.0" encoding="utf-8"?>
<!-- Generator: Adobe Illustrator 24.3.0, SVG Export Plug-In . SVG Version: 6.00 Build 0)  -->
<svg version="1.1" xmlns="http://www.w3.org/2000/svg" xmlns:xlink="http://www.w3.org/1999/xlink" x="0px" y="0px"
	 viewBox="0 0 200 200" style="enable-background:new 0 0 200 200;" xml:space="preserve">
<style type="text/css">
	.st0{fill:url(#SVGID_1_);stroke:#BBBDBF;stroke-miterlimit:10;}
	.st1{fill:url(#SVGID_2_);stroke:#231F20;stroke-miterlimit:10;}
	.st2{fill:url(#SVGID_3_);}
	.st3{fill:url(#SVGID_4_);}
	.st4{fill:url(#SVGID_5_);}
	.st5{clip-path:url(#SVGID_6_);}
	.st6{fill:#8CF7F7;}
	.st7{fill:none;stroke:#303030;stroke-linecap:round;stroke-linejoin:round;stroke-miterlimit:13.3333;}
	.st8{fill:#00E4E4;}
	.st9{fill:none;stroke:#303030;stroke-linejoin:round;stroke-miterlimit:13.3333;}
	.st10{fill:url(#SVGID_7_);}
	.st11{clip-path:url(#SVGID_8_);}
	.st12{fill:#75F5F5;}
	.st13{fill:url(#SVGID_9_);}
	.st14{clip-path:url(#SVGID_10_);}
	.st15{fill:#E3A6D6;}
	.st16{fill:none;stroke:#303030;stroke-miterlimit:13.3333;}
	.st17{fill:url(#SVGID_11_);}
	.st18{clip-path:url(#SVGID_12_);}
	.st19{fill:url(#SVGID_13_);}
	.st20{clip-path:url(#SVGID_14_);}
	.st21{fill:url(#SVGID_15_);}
	.st22{clip-path:url(#SVGID_16_);}
	.st23{opacity:0.2;clip-path:url(#SVGID_17_);}
	.st24{fill:#303030;}
	.st25{fill:#00E4E4;stroke:#303030;stroke-miterlimit:13.3333;}
	.st26{fill:url(#SVGID_18_);stroke:#000000;stroke-miterlimit:10;}
	.st27{fill:url(#SVGID_19_);}
	.st28{fill:url(#SVGID_20_);}
	.st29{fill:url(#SVGID_21_);}
</style>
<g id="Layer_2">
	
		<radialGradient id="SVGID_1_" cx="84.0719" cy="84.5082" r="61.3141" gradientTransform="matrix(1.3593 0 0 1.3275 -13.9006 -12.1865)" gradientUnits="userSpaceOnUse">
		<stop  offset="0.1269" style="stop-color:#EBEBEB"/>
		<stop  offset="0.6604" style="stop-color:#F6F6F6"/>
		<stop  offset="1" style="stop-color:#020202"/>
	</radialGradient>
	<ellipse class="st0" cx="100.4" cy="100" rx="83.3" ry="81.4"/>
	
		<radialGradient id="SVGID_2_" cx="84.072" cy="84.5083" r="71.2117" fx="118.3013" fy="59.3457" gradientTransform="matrix(1.3593 0 0 1.3275 -13.9006 -12.1865)" gradientUnits="userSpaceOnUse">
		<stop  offset="0.1269" style="stop-color:#FFFFFF"/>
		<stop  offset="0.8831" style="stop-color:#020202"/>
		<stop  offset="0.9244" style="stop-color:#020202"/>
	</radialGradient>
	<path class="st1" d="M100.4,168.1c-38.5,0-69.8-30.6-69.8-68.1c0-37.6,31.3-68.1,69.8-68.1c38.5,0,69.8,30.6,69.8,68.1
		C170.1,137.6,138.8,168.1,100.4,168.1z"/>
	<g>
		<radialGradient id="SVGID_3_" cx="100.38" cy="100.0011" r="62.2353" gradientUnits="userSpaceOnUse">
			<stop  offset="0" style="stop-color:#26A9E0"/>
			<stop  offset="0" style="stop-color:#020202"/>
			<stop  offset="0" style="stop-color:#4D83C3"/>
			<stop  offset="0" style="stop-color:#1B75BB"/>
			<stop  offset="0" style="stop-color:#F9FAFA"/>
			<stop  offset="1" style="stop-color:#BDDAF3"/>
			<stop  offset="1" style="stop-color:#EB008B"/>
			<stop  offset="1" style="stop-color:#EA028C"/>
			<stop  offset="1" style="stop-color:#E6098F"/>
			<stop  offset="1" style="stop-color:#DF1493"/>
			<stop  offset="1" style="stop-color:#D5259A"/>
			<stop  offset="1" style="stop-color:#C83BA3"/>
			<stop  offset="1" style="stop-color:#B757AF"/>
			<stop  offset="1" style="stop-color:#A477BC"/>
			<stop  offset="1" style="stop-color:#8F9BCB"/>
			<stop  offset="1" style="stop-color:#8AA3CE"/>
			<stop  offset="1" style="stop-color:#70BF44"/>
		</radialGradient>
		<path class="st2" d="M141.8,146.4c-26,22.4-65.8,19.9-88.6-5.7C30.4,115.1,33,76,59,53.6c26-22.4,65.8-19.9,88.6,5.7
			C170.4,84.9,167.8,124,141.8,146.4z"/>
		
			<radialGradient id="SVGID_4_" cx="89.4482" cy="73.9427" r="59.9634" gradientTransform="matrix(1.3593 0 0 1.3275 -13.9006 -12.1865)" gradientUnits="userSpaceOnUse">
			<stop  offset="0" style="stop-color:#26A9E0"/>
			<stop  offset="0" style="stop-color:#020202"/>
			<stop  offset="0" style="stop-color:#4D83C3"/>
			<stop  offset="0" style="stop-color:#1B75BB"/>
			<stop  offset="0" style="stop-color:#F9FAFA"/>
			<stop  offset="0" style="stop-color:#FFFFFF"/>
			<stop  offset="0.1799" style="stop-color:#FAC2E3"/>
			<stop  offset="0.4029" style="stop-color:#F57EC4"/>
			<stop  offset="0.6045" style="stop-color:#F148AC"/>
			<stop  offset="0.7775" style="stop-color:#EE219A"/>
			<stop  offset="0.9151" style="stop-color:#EC098F"/>
			<stop  offset="1" style="stop-color:#EB008B"/>
			<stop  offset="1" style="stop-color:#EA028C"/>
			<stop  offset="1" style="stop-color:#E6098F"/>
			<stop  offset="1" style="stop-color:#DF1493"/>
			<stop  offset="1" style="stop-color:#D5259A"/>
			<stop  offset="1" style="stop-color:#C83BA3"/>
			<stop  offset="1" style="stop-color:#B757AF"/>
			<stop  offset="1" style="stop-color:#A477BC"/>
			<stop  offset="1" style="stop-color:#8F9BCB"/>
			<stop  offset="1" style="stop-color:#8AA3CE"/>
			<stop  offset="1" style="stop-color:#E63825"/>
		</radialGradient>
		<path class="st3" d="M100.4,162.5c-17.7,0-35.3-7.2-47.8-21.3C29.5,115.3,32.1,75.7,58.5,53c12.7-11,29.1-16.4,46.1-15.3
			c17,1.1,32.4,8.6,43.6,21.1c23.1,25.9,20.5,65.5-5.9,88.2C130.2,157.4,115.3,162.5,100.4,162.5z M100.3,39
			c-15,0-29.4,5.3-40.8,15.1c-25.7,22.2-28.3,60.8-5.7,86.1c22.5,25.3,61.8,27.8,87.5,5.6l0.5,0.6l-0.5-0.6
			c12.4-10.7,19.9-25.6,21-41.9c1.1-16.3-4.3-32-15.2-44.2c-10.9-12.2-26-19.6-42.6-20.6C103,39.1,101.7,39,100.3,39z"/>
	</g>
	<g>
		
			<linearGradient id="SVGID_5_" gradientUnits="userSpaceOnUse" x1="-202.421" y1="496.426" x2="-201.777" y2="496.426" gradientTransform="matrix(174.6662 0 0 -174.6662 35621.5781 86614.3281)">
			<stop  offset="0" style="stop-color:#D887C7"/>
			<stop  offset="5.034530e-03" style="stop-color:#D887C7"/>
			<stop  offset="1" style="stop-color:#00EFEF"/>
		</linearGradient>
		<path class="st4" d="M277.6-124.2c-7.8,7.9-12.1,18.4-12.1,29.7c0,11.1,4.3,21.5,12,29.3c5.1,5.2,11.5,8.9,18.5,10.8l3.3-3.7
			c0.3-0.4,0.8-0.6,1.3-0.6c0.1,0,0.2,0,0.3,0c1.9,0.3,3.9,0.5,5.8,0.5c1.9,0,3.9-0.2,5.8-0.5c0.1,0,0.2,0,0.3,0
			c0.5,0,0.9,0.2,1.3,0.6l3.2,3.5c22.4-6,55.2-26.3,60.7-29.8v-4.3h-16.3c-0.9,0-1.7-0.8-1.7-1.7V-99c0-0.5,0.2-0.9,0.5-1.2
			c0.3-0.3,0.8-0.5,1.2-0.5c0,0,16.3,0,16.3,0v-4.3c-5.5-3.5-38.4-23.8-60.7-29.6l-3.2,3.4c-0.3,0.3-0.8,0.5-1.2,0.5
			c-0.1,0-0.2,0-0.3,0c-1.9-0.3-3.9-0.5-5.8-0.5c-1.9,0-3.9,0.2-5.8,0.5c-0.1,0-0.2,0-0.3,0c-0.5,0-0.9-0.2-1.2-0.5l-3.3-3.5
			C289.1-133,282.7-129.4,277.6-124.2"/>
		<g>
			<defs>
				<rect id="SVGID_22_" x="252.6" y="-160" width="128.8" height="130.6"/>
			</defs>
			<clipPath id="SVGID_6_">
				<use xlink:href="#SVGID_22_"  style="overflow:visible;"/>
			</clipPath>
			<g transform="matrix(1.33333 0 0 -1.33333 0 200)" class="st5">
				<path class="st6" d="M222.4,252.5c-5.8-1.3-11-4.3-15.1-8.5c-5.9-5.9-9.5-14.1-9.5-23.2c0-9,3.6-17.1,9.4-22.9
					c4.1-4.2,9.4-7.2,15.2-8.7l3,3.4c1.5-0.2,3-0.4,4.6-0.4c1.6,0,3.1,0.1,4.6,0.4l2.9-3.2c18.7,4.7,47.2,23.1,47.2,23.1v5.2h-13.5
					v6.5l13.5,0v5.3c0,0-28.6,18.4-47.3,22.9l-2.9-3.1c-1.5,0.2-3,0.4-4.6,0.4c-1.6,0-3.1-0.1-4.6-0.4L222.4,252.5z M221.6,249.6
					l2-2.1c0.5-0.5,1.2-0.8,1.9-0.8c0.1,0,0.3,0,0.4,0c1.4,0.2,2.8,0.3,4.2,0.3c1.4,0,2.8-0.1,4.2-0.3c0.1,0,0.3,0,0.4,0
					c0.7,0,1.4,0.3,1.9,0.8l1.9,2c15.9-4.4,38.5-18.1,43.9-21.5v-1.2l-10.9,0h0c-0.7,0-1.3-0.3-1.8-0.8c-0.5-0.5-0.8-1.2-0.8-1.8
					v-6.5c0-1.4,1.2-2.6,2.6-2.6h10.9V214c-5.4-3.4-27.9-17.1-43.8-21.6l-1.9,2.1c-0.5,0.5-1.2,0.8-1.9,0.8c-0.1,0-0.3,0-0.4,0
					c-1.4-0.2-2.8-0.3-4.2-0.3c-1.4,0-2.8,0.1-4.2,0.3c-0.1,0-0.3,0-0.4,0c-0.7,0-1.4-0.3-1.9-0.9l-2-2.2c-4.7,1.4-9,4-12.6,7.6
					c-5.6,5.6-8.6,13.1-8.6,21.1c0,8.1,3.1,15.7,8.7,21.3C212.6,245.8,216.9,248.3,221.6,249.6"/>
				<path class="st7" d="M271.2,224.3v-6.5h13.5v-5.2c0,0-28.5-18.3-47.2-23.1l-2.9,3.2c-1.5-0.2-3-0.4-4.6-0.4
					c-1.6,0-3.1,0.1-4.6,0.4l-3-3.4c-5.9,1.4-11.1,4.5-15.2,8.7c-5.8,5.9-9.4,13.9-9.4,22.9c0,9,3.6,17.3,9.5,23.2
					c4.1,4.2,9.3,7.2,15.1,8.5l3-3.2c1.5,0.2,3,0.4,4.6,0.4c1.6,0,3.1-0.1,4.6-0.4l2.9,3.1c18.7-4.6,47.3-22.9,47.3-22.9v-5.3
					L271.2,224.3z"/>
				<path class="st8" d="M234.6,192.5c0.1-2.1-1.5-4-3.7-4.1c-0.3,0-0.6,0-0.9,0c-0.3,0-0.5,0-0.8,0c-2.2,0.1-3.9,1.9-3.8,4.1l0,0.2
					c1.5-0.2,3-0.4,4.6-0.4c1.6,0,3.1,0.1,4.6,0.4L234.6,192.5z"/>
				<path class="st9" d="M234.6,192.5c0.1-2.1-1.5-4-3.7-4.1c-0.3,0-0.6,0-0.9,0c-0.3,0-0.5,0-0.8,0c-2.2,0.1-3.9,1.9-3.8,4.1l0,0.2
					c1.5-0.2,3-0.4,4.6-0.4c1.6,0,3.1,0.1,4.6,0.4L234.6,192.5z"/>
				<path class="st8" d="M234.6,249.4c-1.5,0.2-3,0.4-4.6,0.4c-1.6,0-3.1-0.1-4.6-0.4c0,0.1,0,0.1,0,0.2c0,2.1,1.7,3.9,3.8,3.9
					c0.5,0,1.1,0,1.6,0C233,253.4,234.7,251.6,234.6,249.4"/>
				<path class="st9" d="M234.6,249.4c-1.5,0.2-3,0.4-4.6,0.4c-1.6,0-3.1-0.1-4.6-0.4c0,0.1,0,0.1,0,0.2c0,2.1,1.7,3.9,3.8,3.9
					c0.5,0,1.1,0,1.6,0C233,253.4,234.7,251.6,234.6,249.4z M241.6,221c0-1.7-0.3-3.3-1-4.7c-0.2-0.5-0.5-1-0.8-1.5
					c-1.1-1.7-2.6-3.1-4.3-4.1c-1.6-0.9-3.5-1.4-5.5-1.4c-3.2,0-6.1,1.3-8.2,3.4c-2.1,2.1-3.4,5.1-3.4,8.3c0,1.9,0.4,3.7,1.2,5.3
					c0.6,1.1,1.3,2.2,2.2,3c0.7,0.8,1.6,1.4,2.5,1.9c1.7,1,3.6,1.5,5.7,1.5c4.7,0,8.8-2.9,10.6-7C241.3,224.3,241.6,222.7,241.6,221
					z"/>
			</g>
		</g>
		
			<linearGradient id="SVGID_7_" gradientUnits="userSpaceOnUse" x1="-205.7222" y1="493.1814" x2="-205.0693" y2="493.1814" gradientTransform="matrix(0 -111.9997 -111.9997 0 55542.8633 -23098.9434)">
			<stop  offset="0" style="stop-color:#00E4E4"/>
			<stop  offset="0.7715" style="stop-color:#CC67B9"/>
			<stop  offset="1" style="stop-color:#CC67B9"/>
		</linearGradient>
		<path class="st10" d="M302.4-131l1.7,36.2c0,0.1,0,0.1,0,0.2l-1.7,36.2c1.4,0.2,2.9,0.3,4.3,0.3s2.9-0.1,4.3-0.3l-1.7-36.2
			c0-0.1,0-0.1,0-0.2L311-131c-1.4-0.2-2.9-0.3-4.3-0.3S303.8-131.1,302.4-131"/>
		<g>
			<defs>
				<rect id="SVGID_25_" x="252.6" y="-160" width="128.8" height="130.6"/>
			</defs>
			<clipPath id="SVGID_8_">
				<use xlink:href="#SVGID_25_"  style="overflow:visible;"/>
			</clipPath>
			<g transform="matrix(1.33333 0 0 -1.33333 0 200)" class="st11">
				<path class="st6" d="M230,249.7c-1.6,0-3.1-0.1-4.6-0.4l1.4-28.3l-1.4-28.3c1.5-0.2,3-0.4,4.6-0.4c1.6,0,3.1,0.1,4.6,0.4
					l-1.4,28.3l1.4,28.3C233.1,249.6,231.6,249.7,230,249.7 M230,247.1c0.6,0,1.3,0,1.9-0.1l-1.2-25.9c0-0.1,0-0.2,0-0.3l1.2-25.9
					c-0.6,0-1.3-0.1-1.9-0.1c-0.6,0-1.3,0-1.9,0.1l1.2,25.9c0,0.1,0,0.2,0,0.3l-1.2,25.9C228.7,247.1,229.4,247.1,230,247.1"/>
				<path class="st12" d="M230,249.7c-1.6,0-3.1-0.1-4.6-0.4l1.4-28.3l-1.4-28.3c1.5-0.2,3-0.4,4.6-0.4c1.6,0,3.1,0.1,4.6,0.4
					l-1.4,28.3l1.4,28.3C233.1,249.6,231.6,249.7,230,249.7 M230,247.1c0.6,0,1.3,0,1.9-0.1l-1.2-25.9c0-0.1,0-0.2,0-0.3l1.2-25.9
					c-0.6,0-1.3-0.1-1.9-0.1c-0.6,0-1.3,0-1.9,0.1l1.2,25.9c0,0.1,0,0.2,0,0.3l-1.2,25.9C228.7,247.1,229.4,247.1,230,247.1"/>
				<path class="st7" d="M233.2,221l1.4-28.3c-1.5-0.2-3-0.4-4.6-0.4c-1.6,0-3.1,0.1-4.6,0.4l1.4,28.3l-1.4,28.3
					c1.5,0.2,3,0.4,4.6,0.4c1.6,0,3.1-0.1,4.6-0.4L233.2,221z"/>
			</g>
		</g>
		
			<linearGradient id="SVGID_9_" gradientUnits="userSpaceOnUse" x1="-200.5867" y1="495.9784" x2="-199.9426" y2="495.9784" gradientTransform="matrix(98.2062 0 0 -98.2062 19995.1523 48613.4844)">
			<stop  offset="0" style="stop-color:#CC67B9"/>
			<stop  offset="0.2285" style="stop-color:#CC67B9"/>
			<stop  offset="1" style="stop-color:#00E4E4"/>
		</linearGradient>
		<path class="st13" d="M323.8-94.7c0,1.5-0.2,3-0.6,4.4l36.6-1.7v-5.4l-36.6-1.7C323.7-97.7,323.8-96.2,323.8-94.7"/>
		<g>
			<defs>
				<rect id="SVGID_28_" x="252.6" y="-160" width="128.8" height="130.6"/>
			</defs>
			<clipPath id="SVGID_10_">
				<use xlink:href="#SVGID_28_"  style="overflow:visible;"/>
			</clipPath>
			<g transform="matrix(1.33333 0 0 -1.33333 0 200)" class="st14">
				<path class="st15" d="M240.6,225.7c0.6-1.4,1-3,1-4.7c0-1.7-0.4-3.3-1-4.7l30.6,1.5v6.5L240.6,225.7z M244,222.9l24.6-1.2v-1.5
					l-24.6-1.2c0.1,0.6,0.1,1.3,0.1,1.9C244.2,221.7,244.1,222.3,244,222.9"/>
				<path class="st16" d="M271.2,224.3v-6.5l-30.6-1.5c0.6,1.4,1,3,1,4.7c0,1.7-0.4,3.3-1,4.7L271.2,224.3z"/>
			</g>
		</g>
		
			<linearGradient id="SVGID_11_" gradientUnits="userSpaceOnUse" x1="-188.784" y1="493.2376" x2="-188.1399" y2="493.2376" gradientTransform="matrix(26.6666 0 0 -26.6666 5332.3198 13058.3008)">
			<stop  offset="0" style="stop-color:#D887C7"/>
			<stop  offset="0.2285" style="stop-color:#D887C7"/>
			<stop  offset="1" style="stop-color:#00E4E4"/>
		</linearGradient>
		<path class="st17" d="M298.1-94.7c0,4.8,3.9,8.7,8.6,8.7c4.7,0,8.6-3.9,8.6-8.7c0-4.8-3.9-8.7-8.6-8.7
			C301.9-103.4,298.1-99.5,298.1-94.7"/>
		<g>
			<defs>
				<rect id="SVGID_31_" x="252.6" y="-160" width="128.8" height="130.6"/>
			</defs>
			<clipPath id="SVGID_12_">
				<use xlink:href="#SVGID_31_"  style="overflow:visible;"/>
			</clipPath>
			<g transform="matrix(1.33333 0 0 -1.33333 0 200)" class="st18">
				<path class="st15" d="M230,228.8c-4.3,0-7.7-3.5-7.7-7.8c0-4.3,3.5-7.8,7.7-7.8s7.7,3.5,7.7,7.8
					C237.7,225.3,234.3,228.8,230,228.8 M230,226.2c2.8,0,5.2-2.3,5.2-5.2c0-2.9-2.3-5.2-5.2-5.2c-2.8,0-5.2,2.3-5.2,5.2
					C224.9,223.9,227.2,226.2,230,226.2"/>
				<path class="st16" d="M230,213.2c-4.3,0-7.7,3.5-7.7,7.8c0,4.3,3.5,7.8,7.7,7.8s7.7-3.5,7.7-7.8
					C237.7,216.7,234.3,213.2,230,213.2z"/>
				<path class="st8" d="M197.8,220.9c0-9,3.6-17.1,9.4-22.9l-5.7,0.7c-4.7,6.2-7.5,13.9-7.5,22.3c0,8.4,2.8,16.2,7.5,22.3l5.8,0.8
					l0,0C201.4,238.1,197.8,229.9,197.8,220.9"/>
				<path class="st9" d="M197.8,220.9c0-9,3.6-17.1,9.4-22.9l-5.7,0.7c-4.7,6.2-7.5,13.9-7.5,22.3c0,8.4,2.8,16.2,7.5,22.3l5.8,0.8
					l0,0C201.4,238.1,197.8,229.9,197.8,220.9z"/>
			</g>
		</g>
		
			<linearGradient id="SVGID_13_" gradientUnits="userSpaceOnUse" x1="-201.1279" y1="496.1378" x2="-200.4838" y2="496.1378" gradientTransform="matrix(116.3344 0 0 -116.3344 23663.5547 57623.2695)">
			<stop  offset="0" style="stop-color:#DD96CE"/>
			<stop  offset="0.2285" style="stop-color:#DD96CE"/>
			<stop  offset="1" style="stop-color:#00E4E4"/>
		</linearGradient>
		<path class="st19" d="M265.5-94.5c0,10.5,3.8,20.4,10.8,28.1l17.1-17.3c-2.5-3.1-3.9-7-3.9-11s1.4-7.9,3.9-11l-17-17.2
			C269.3-115.2,265.5-105.1,265.5-94.5"/>
		<g>
			<defs>
				<rect id="SVGID_34_" x="252.6" y="-160" width="128.8" height="130.6"/>
			</defs>
			<clipPath id="SVGID_14_">
				<use xlink:href="#SVGID_34_"  style="overflow:visible;"/>
			</clipPath>
			<g transform="matrix(1.33333 0 0 -1.33333 0 200)" class="st20">
				<path class="st15" d="M207.3,244c-5.9-5.9-9.5-14.1-9.5-23.2c0-9,3.6-17.1,9.4-22.9l0.1,0l14.6,14.8c-2.1,2.1-3.4,5.1-3.4,8.3
					s1.3,6.2,3.4,8.3L207.3,244z M207.4,240.3l11-11.1c-1.6-2.4-2.5-5.2-2.5-8.1c0-2.9,0.9-5.8,2.5-8.1l-11.1-11.2
					c-4.5,5.4-6.9,12.1-6.9,19.2C200.4,228.1,202.8,234.9,207.4,240.3"/>
				<path class="st16" d="M218.4,221c0-3.2,1.3-6.2,3.4-8.3l-14.6-14.8l-0.1,0c-5.8,5.9-9.4,13.9-9.4,22.9c0,9,3.6,17.3,9.5,23.2
					l14.5-14.7C219.7,227.2,218.4,224.2,218.4,221z"/>
				<path class="st8" d="M269.9,192.9c0-2.5-2-4.6-4.5-4.6v9.1c1.2,0,2.4-0.5,3.2-1.3C269.4,195.3,269.9,194.2,269.9,192.9"/>
				<path class="st16" d="M269.9,192.9c0-2.5-2-4.6-4.5-4.6v9.1c1.2,0,2.4-0.5,3.2-1.3C269.4,195.3,269.9,194.2,269.9,192.9z"/>
			</g>
		</g>
		
			<linearGradient id="SVGID_15_" gradientUnits="userSpaceOnUse" x1="-196.571" y1="495.2876" x2="-195.9269" y2="495.2876" gradientTransform="matrix(49.8605 0 0 -49.8605 10121.2168 24628.7617)">
			<stop  offset="0" style="stop-color:#D887C7"/>
			<stop  offset="0.2285" style="stop-color:#D887C7"/>
			<stop  offset="1" style="stop-color:#00E4E4"/>
		</linearGradient>
		<path class="st21" d="M320.1-76.6l20.8,23.7h11.3v-8.7h-7.7c-0.4,0-0.8-0.2-1.2-0.5l-19.5-18.2C322.7-78.9,321.5-77.6,320.1-76.6"
			/>
		<g>
			<defs>
				<rect id="SVGID_37_" x="252.6" y="-160" width="128.8" height="130.6"/>
			</defs>
			<clipPath id="SVGID_16_">
				<use xlink:href="#SVGID_37_"  style="overflow:visible;"/>
			</clipPath>
			<g transform="matrix(1.33333 0 0 -1.33333 0 200)" class="st22">
				<path class="st15" d="M242.7,212.1c-1.2-1.8-2.8-3.3-4.6-4.4l16.9-19.3h10.4v9.1h-7L242.7,212.1z M243,208.3l13.7-12.7
					c0.5-0.4,1.1-0.7,1.7-0.7h4.5V191h-6.6l-14.3,16.3C242.3,207.6,242.6,208,243,208.3"/>
				<path class="st16" d="M265.4,197.5v-9.1h-10.4l-16.9,19.3c1.8,1.1,3.4,2.6,4.6,4.4l15.7-14.6H265.4z"/>
				<path class="st8" d="M214.6,221c0-1.3-1-2.3-2.3-2.3c-1.2,0-2.3,1-2.3,2.3c0,1.3,1,2.3,2.3,2.3
					C213.5,223.3,214.6,222.3,214.6,221"/>
				<path class="st9" d="M214.6,221c0-1.3-1-2.3-2.3-2.3c-1.2,0-2.3,1-2.3,2.3c0,1.3,1,2.3,2.3,2.3
					C213.5,223.3,214.6,222.3,214.6,221z"/>
				<path class="st8" d="M216.5,212.8c0-1.3-1-2.3-2.3-2.3s-2.3,1-2.3,2.3s1,2.3,2.3,2.3S216.5,214.1,216.5,212.8"/>
				<path class="st9" d="M216.5,212.8c0-1.3-1-2.3-2.3-2.3s-2.3,1-2.3,2.3s1,2.3,2.3,2.3S216.5,214.1,216.5,212.8z"/>
				<path class="st8" d="M216.5,229.2c0-1.3-1-2.3-2.3-2.3s-2.3,1-2.3,2.3s1,2.3,2.3,2.3S216.5,230.4,216.5,229.2"/>
				<path class="st9" d="M216.5,229.2c0-1.3-1-2.3-2.3-2.3s-2.3,1-2.3,2.3s1,2.3,2.3,2.3S216.5,230.4,216.5,229.2z"/>
				<g>
					<defs>
						<rect id="SVGID_39_" x="-165" y="64.3" width="687" height="522.3"/>
					</defs>
					<clipPath id="SVGID_17_">
						<use xlink:href="#SVGID_39_"  style="overflow:visible;"/>
					</clipPath>
					<g class="st23">
						<path class="st24" d="M436.1,521.3H-79.1V129.6h515.3V521.3z M432.9,132.9H-75.9v385.2h508.8V132.9z"/>
					</g>
				</g>
			</g>
		</g>
	</g>
	<g>
		<g transform="matrix(1.33333 0 0 -1.33333 0 200)">
			<path class="st25" d="M48.5,76.4h-5v12.9h5V76.4z M107.5,76.4h-5v12.9h5V76.4z"/>
		</g>
		
			<linearGradient id="SVGID_18_" gradientUnits="userSpaceOnUse" x1="-203.3129" y1="494.7893" x2="-202.6025" y2="494.7893" gradientTransform="matrix(133.3548 0 0 -133.3548 27166.1172 66080.0703)">
			<stop  offset="0" style="stop-color:#005E5F;stop-opacity:0.2"/>
			<stop  offset="0.995" style="stop-color:#D887C7"/>
			<stop  offset="1" style="stop-color:#D887C7;stop-opacity:0.5"/>
		</linearGradient>
		<path class="st26" d="M95.4,49.4c-15.9,0-28.9,12.4-28.9,27.7c0,9.6-3.1,19.2-9,27.7c-0.8,1.1-1.5,2.3-2.2,3.4
			c-2.6,4.5-2.7,10-0.3,14.6c4.4,8.3,11.2,16.2,19.9,22.9l12.1-8.7c0.3-0.2,0.7-0.4,1.1-0.4c0.4,0,0.7,0.1,1,0.3
			c3.7,2.2,7.4,3.3,11.4,3.3c3.6,0,7.2-1.2,11-3.6c0.3-0.2,0.7-0.3,1.1-0.3c0.4,0,0.8,0.1,1.1,0.4l12.5,9
			c8.8-6.8,15.7-14.8,20.1-23.2c2.3-4.4,2.2-9.7-0.2-14c-0.7-1.3-1.5-2.6-2.4-3.8c-5.9-8.4-9-18-9-27.7c0-15.3-13-27.7-28.9-27.7
			L95.4,49.4z"/>
		<g transform="matrix(1.33333 0 0 -1.33333 0 200)">
			<path class="st6" d="M79.5,114.3h-7.9c-12.8,0-23.1-9.9-23.1-22.1c0-7.1-2.4-14-6.5-20c-0.6-0.9-1.2-1.8-1.7-2.7
				c-2.2-3.8-2.2-8.4-0.2-12.2C43.8,50.2,49.6,44,56.2,39l9.9,7.1c2.7-1.6,5.7-2.7,9.3-2.7c3.4,0,6.4,1.2,9.1,3L94.8,39
				c6.7,5,12.6,11.3,16.3,18.5c1.9,3.7,1.9,8.1-0.2,11.7c-0.6,1-1.2,2-1.9,2.9c-4.1,5.9-6.5,12.9-6.5,20v0
				C102.6,104.4,92.2,114.3,79.5,114.3 M79.5,111.6c11.2,0,20.3-8.7,20.3-19.4v0c0-7.5,2.4-14.9,6.9-21.5c0.6-0.9,1.2-1.8,1.7-2.7
				c1.6-2.8,1.7-6.3,0.1-9.2c-3-5.9-7.8-11.4-13.8-16.2l-8.5,6.1c-0.5,0.4-1.1,0.5-1.7,0.5c-0.6,0-1.1-0.2-1.6-0.5
				c-2.6-1.7-5-2.5-7.5-2.5c-2.7,0-5.3,0.7-7.8,2.3c-0.5,0.3-1,0.4-1.5,0.4c-0.6,0-1.2-0.2-1.7-0.5l-8.2-5.9
				c-5.9,4.7-10.7,10.2-13.7,16c-1.6,3.1-1.6,6.7,0.2,9.7c0.5,0.8,1,1.7,1.6,2.5c4.6,6.6,7,14,7,21.5c0,10.7,9.1,19.4,20.3,19.4
				H79.5"/>
			<path class="st12" d="M79.5,114.3h-7.9c-12.8,0-23.1-9.9-23.1-22.1c0-7.1-2.4-14-6.5-20c-0.6-0.9-1.2-1.8-1.7-2.7
				c-2.2-3.8-2.2-8.4-0.2-12.2C43.8,50.2,49.6,44,56.2,39l9.9,7.1c2.7-1.6,5.7-2.7,9.3-2.7c3.4,0,6.4,1.2,9.1,3L94.8,39
				c6.7,5,12.6,11.3,16.3,18.5c1.9,3.7,1.9,8.1-0.2,11.7c-0.6,1-1.2,2-1.9,2.9c-4.1,5.9-6.5,12.9-6.5,20v0
				C102.6,104.4,92.2,114.3,79.5,114.3 M79.5,111.6c11.2,0,20.3-8.7,20.3-19.4v0c0-7.5,2.4-14.9,6.9-21.5c0.6-0.9,1.2-1.8,1.7-2.7
				c1.6-2.8,1.7-6.3,0.1-9.2c-3-5.9-7.8-11.4-13.8-16.2l-8.5,6.1c-0.5,0.4-1.1,0.5-1.7,0.5c-0.6,0-1.1-0.2-1.6-0.5
				c-2.6-1.7-5-2.5-7.5-2.5c-2.7,0-5.3,0.7-7.8,2.3c-0.5,0.3-1,0.4-1.5,0.4c-0.6,0-1.2-0.2-1.7-0.5l-8.2-5.9
				c-5.9,4.7-10.7,10.2-13.7,16c-1.6,3.1-1.6,6.7,0.2,9.7c0.5,0.8,1,1.7,1.6,2.5c4.6,6.6,7,14,7,21.5c0,10.7,9.1,19.4,20.3,19.4
				H79.5"/>
			<path class="st7" d="M110.9,69.2c-0.6,1-1.2,2-1.9,2.9c-4.1,5.9-6.5,12.9-6.5,20v0c0,12.2-10.3,22.1-23.1,22.1h-7.9
				c-12.8,0-23.1-9.9-23.1-22.1v0c0-7.1-2.4-14-6.5-20c-0.6-0.9-1.2-1.8-1.7-2.7c-2.2-3.8-2.2-8.4-0.2-12.2
				C43.8,50.2,49.6,44,56.2,39l9.9,7.1c2.7-1.6,5.7-2.7,9.3-2.7c3.4,0,6.4,1.2,9.1,3L94.8,39c6.7,5,12.6,11.3,16.3,18.5
				C113,61.2,113,65.6,110.9,69.2L110.9,69.2z M56.6,55.5c-5,6.1-6.7,12.8-6.7,20.1 M101.1,75.6c0-7.3-1.7-13.9-6.7-20.1"/>
		</g>
		
			<radialGradient id="SVGID_19_" cx="-206.6929" cy="483.0933" r="1" gradientTransform="matrix(15.5687 0 0 -14.9104 3318.9172 7305.8052)" gradientUnits="userSpaceOnUse">
			<stop  offset="0" style="stop-color:#00EFEF"/>
			<stop  offset="0.7715" style="stop-color:#D887C7"/>
			<stop  offset="1" style="stop-color:#D887C7"/>
		</radialGradient>
		<path class="st27" d="M87.1,108.3c-3.2,4.1-10.1,12.3-11.3,16.6c1.6-5.4,10.4-9.2,15.1-12.4c4.3-2.9,4.2-5.3,9.8-5.3
			c5.6,0,5.6,2.4,9.8,5.3c4.7,3.2,13.5,7,15.1,12.4c-1.3-4.4-8.1-12.5-11.3-16.6c-4.7-6-6.6-10.2-13.6-10.2S91.8,102.4,87.1,108.3"
			/>
		<g transform="matrix(1.33333 0 0 -1.33333 0 200)">
			<path class="st9" d="M94.2,56.3c-1.2,4-7.8,6.9-11.3,9.3c-3.2,2.2-3.1,4-7.4,4c-4.2,0-4.2-1.8-7.3-3.9
				c-3.5-2.4-10.1-5.3-11.3-9.3c1,3.3,6.1,9.4,8.5,12.5c3.5,4.5,5,7.6,10.2,7.6c5.2,0,6.7-3.2,10.2-7.6
				C88.1,65.7,93.2,59.5,94.2,56.3z"/>
		</g>
		
			<linearGradient id="SVGID_20_" gradientUnits="userSpaceOnUse" x1="-202.4527" y1="493.7794" x2="-201.7422" y2="493.7794" gradientTransform="matrix(85.6123 0 0 -85.6123 17402.7246 42411.7305)">
			<stop  offset="0" style="stop-color:#DD96CE"/>
			<stop  offset="0.2285" style="stop-color:#DD96CE"/>
			<stop  offset="1" style="stop-color:#00E4E4"/>
		</linearGradient>
		<path class="st28" d="M94.7,127.7c-0.8,1.3-2.7,1.7-4.1,0.9c-3-1.7-8.1-3.2-13.7-0.7c-2.2,1-4,2.7-5.1,4.8
			c-5.6,10.8,5,21.6,16.3,17.4c2.2-0.8,4-2.3,5.3-4.1c0.9-1.3,1.5-2.6,1.9-3.8c0.7-2.3,3.3-4.2,5.5-4.2c2.1,0,4.6,1.8,5.3,4.1
			c0.4,1.4,1.2,2.8,2.2,4.2c1.3,1.8,3.2,3.2,5.3,3.9c11.1,3.8,21.4-6.7,15.9-17.4c-1.1-2.1-2.9-3.8-5.1-4.9
			c-5.6-2.6-10.6-1.1-13.6,0.7c-1.4,0.8-3.3,0.5-4.1-0.9c-1.2-1.9-3.5-2.3-6-2.3C98.2,125.3,96,125.7,94.7,127.7"/>
		<g transform="matrix(1.33333 0 0 -1.33333 0 200)">
			<path class="st16" d="M93.4,54.1c-4.2,1.9-7.9,0.8-10.2-0.5c-1.1-0.6-2.5-0.3-3.1,0.7c-0.9,1.5-2.6,1.8-4.5,1.8
				c-1.9,0-3.6-0.3-4.5-1.8c-0.6-1-2-1.3-3.1-0.7c-2.3,1.3-6,2.4-10.3,0.5c-1.7-0.7-3-2-3.8-3.6c-4.2-8.1,3.7-16.2,12.2-13
				c1.6,0.6,3,1.7,3.9,3.1c0.7,1,1.1,1.9,1.4,2.9c0.5,1.8,2.4,3.1,4.1,3.1c1.6,0,3.5-1.4,4-3.1c0.3-1,0.9-2.1,1.7-3.2
				c1-1.3,2.4-2.4,4-2.9c8.3-2.9,16,5.1,11.9,13.1C96.4,52,95,53.3,93.4,54.1L93.4,54.1z"/>
			<path class="st8" d="M75.2,52.6h0.7c1,0,1.8-1,1.8-2V43h-4.3v7.6C73.4,51.5,74.2,52.6,75.2,52.6"/>
			<path class="st16" d="M75.2,52.6h0.7c1,0,1.8-1,1.8-2V43h-4.3v7.6C73.4,51.5,74.2,52.6,75.2,52.6z"/>
		</g>
		
			<radialGradient id="SVGID_21_" cx="-205.7372" cy="490.9438" r="1" gradientTransform="matrix(35.75 0 0 -34.2384 7455.7905 16897.9102)" gradientUnits="userSpaceOnUse">
			<stop  offset="0" style="stop-color:#00EFEF"/>
			<stop  offset="0.7715" style="stop-color:#D887C7"/>
			<stop  offset="1" style="stop-color:#D887C7"/>
		</radialGradient>
		<path class="st29" d="M68,80.9c0,2.7,0.2,5.8,1.5,8.6c1.9,4.1,5.6,7.1,10.4,7.1c5.6,0,13.2-4.1,17.4-8.7c1.7-1.9,4.8-1.9,6.5,0
			c4.3,4.7,12,8.7,17.6,8.7c4.8,0,8.5-2.9,10.4-7c1.3-2.8,1.5-5.9,1.5-8.6L68,80.9z"/>
		<path class="st16" d="M68,80.9c0,2.7,0.2,5.8,1.5,8.6c1.9,4.1,5.6,7.1,10.4,7.1c5.6,0,13.2-4.1,17.4-8.7c1.7-1.9,4.8-1.9,6.5,0
			c4.3,4.7,12,8.7,17.6,8.7c4.8,0,8.5-2.9,10.4-7c1.3-2.8,1.5-5.9,1.5-8.6L68,80.9z"/>
		<path class="st15" d="M128.1,80.9h-22c0,4.5,9.3,11,15.4,11C127.6,91.9,128.1,85.5,128.1,80.9 M124.1,84.6c-0.5,0-1.8,3.5-2.6,3.5
			c-2,0-5.1-1.1-7.7-2.9c-0.3-0.2-0.6-0.6-0.9-0.6h11.5"/>
		<path class="st16" d="M106.1,80.9c0,4.5,9.3,11,15.4,11c6.1,0,6.6-6.4,6.6-11H106.1z"/>
		<path class="st15" d="M95.3,80.9h-22c0,4.5,0.5,11,6.6,11C86,91.9,95.3,85.5,95.3,80.9 M88.5,84.6c-0.3,0-0.6,0.2-0.9,0.5
			c-2.6,1.8-5.7,3.1-7.7,3.1c-0.8,0-2.1,0-2.6-3.6h11.1"/>
		<path class="st16" d="M95.3,80.9c0,4.5-9.3,11-15.4,11c-6.1,0-6.6-6.4-6.6-11H95.3z"/>
		<path class="st8" d="M118.3,143.2c-2.6,0-4.7-2-4.7-4.5c0-2.5,2.1-4.5,4.7-4.5s4.7,2,4.7,4.5C123,141.2,120.9,143.2,118.3,143.2"
			/>
		<path class="st15" d="M118.3,132.4c-3.6,0-6.6,2.8-6.6,6.3c0,3.5,3,6.3,6.6,6.3s6.6-2.8,6.6-6.3
			C124.9,135.2,122,132.4,118.3,132.4 M118.3,136c1.5,0,2.8,1.2,2.8,2.7c0,1.5-1.3,2.7-2.8,2.7c-1.5,0-2.8-1.2-2.8-2.7
			C115.5,137.3,116.8,136,118.3,136"/>
		<path class="st16" d="M124.9,138.7c0,3.5-3,6.3-6.6,6.3c-3.6,0-6.6-2.8-6.6-6.3c0-3.5,3-6.3,6.6-6.3
			C122,132.4,124.9,135.2,124.9,138.7z"/>
		<path class="st8" d="M83,143.2c-2.6,0-4.7-2-4.7-4.5c0-2.5,2.1-4.5,4.7-4.5s4.7,2,4.7,4.5C87.7,141.2,85.6,143.2,83,143.2"/>
		<path class="st15" d="M83,132.4c-3.6,0-6.6,2.8-6.6,6.3c0,3.5,3,6.3,6.6,6.3s6.6-2.8,6.6-6.3C89.6,135.2,86.7,132.4,83,132.4
			 M83,136c1.5,0,2.8,1.2,2.8,2.7c0,1.5-1.3,2.7-2.8,2.7c-1.5,0-2.8-1.2-2.8-2.7C80.2,137.3,81.5,136,83,136"/>
		<path class="st16" d="M76.4,138.7c0,3.5,3,6.3,6.6,6.3c3.6,0,6.6-2.8,6.6-6.3c0-3.5-3-6.3-6.6-6.3
			C79.4,132.4,76.4,135.2,76.4,138.7z"/>
		<path class="st7" d="M65.5,106.3c-1.5,1.8-2.8,3.7-4,5.6 M139.8,111.9c-1.2-2-2.5-3.9-4-5.6 M67.3,112.5c-1.2,1.9-2.3,3.9-3.2,5.9
			 M137.3,118.5c-0.9-2.1-2-4.1-3.2-5.9"/>
		<path class="st15" d="M135.8,74.6H65.6c-0.5,0-0.9,0.7-0.9,1.2v5.1h72v-5.1C136.7,75.3,136.3,74.6,135.8,74.6"/>
		<path class="st16" d="M136.7,80.9h-72v-5.1c0-0.5,0.3-1.2,0.9-1.2h70.3c0.5,0,0.9,0.7,0.9,1.2V80.9z"/>
	</g>
</g>
<g id="Layer_1">
</g>
</svg>
