<?xml version="1.0" encoding="utf-8"?>
<!-- Generator: Adobe Illustrator 24.3.0, SVG Export Plug-In . SVG Version: 6.00 Build 0)  -->
<svg version="1.1" xmlns="http://www.w3.org/2000/svg" xmlns:xlink="http://www.w3.org/1999/xlink" x="0px" y="0px"
	 viewBox="0 0 200 200" style="enable-background:new 0 0 200 200;" xml:space="preserve">
<style type="text/css">
	.st0{fill:url(#SVGID_1_);stroke:#BBBDBF;stroke-miterlimit:10;}
	.st1{fill:url(#SVGID_2_);stroke:#231F20;stroke-miterlimit:10;}
	.st2{fill:url(#SVGID_3_);}
	.st3{fill:url(#SVGID_4_);}
	.st4{fill:url(#SVGID_5_);stroke:#000000;stroke-miterlimit:10;}
	.st5{fill:#8CF7F7;stroke:#000000;stroke-miterlimit:10;}
	.st6{fill:none;stroke:#000000;stroke-miterlimit:10;}
	.st7{fill:url(#SVGID_6_);stroke:#000000;stroke-miterlimit:10;}
	.st8{fill:#E3A6D6;stroke:#000000;stroke-miterlimit:10;}
	.st9{fill:url(#SVGID_7_);stroke:#000000;stroke-miterlimit:10;}
	.st10{clip-path:url(#SVGID_8_);}
	.st11{fill:url(#SVGID_9_);stroke:#000000;stroke-miterlimit:10;}
	.st12{fill:url(#SVGID_10_);stroke:#000000;stroke-miterlimit:10;}
	.st13{fill:url(#SVGID_11_);stroke:#000000;stroke-miterlimit:10;}
	.st14{fill:#00EFEF;stroke:#000000;stroke-miterlimit:10;}
	.st15{fill:url(#SVGID_12_);stroke:#000000;stroke-miterlimit:10;}
	.st16{fill:#00E4E4;stroke:#000000;stroke-miterlimit:10;}
	.st17{opacity:0.2;clip-path:url(#SVGID_13_);}
	.st18{fill:#303030;stroke:#000000;stroke-miterlimit:10;}
</style>
<g id="Layer_2">
	
		<radialGradient id="SVGID_1_" cx="84.0719" cy="84.5082" r="61.3141" gradientTransform="matrix(1.3593 0 0 1.3275 -13.9006 -12.1865)" gradientUnits="userSpaceOnUse">
		<stop  offset="0.1269" style="stop-color:#EBEBEB"/>
		<stop  offset="0.6604" style="stop-color:#F6F6F6"/>
		<stop  offset="1" style="stop-color:#020202"/>
	</radialGradient>
	<ellipse class="st0" cx="100.4" cy="100" rx="83.3" ry="81.4"/>
	
		<radialGradient id="SVGID_2_" cx="84.072" cy="84.5083" r="71.2117" fx="118.3013" fy="59.3457" gradientTransform="matrix(1.3593 0 0 1.3275 -13.9006 -12.1865)" gradientUnits="userSpaceOnUse">
		<stop  offset="0.1269" style="stop-color:#FFFFFF"/>
		<stop  offset="0.8831" style="stop-color:#020202"/>
		<stop  offset="0.9244" style="stop-color:#020202"/>
	</radialGradient>
	<path class="st1" d="M100.4,168.1c-38.5,0-69.8-30.6-69.8-68.1c0-37.6,31.3-68.1,69.8-68.1c38.5,0,69.8,30.6,69.8,68.1
		C170.1,137.6,138.8,168.1,100.4,168.1z"/>
	<g>
		<radialGradient id="SVGID_3_" cx="100.38" cy="100.0011" r="62.2353" gradientUnits="userSpaceOnUse">
			<stop  offset="0" style="stop-color:#26A9E0"/>
			<stop  offset="0" style="stop-color:#020202"/>
			<stop  offset="0" style="stop-color:#4D83C3"/>
			<stop  offset="0" style="stop-color:#1B75BB"/>
			<stop  offset="0" style="stop-color:#F9FAFA"/>
			<stop  offset="1" style="stop-color:#BDDAF3"/>
			<stop  offset="1" style="stop-color:#EB008B"/>
			<stop  offset="1" style="stop-color:#EA028C"/>
			<stop  offset="1" style="stop-color:#E6098F"/>
			<stop  offset="1" style="stop-color:#DF1493"/>
			<stop  offset="1" style="stop-color:#D5259A"/>
			<stop  offset="1" style="stop-color:#C83BA3"/>
			<stop  offset="1" style="stop-color:#B757AF"/>
			<stop  offset="1" style="stop-color:#A477BC"/>
			<stop  offset="1" style="stop-color:#8F9BCB"/>
			<stop  offset="1" style="stop-color:#8AA3CE"/>
			<stop  offset="1" style="stop-color:#70BF44"/>
		</radialGradient>
		<path class="st2" d="M141.8,146.4c-26,22.4-65.8,19.9-88.6-5.7C30.4,115.1,33,76,59,53.6c26-22.4,65.8-19.9,88.6,5.7
			C170.4,84.9,167.8,124,141.8,146.4z"/>
		
			<radialGradient id="SVGID_4_" cx="89.4482" cy="73.9427" r="59.9634" gradientTransform="matrix(1.3593 0 0 1.3275 -13.9006 -12.1865)" gradientUnits="userSpaceOnUse">
			<stop  offset="0" style="stop-color:#26A9E0"/>
			<stop  offset="0" style="stop-color:#020202"/>
			<stop  offset="0" style="stop-color:#4D83C3"/>
			<stop  offset="0" style="stop-color:#1B75BB"/>
			<stop  offset="0" style="stop-color:#F9FAFA"/>
			<stop  offset="0" style="stop-color:#FFFFFF"/>
			<stop  offset="0.1799" style="stop-color:#FAC2E3"/>
			<stop  offset="0.4029" style="stop-color:#F57EC4"/>
			<stop  offset="0.6045" style="stop-color:#F148AC"/>
			<stop  offset="0.7775" style="stop-color:#EE219A"/>
			<stop  offset="0.9151" style="stop-color:#EC098F"/>
			<stop  offset="1" style="stop-color:#EB008B"/>
			<stop  offset="1" style="stop-color:#EA028C"/>
			<stop  offset="1" style="stop-color:#E6098F"/>
			<stop  offset="1" style="stop-color:#DF1493"/>
			<stop  offset="1" style="stop-color:#D5259A"/>
			<stop  offset="1" style="stop-color:#C83BA3"/>
			<stop  offset="1" style="stop-color:#B757AF"/>
			<stop  offset="1" style="stop-color:#A477BC"/>
			<stop  offset="1" style="stop-color:#8F9BCB"/>
			<stop  offset="1" style="stop-color:#8AA3CE"/>
			<stop  offset="1" style="stop-color:#E63825"/>
		</radialGradient>
		<path class="st3" d="M100.4,162.5c-17.7,0-35.3-7.2-47.8-21.3C29.5,115.3,32.1,75.7,58.5,53c12.7-11,29.1-16.4,46.1-15.3
			c17,1.1,32.4,8.6,43.6,21.1c23.1,25.9,20.5,65.5-5.9,88.2C130.2,157.4,115.3,162.5,100.4,162.5z M100.3,39
			c-15,0-29.4,5.3-40.8,15.1c-25.7,22.2-28.3,60.8-5.7,86.1c22.5,25.3,61.8,27.8,87.5,5.6l0.5,0.6l-0.5-0.6
			c12.4-10.7,19.9-25.6,21-41.9c1.1-16.3-4.3-32-15.2-44.2c-10.9-12.2-26-19.6-42.6-20.6C103,39.1,101.7,39,100.3,39z"/>
	</g>
	<g>
		
			<linearGradient id="SVGID_5_" gradientUnits="userSpaceOnUse" x1="-203.0647" y1="494.6285" x2="-202.5121" y2="494.6285" gradientTransform="matrix(138.268 -7.9099 -5.8113 -101.5825 31014.6211 48761.3516)">
			<stop  offset="0" style="stop-color:#D887C7"/>
			<stop  offset="0.2285" style="stop-color:#D887C7"/>
			<stop  offset="1" style="stop-color:#00E4E4"/>
		</linearGradient>
		<path class="st4" d="M63.6,135.7l76.4-4.4c-2-15.1-19.4-26.4-39.8-25.3S63.9,120.5,63.6,135.7"/>
		<g>
			<g transform="matrix(1.33333 0 0 -1.33333 0 200)">
				<path class="st5" d="M75.1,71.6C58.6,70.7,45.7,59.5,46.4,47l60.1,3.4C105.8,62.9,91.7,72.6,75.1,71.6 M75.3,69.3
					c14,0.8,26.1-6.6,28.2-16.6l-54.4-3.1C50.1,59.7,61.3,68.5,75.3,69.3"/>
				<path class="st6" d="M106.5,50.4L46.4,47c-0.7,12.5,12.1,23.7,28.7,24.7S105.8,62.9,106.5,50.4z"/>
			</g>
		</g>
		
			<linearGradient id="SVGID_6_" gradientUnits="userSpaceOnUse" x1="-200.4533" y1="490.9887" x2="-199.9008" y2="490.9887" gradientTransform="matrix(54.7449 -3.1318 -2.3009 -40.2199 12189.334 19238.5957)">
			<stop  offset="0" style="stop-color:#D887C7"/>
			<stop  offset="0.2285" style="stop-color:#D887C7"/>
			<stop  offset="1" style="stop-color:#00E4E4"/>
		</linearGradient>
		<path class="st7" d="M86.3,127.2l30.2-1.7l-1-16.7l-30.2,1.7L86.3,127.2z"/>
		<g>
			<g transform="matrix(1.33333 0 0 -1.33333 0 200)">
				<path class="st8" d="M88,69.7l-25.4-1.5l0.9-14.9l25.4,1.5L88,69.7z M86,57l-20-1.1L65.4,66l20,1.1L86,57z"/>
				<path class="st6" d="M88,69.7l-25.4-1.5l0.9-14.9l25.4,1.5L88,69.7z"/>
			</g>
		</g>
		
			<linearGradient id="SVGID_7_" gradientUnits="userSpaceOnUse" x1="-199.6734" y1="490.5541" x2="-199.1209" y2="490.5541" gradientTransform="matrix(53.6725 -3.0705 -2.2558 -39.432 11862.2734 18826.4844)">
			<stop  offset="0" style="stop-color:#D887C7"/>
			<stop  offset="0.2285" style="stop-color:#D887C7"/>
			<stop  offset="1" style="stop-color:#00E4E4"/>
		</linearGradient>
		<path class="st9" d="M38.3,89.3l4.1,3.4c7,5.9,16.6,9,26.3,8.4L68,87.6L38.3,89.3z"/>
		<g>
			<defs>
				<polygon id="SVGID_31_" points="29.6,41.1 163.1,33.4 170.4,161.7 36.4,160.4 				"/>
			</defs>
			<clipPath id="SVGID_8_">
				<use xlink:href="#SVGID_31_"  style="overflow:visible;"/>
			</clipPath>
			<g transform="matrix(1.33333 0 0 -1.33333 0 200)" class="st10">
				<path class="st8" d="M52.2,85.6l-26.7-1.5l5.3-4.5c5.6-4.7,13.1-7.1,20.7-6.6l1.3,0.1L52.2,85.6z M49.7,83.1l0.4-7.7
					c-6.4-0.1-12.7,2.1-17.4,6L31.9,82L49.7,83.1"/>
				<path class="st6" d="M51.6,73l1.3,0.1l-0.7,12.5l-26.7-1.5l5.3-4.5C36.5,74.9,44,72.6,51.6,73z"/>
			</g>
		</g>
		
			<linearGradient id="SVGID_9_" gradientUnits="userSpaceOnUse" x1="-201.0413" y1="490.5229" x2="-200.4888" y2="490.5229" gradientTransform="matrix(53.4131 -3.0556 -2.2449 -39.2414 11970.0518 18725.2793)">
			<stop  offset="0" style="stop-color:#00E4E4"/>
			<stop  offset="0.7715" style="stop-color:#D887C7"/>
			<stop  offset="1" style="stop-color:#D887C7"/>
		</linearGradient>
		<path class="st11" d="M130.3,84l0.8,13.5c9.3-0.5,17.8-4.3,24-10.5l4.7-4.7L130.3,84z"/>
		<g>
			<g transform="matrix(1.33333 0 0 -1.33333 0 200)">
				<path class="st8" d="M123,89.6l-26.7-1.5L97,75.6l1.3,0.1c7.3,0.4,14.1,3.4,19,8.3L123,89.6L123,89.6z M116.6,86.9l-1.3-1.4
					c-4.1-4.1-9.6-6.7-15.7-7.4l-0.4,7.7l17.3,1"/>
				<path class="st6" d="M97,75.6l1.3,0.1c7.3,0.4,14.1,3.4,19,8.3l5.7,5.7l-26.7-1.5L97,75.6z"/>
			</g>
		</g>
		
			<linearGradient id="SVGID_10_" gradientUnits="userSpaceOnUse" x1="-202.5493" y1="493.742" x2="-201.9967" y2="493.742" gradientTransform="matrix(106.2695 -6.0794 -4.4664 -78.0739 23800.1855 37410.8242)">
			<stop  offset="0" style="stop-color:#56F4F4"/>
			<stop  offset="0.995" style="stop-color:#D887C7"/>
			<stop  offset="1" style="stop-color:#D887C7"/>
		</linearGradient>
		<path class="st12" d="M70.1,93.8c0.8,14.5,14.7,25.5,30.9,24.6c16.2-0.9,28.7-13.5,27.9-27.9C128,76,114.2,65,98,65.9
			C81.8,66.8,69.3,79.4,70.1,93.8"/>
		<g>
			<g transform="matrix(1.33333 0 0 -1.33333 0 200)">
				<path class="st5" d="M73.4,101.8C60.5,101,50.6,91.1,51.3,79.6C51.9,68,62.9,59.3,75.8,60S98.6,70.7,98,82.2
					C97.3,93.8,86.3,102.5,73.4,101.8 M73.6,99.4C85,100,94.7,92.3,95.3,82.1s-8.2-19-19.6-19.7s-21.2,7.1-21.7,17.3
					C53.3,89.9,62.1,98.7,73.6,99.4"/>
				<path class="st6" d="M98,82.2c0.7-11.5-9.3-21.5-22.2-22.2s-23.9,8-24.5,19.5c-0.7,11.5,9.3,21.5,22.2,22.2
					C86.3,102.5,97.3,93.8,98,82.2z"/>
			</g>
		</g>
		
			<linearGradient id="SVGID_11_" gradientUnits="userSpaceOnUse" x1="-202.5493" y1="493.7842" x2="-201.9967" y2="493.7842" gradientTransform="matrix(106.2695 -6.0794 -4.4664 -78.0739 23800.7617 37420.8828)">
			<stop  offset="0" style="stop-color:#00F1F1"/>
			<stop  offset="0.995" style="stop-color:#D887C7"/>
			<stop  offset="1" style="stop-color:#D887C7"/>
		</linearGradient>
		<path class="st13" d="M104.1,83.4c-1.2,1.4-3.1,2.3-5,2.4c-2,0.1-3.9-0.5-5.3-1.8c-2.8-2.6-6.7-3.9-10.7-3.7
			c-7.2,0.4-12.9,5.8-13.1,12.1c0,0,0,0.1,0,0.1c0,0.2,0,0.4,0,0.6c0,0.2,0,0.4,0,0.7c0.8,14.5,14.7,25.5,30.9,24.6
			c16.2-0.9,28.7-13.5,27.9-27.9c0-0.2,0-0.4,0-0.7c0-0.2,0-0.4-0.1-0.6c0,0,0-0.1,0-0.1c-0.9-6.3-7.2-11-14.4-10.6
			C110.3,78.8,106.6,80.5,104.1,83.4"/>
		<g>
			<g transform="matrix(1.33333 0 0 -1.33333 0 200)">
				<path class="st14" d="M85.7,92.3c-3.5-0.2-6.6-1.8-8.6-4.1c-0.7-0.8-1.7-1.3-2.8-1.3c-1-0.1-2.1,0.3-2.9,1
					c-2.3,2.1-5.5,3.3-9.1,3.1c-6.2-0.4-10.8-4.9-11.1-10.3l0,0c0-0.2,0-0.3,0-0.5c0-0.2,0-0.4,0-0.5C51.9,68,62.9,59.3,75.8,60
					S98.6,70.7,98,82.2c0,0.2,0,0.4,0,0.5c0,0.2,0,0.3,0,0.5l0,0C96.9,88.7,91.8,92.6,85.7,92.3 M85.8,89.9c4.7,0.3,8.8-2.7,9.4-6.9
					c0,0,0-0.1,0-0.1c0-0.1,0-0.3,0-0.4c0-0.2,0-0.3,0-0.5c0.6-10.2-8.2-19-19.6-19.7c-11.4-0.7-21.2,7.1-21.7,17.3
					c0,0.2,0,0.3,0,0.5c0,0.1,0,0.3,0,0.4c0,0,0,0.1,0,0.1c0.1,4.2,3.9,7.6,8.6,7.9c2.6,0.1,5.2-0.7,7-2.4c1.3-1.2,3.1-1.8,5-1.7
					c1.9,0.1,3.6,0.9,4.8,2.3C80.8,88.6,83.2,89.8,85.8,89.9"/>
				<path class="st6" d="M98,82.2c0.7-11.5-9.3-21.5-22.2-22.2s-23.9,8-24.5,19.5c0,0.2,0,0.4,0,0.5c0,0.2,0,0.3,0,0.5l0,0
					c0.4,5.4,5,10,11.1,10.3c3.5,0.2,6.8-1,9-3.1c1.6-1.5,4.3-1.3,5.7,0.3c2,2.3,5.1,3.9,8.6,4.1c6.2,0.4,11.2-3.6,12.2-9l0,0
					c0-0.2,0-0.3,0-0.5C98,82.6,98,82.4,98,82.2z"/>
			</g>
		</g>
		
			<linearGradient id="SVGID_12_" gradientUnits="userSpaceOnUse" x1="-202.2071" y1="493.1125" x2="-201.6545" y2="493.1125" gradientTransform="matrix(92.1147 -5.2696 -3.8715 -67.6747 20608.334 32381.3926)">
			<stop  offset="0" style="stop-color:#D887C7"/>
			<stop  offset="5.034530e-03" style="stop-color:#D887C7"/>
			<stop  offset="1" style="stop-color:#00F1F1"/>
		</linearGradient>
		<path class="st15" d="M73.3,80.5c2.7-1.9,6.1-3.1,9.7-3.3c5-0.3,9.9,1.4,13.4,4.6c0.7,0.6,1.6,0.9,2.5,0.9c1-0.1,1.8-0.5,2.4-1.1
			c3.1-3.6,7.8-5.8,12.8-6.1c3.6-0.2,7.1,0.6,10,2.2C118.6,70,108.8,65.3,98,65.9S77.9,72.3,73.3,80.5"/>
		<g>
			<g transform="matrix(1.33333 0 0 -1.33333 0 200)">
				<path class="st14" d="M73.4,101.8c-12.5-0.7-22.2-10.1-22.2-21.1c0.1,5.4,4.9,10,11.1,10.3c3.5,0.2,6.8-1,9-3.1
					c0.8-0.7,1.9-1.1,2.9-1c1,0.1,2.1,0.5,2.8,1.3c2,2.3,5.1,3.9,8.6,4.1c6.2,0.4,11.4-3.6,12.2-9C96.6,94.3,85.9,102.5,73.4,101.8
					 M73.6,99.4c5.9,0.3,11.3-1.5,15.3-4.9c-1.1,0.2-2.2,0.2-3.3,0.2c-4.2-0.2-8-2.1-10.6-5c-0.3-0.3-0.6-0.4-0.8-0.4
					s-0.5,0-0.8,0.3c-2.9,2.7-6.9,4.1-11.1,3.8c-1.1-0.1-2.2-0.2-3.3-0.5C62.5,96.6,67.7,99,73.6,99.4"/>
				<path class="st6" d="M97.9,83.3c-0.8,5.4-6,9.3-12.2,9c-3.5-0.2-6.6-1.8-8.6-4.1c-1.4-1.6-4.1-1.8-5.7-0.3
					c-2.3,2.1-5.5,3.3-9,3.1c-6.2-0.4-11-4.9-11.1-10.3c0,11.1,9.7,20.4,22.2,21.1S96.6,94.3,97.9,83.3z"/>
				<path class="st6" d="M86.7,75c-4.2-0.2-7.8,2.6-8.1,6.4c-0.2,3.8,3,7.1,7.3,7.3c4.2,0.2,7.8-2.6,8.1-6.4
					C94.2,78.5,90.9,75.2,86.7,75z"/>
				<path class="st16" d="M86.4,79.2c-1.7-0.1-3.1,1-3.2,2.5c-0.1,1.5,1.2,2.8,2.8,2.9s3.1-1,3.2-2.5S88.1,79.3,86.4,79.2"/>
				<path class="st6" d="M86.4,79.2c-1.7-0.1-3.1,1-3.2,2.5c-0.1,1.5,1.2,2.8,2.8,2.9s3.1-1,3.2-2.5S88.1,79.3,86.4,79.2z
					 M63.3,73.7c-4.2-0.2-7.8,2.6-8.1,6.4s3,7.1,7.3,7.3s7.8-2.6,8.1-6.4S67.5,73.9,63.3,73.7z"/>
				<path class="st16" d="M63.1,77.8c1.7,0.1,2.9,1.4,2.8,2.9s-1.5,2.6-3.2,2.5c-1.7-0.1-2.9-1.4-2.8-2.9S61.4,77.7,63.1,77.8"/>
				<path class="st6" d="M63.1,77.8c1.7,0.1,2.9,1.4,2.8,2.9s-1.5,2.6-3.2,2.5c-1.7-0.1-2.9-1.4-2.8-2.9S61.4,77.7,63.1,77.8z
					 M55.8,82.8l14,0.8 M56.1,77.4l14,0.8 M79.1,84.1l14,0.8 M79.4,78.8l14,0.8 M66.1,66.6l18.7,1.1 M73.1,83.8l2.7,0.2 M70,77.6
					l-4-10.9 M79.5,78.1l5.2-10.4"/>
				<path class="st16" d="M75.1,73.1c-2-0.1-3.8,1.3-3.9,3.1s1.5,3.4,3.5,3.5s3.8-1.3,3.9-3.1C78.6,74.8,77.1,73.3,75.1,73.1"/>
				<path class="st8" d="M74.6,80.9c-2.8-0.2-4.9-2.3-4.7-4.8c0.1-2.5,2.5-4.3,5.3-4.2c2.8,0.2,4.9,2.3,4.7,4.8
					C79.7,79.2,77.4,81,74.6,80.9 M74.7,78.5c1.3,0.1,2.4-0.8,2.5-2c0.1-1.2-0.9-2.1-2.2-2.2c-1.3-0.1-2.4,0.8-2.5,2
					C72.5,77.4,73.5,78.4,74.7,78.5"/>
				<path class="st6" d="M79.9,76.7c-0.1,2.5-2.5,4.3-5.3,4.2c-2.8-0.2-4.9-2.3-4.7-4.8c0.1-2.5,2.5-4.3,5.3-4.2
					C77.9,72.1,80,74.2,79.9,76.7z"/>
				<path class="st6" d="M97.6,88.2l5.8,5.8 M97.6,88.2l1,7.3 M50.9,85.5l-6.4,5.1 M50.9,85.5l-1.9,7.2"/>
				<g>
					<defs>
						
							<rect id="SVGID_45_" x="-241.7" y="-63.7" transform="matrix(0.9984 -5.711397e-02 5.711397e-02 0.9984 -9.8281 6.8388)" width="712.9" height="478"/>
					</defs>
					<clipPath id="SVGID_13_">
						<use xlink:href="#SVGID_45_"  style="overflow:visible;"/>
					</clipPath>
					<g class="st17">
						<path class="st18" d="M371.4,369.6l-533.8-30.5l20.5-357.9l533.8,30.5L371.4,369.6z M388.4,14.5l-527.1-30.2l-20.1,352
							l527.1,30.2L388.4,14.5z"/>
					</g>
					<use xlink:href="#SVGID_45_"  style="overflow:visible;fill:none;stroke:#000000;stroke-miterlimit:10;"/>
				</g>
			</g>
		</g>
	</g>
</g>
<g id="Layer_1">
</g>
</svg>
